<svg width="75" height="75" viewBox="0 0 75 75" fill="none" xmlns="http://www.w3.org/2000/svg">
<path d="M75 37.5C75 44.8377 72.028 57.8881 68.4261 63.6691C61.8615 74.2049 51.1427 75 37.9192 75C17.44 75 0 61.7179 0 41.0072C0 31.1621 4.58984 18.696 10.7259 12.0054C17.4981 4.6212 27.175 0 37.9192 0C49.6752 0 61.6326 3.37435 68.4261 12.0054C73.4669 18.4097 75 28.6783 75 37.5Z" fill="#764D2F"/>
<path d="M20.4499 17.8658C19.8029 16.6229 19.921 15.5545 20.4499 14.2535C21.2035 12.3996 22.6788 11.0291 24.5966 11.3885C26.6266 11.769 28.627 15.0343 28.2776 17.1314C27.8018 19.9881 21.7791 20.4197 20.4499 17.8658Z" fill="#FFFDFD"/>
<path d="M37.8425 10.8576C38.4456 8.92174 39.6928 8.19039 41.6278 7.83268C44.3852 7.32294 47.4161 8.21639 49.1125 11.1706C50.9082 14.2976 49.9046 17.656 47.3293 18.9289C43.8215 20.6627 36.6032 14.8351 37.8425 10.8576Z" fill="#FFFDFD"/>
<path d="M32.2373 35.0749C33.1929 33.3025 34.52 32.4261 36.4248 31.7287C39.1392 30.7349 41.8344 30.8817 42.8563 33.0557C43.938 35.3569 42.3207 38.4232 39.6276 40.0305C35.9592 42.22 30.2739 38.7168 32.2373 35.0749Z" fill="#FFFDFD"/>
<path d="M56.4161 26.075C56.8412 24.6268 57.7622 24.0931 59.2011 23.8495C61.2515 23.5023 63.5239 24.2141 64.8274 26.4583C66.2071 28.8339 65.5014 31.3468 63.5967 32.2703C61.0021 33.5284 55.5426 29.0504 56.4161 26.075Z" fill="#FFFDFD"/>
<path d="M61.5911 53.9254C59.6583 54.1211 56.7677 54.6067 55.0738 53.5634C52.6599 52.0768 52.5393 49.0127 53.5707 47.1652C54.6623 45.2095 57.9843 44.8448 60.8522 46.0057C64.7588 47.5871 65.5626 53.5234 61.5911 53.9254Z" fill="#FFFDFD"/>
<path d="M21.1742 54.6795C22.7641 54.5487 24.0575 56.924 24.1962 58.4689C24.3938 60.6703 22.4511 62.2518 20.7452 62.533C18.9394 62.8308 16.9898 61.3448 16.3596 59.0271C15.5011 55.8701 18.7621 54.878 21.1742 54.6795Z" fill="#FFFDFD"/>
<path d="M40.9318 63.555C38.6023 62.8508 37.3654 61.886 36.8114 60.7921C35.4267 58.0578 34.6848 56.7535 36.9263 54.534C39.023 52.4577 40.1622 49.8108 45.2322 53.0403C49.4209 55.7084 45.2522 64.8611 40.9318 63.555Z" fill="#FFFDFD"/>
<path d="M11.338 39.2537C9.60513 37.1909 9.48324 36.3399 9.4706 34.5325C9.45259 31.957 10.5476 31.3722 13.2621 30.5318C15.9767 29.6914 21.2593 32.879 19.7413 35.0721C17.8739 37.7699 13.4532 41.7717 11.338 39.2537Z" fill="#FFFDFD"/>
</svg>
