<svg width="1304" height="819" viewBox="0 0 1304 819" fill="none" xmlns="http://www.w3.org/2000/svg">
<rect x="1.5" y="1.5" width="1301" height="816" fill="url(#paint0_linear_1141_887)" /> <!-- manually modified to remove the border -->
<g opacity="0.75">
<mask id="mask0_1141_887" style="mask-type:alpha" maskUnits="userSpaceOnUse" x="176" y="47" width="218" height="184">
<rect x="176.777" y="71.5439" width="198" height="160.432" transform="rotate(-7.06567 176.777 71.5439)" fill="#D9D9D9"/>
</mask>
<g mask="url(#mask0_1141_887)">
<path d="M366.999 61.8941C343.48 99.5697 351.173 180.081 357.96 215.627L368.277 214.348C366.883 211.426 363.778 198.026 362.508 167.803C361.238 137.581 364.973 84.6046 366.999 61.8941Z" fill="#378F18"/>
<path d="M325.814 114.735C307.326 151.906 313.838 188.161 320.625 223.707L332.941 222.18C331.547 219.258 326.443 206.105 325.173 175.883C323.903 145.661 323.788 137.446 325.814 114.735Z" fill="#378F18"/>
<path d="M339.224 111.882C320.737 149.053 327.248 185.308 334.035 220.854L346.351 219.328C344.958 216.405 339.853 203.253 338.583 173.031C337.313 142.808 337.198 134.593 339.224 111.882Z" fill="#378F18"/>
<path d="M299.71 93.3288C281.223 130.5 295.002 187.877 301.788 223.423L311.051 222.275C309.657 219.352 304.969 201.482 302.15 178.737C298.61 150.177 297.684 116.039 299.71 93.3288Z" fill="#378F18"/>
<path d="M248.261 228.629C248.899 225.454 246.357 213.27 243.524 190.408C241.591 174.815 234.444 136.179 229.172 118.738C226.476 109.822 218.777 84.7306 211.5 76.0491C205.665 69.0878 203.498 76.8028 199.186 81.3848C200.469 73.488 206.459 58.3039 219.707 75.0319C238.336 98.5551 255.474 208.45 256.585 227.597L248.261 228.629Z" fill="#378F18"/>
<path d="M236.262 231.662C237.087 229.985 236.167 223.703 233.851 212.209C232.306 204.536 228.59 191.707 224.401 183.017C222.259 178.575 209.388 155.055 203.448 153.234C198.746 151.794 196.685 161.096 193.687 172.42C191.64 164.578 191.148 141.664 204.935 146.027C210.882 147.908 223.423 162.246 230.794 178.891C239.759 199.14 244.613 225.24 244.589 230.63L236.262 231.662Z" fill="#378F18"/>
<path d="M295.91 222.128C294.727 217.393 286.868 197.178 284.034 174.316C282.102 158.723 281.001 145.169 281.856 126.969C282.644 110.204 288.213 84.159 289.736 70.5184C282.926 80.8859 271.078 118.543 272.827 144.397C274.507 169.242 280.249 207.165 287.129 225.24L295.91 222.128Z" fill="#378F18"/>
<path d="M196.079 83.1984C228.085 113.992 240.281 193.945 242.378 230.072L232.06 231.351C232.699 228.177 232.438 214.424 226.291 184.806C220.144 155.189 203.588 104.727 196.079 83.1984Z" fill="#6DA958"/>
<path d="M302.892 119.005C326.172 141.39 338.336 195.058 339.859 221.323L329.424 222.616C329.888 220.308 330.028 212.962 325.559 191.43C321.089 169.898 308.353 134.655 302.892 119.005Z" fill="#6DA958"/>
<path d="M237.295 125.707C264.299 157.239 266.835 193.987 268.932 230.114L256.616 231.64C257.254 228.466 258.993 214.466 252.846 184.848C246.699 155.23 244.805 147.235 237.295 125.707Z" fill="#6DA958"/>
<path d="M261.034 98.2403C288.037 129.773 288.683 188.777 290.78 224.905L281.518 226.053C282.157 222.879 282.339 204.404 279.52 181.66C275.98 153.1 268.543 119.769 261.034 98.2403Z" fill="#6DA958"/>
<path d="M272.977 226.28C273.615 223.105 272.393 210.043 269.559 187.181C267.627 171.588 264.735 134.686 259.462 117.245C254.606 101.18 247.421 99.8099 242.372 93.6503C249.962 94.3762 264.71 101.399 268.644 123.131C273.08 147.634 280.19 206.101 281.301 225.248L272.977 226.28Z" fill="#6DA958"/>
<path d="M348.898 220.32C347.504 217.398 346.994 204.962 344.16 182.1C342.228 166.506 339.725 127.295 340.58 109.094C341.017 99.7901 342.357 73.5783 347.295 63.3828C351.254 55.2075 355.238 62.1602 360.539 65.5506C357.367 58.206 347.851 44.9438 339.088 64.4C326.765 91.7596 336.977 202.513 340.574 221.352L348.898 220.32Z" fill="#6DA958"/>
<path d="M246.72 230.304C245.512 228.878 244.87 222.562 244.309 210.851C243.935 203.032 244.406 189.684 246.347 180.234C247.339 175.404 254.078 149.453 259.394 146.238C263.602 143.692 267.872 152.21 273.543 162.459C273.614 154.356 268.497 132.014 256.192 139.611C250.884 142.888 242.223 159.854 239.14 177.794C235.389 199.619 237.054 226.115 238.394 231.336L246.72 230.304Z" fill="#6DA958"/>
<path d="M303.78 222.223C303.771 217.344 306.457 195.821 303.623 172.959C301.69 157.366 299.448 143.954 294.175 126.513C289.319 110.448 277.56 86.5508 272.752 73.6949C281.887 82.0861 302.571 115.711 307.187 141.209C311.623 165.712 315.314 203.89 313.055 223.097L303.78 222.223Z" fill="#6DA958"/>
<path d="M269.766 99.5401C296.77 131.073 297.416 190.077 299.513 226.205L290.251 227.353C290.889 224.178 291.071 205.704 288.252 182.959C284.712 154.4 277.276 121.069 269.766 99.5401Z" fill="#227214"/>
<path d="M269.766 99.5401C296.77 131.073 297.416 190.077 299.513 226.205L290.251 227.353C290.889 224.178 291.071 205.704 288.252 182.959C284.712 154.4 277.276 121.069 269.766 99.5401Z" fill="#227214"/>
<path d="M320.158 114.246C343.438 136.631 355.601 190.299 357.125 216.564L346.69 217.857C347.154 215.549 347.294 208.203 342.824 186.671C338.354 165.139 325.619 129.896 320.158 114.246Z" fill="#227214"/>
<path d="M274.295 225.402C272.901 222.48 270.897 209.514 268.063 186.652C266.131 171.059 259.925 134.568 260.78 116.368C261.568 99.6031 268.201 96.5201 271.593 89.3142C264.41 91.8711 251.823 102.283 253.313 124.317C254.994 149.161 262.374 207.595 265.971 226.434L274.295 225.402Z" fill="#378F18"/>
<path d="M353.573 110.104C336.462 137.495 337.77 192.51 342.705 218.351L353.14 217.058C352.126 214.933 350.197 207.843 349.275 185.872C348.352 163.9 352.098 126.614 353.573 110.104Z" fill="#378F18"/>
<path d="M261.347 227.721C260.165 222.987 252.305 202.771 249.472 179.909C247.539 164.316 246.439 150.763 247.294 132.562C248.082 115.798 253.65 89.7525 255.174 76.1118C248.364 86.4793 236.515 124.137 238.264 149.99C239.945 174.835 245.687 212.758 252.566 230.833L261.347 227.721Z" fill="#378F18"/>
</g>
</g>
<g opacity="0.75">
<mask id="mask1_1141_887" style="mask-type:alpha" maskUnits="userSpaceOnUse" x="659" y="308" width="226" height="196">
<rect x="690.104" y="308" width="198" height="160.432" transform="rotate(11.1787 690.104 308)" fill="#D9D9D9"/>
</mask>
<g mask="url(#mask1_1141_887)">
<path d="M873.785 358.388C839.653 386.807 821.754 465.679 817.071 501.563L827.27 503.579C826.861 500.367 828.107 486.668 836.363 457.568C844.619 428.467 864.751 379.323 873.785 358.388Z" fill="#378F18"/>
<path d="M818.126 395.679C788.931 425.193 783.765 461.664 779.082 497.548L791.257 499.954C790.849 496.742 790.118 482.653 798.374 453.553C806.63 424.452 809.092 416.614 818.126 395.679Z" fill="#378F18"/>
<path d="M831.757 397.168C802.562 426.683 797.396 463.154 792.713 499.038L804.888 501.444C804.479 498.232 803.749 484.143 812.005 455.042C820.26 425.941 822.723 418.103 831.757 397.168Z" fill="#378F18"/>
<path d="M800.036 367.176C770.841 396.691 765.964 455.497 761.281 491.381L770.437 493.191C770.028 489.979 771.172 471.539 775.615 449.055C781.194 420.823 791.002 388.111 800.036 367.176Z" fill="#378F18"/>
<path d="M708.817 479.568C710.417 476.753 711.817 464.385 716.284 441.785C719.33 426.371 724.638 387.44 725.091 369.225C725.322 359.913 725.866 333.673 721.672 323.15C718.309 314.711 713.837 321.36 708.306 324.362C711.997 317.264 722.44 304.718 729.785 324.753C740.113 352.926 721.984 462.662 717.046 481.194L708.817 479.568Z" fill="#378F18"/>
<path d="M696.471 478.692C697.779 477.357 698.872 471.103 700.272 459.462C701.206 451.691 701.693 438.344 700.435 428.779C699.792 423.889 694.931 397.522 689.86 393.934C685.845 391.093 680.975 399.283 674.583 409.099C675.094 401.011 681.8 379.094 693.529 387.554C698.588 391.203 706.01 408.746 707.798 426.862C709.974 448.9 706.413 475.207 704.702 480.319L696.471 478.692Z" fill="#378F18"/>
<path d="M756.105 488.311C756.465 483.445 755.329 461.785 759.796 439.185C762.842 423.771 766.04 410.554 772.55 393.536C778.547 377.861 791.99 354.868 797.707 342.39C787.994 350.105 764.951 382.16 758.518 407.261C752.336 431.383 745.917 469.197 746.792 488.518L756.105 488.311Z" fill="#378F18"/>
<path d="M704.787 325.112C725.544 364.377 712.095 444.129 702.776 479.097L692.577 477.081C694.177 474.267 698.236 461.124 701.67 431.07C705.104 401.017 705.179 347.909 704.787 325.112Z" fill="#6DA958"/>
<path d="M795.021 392.558C810.123 421.106 804.873 475.885 798.097 501.306L787.782 499.267C788.945 497.221 791.378 490.287 793.874 468.439C796.37 446.59 795.308 409.132 795.021 392.558Z" fill="#6DA958"/>
<path d="M730.624 378.387C746.398 416.788 737.302 452.482 727.983 487.45L715.808 485.044C717.408 482.229 723.443 469.477 726.877 439.424C730.311 409.37 731.016 401.184 730.624 378.387Z" fill="#6DA958"/>
<path d="M761.769 359.733C777.543 398.134 759.683 454.375 750.365 489.343L741.209 487.533C742.809 484.718 748.766 467.23 753.209 444.746C758.788 416.514 762.161 382.53 761.769 359.733Z" fill="#6DA958"/>
<path d="M733.025 485.075C734.625 482.26 737.553 469.471 742.019 446.872C745.065 431.457 753.872 395.505 754.325 377.29C754.742 360.512 748.347 356.962 745.48 349.531C752.461 352.597 764.27 363.884 761.202 385.754C757.744 410.414 746.192 468.169 741.253 486.701L733.025 485.075Z" fill="#6DA958"/>
<path d="M806.994 503.183C806.585 499.971 809.994 488.001 814.46 465.401C817.506 449.986 827.406 411.962 833.916 394.944C837.244 386.245 846.723 361.77 854.604 353.633C860.924 347.108 862.531 354.959 866.504 359.838C865.79 351.87 860.905 336.295 846.491 352.03C826.223 374.156 801.247 482.539 798.765 501.557L806.994 503.183Z" fill="#6DA958"/>
<path d="M706.829 480.676C706.127 478.944 707.495 472.745 710.629 461.446C712.721 453.904 717.348 441.375 722.149 433.007C724.604 428.73 739.129 406.194 745.184 404.804C749.977 403.704 751.366 413.131 753.544 424.64C756.147 416.966 758.283 394.146 744.217 397.508C738.151 398.959 724.614 412.36 716.069 428.434C705.674 447.987 698.96 473.672 698.598 479.05L706.829 480.676Z" fill="#6DA958"/>
<path d="M763.551 490.866C765.069 486.229 774.359 466.629 778.825 444.029C781.871 428.615 783.94 415.175 784.393 396.96C784.81 380.182 781.123 353.805 780.582 340.09C786.631 350.919 795.748 389.33 792.149 414.991C788.691 439.651 780.244 477.065 772.086 494.6L763.551 490.866Z" fill="#6DA958"/>
<path d="M769.655 363.701C785.429 402.102 767.57 458.343 758.251 493.311L749.095 491.502C750.695 488.687 756.652 471.198 761.096 448.714C766.675 420.482 770.047 386.499 769.655 363.701Z" fill="#227214"/>
<path d="M769.655 363.701C785.429 402.102 767.57 458.343 758.251 493.311L749.095 491.502C750.695 488.687 756.652 471.198 761.096 448.714C766.675 420.482 770.047 386.499 769.655 363.701Z" fill="#227214"/>
<path d="M812.908 393.444C828.01 421.991 822.76 476.77 815.984 502.191L805.668 500.153C806.832 498.107 809.265 491.173 811.761 469.324C814.256 447.476 813.195 410.017 812.908 393.444Z" fill="#227214"/>
<path d="M734.551 484.653C734.142 481.442 736.298 468.501 740.764 445.901C743.81 430.487 749.341 393.887 755.851 376.869C761.848 361.194 769.112 360.343 774.59 354.561C766.968 354.741 751.754 360.688 746.271 382.081C740.089 406.203 728.804 464.01 726.322 483.027L734.551 484.653Z" fill="#378F18"/>
<path d="M845.94 399.971C821.114 420.629 805.133 473.287 801.729 499.374L812.045 501.413C811.747 499.078 812.134 491.74 818.137 470.584C824.14 449.429 839.37 415.19 845.94 399.971Z" fill="#378F18"/>
<path d="M721.527 482.802C721.887 477.936 720.751 456.276 725.217 433.677C728.264 418.262 731.462 405.046 737.972 388.028C743.969 372.353 757.411 349.36 763.129 336.882C753.415 344.596 730.373 376.651 723.94 401.753C717.758 425.875 711.339 463.689 712.214 483.009L721.527 482.802Z" fill="#378F18"/>
</g>
</g>
<g opacity="0.75">
<mask id="mask2_1141_887" style="mask-type:alpha" maskUnits="userSpaceOnUse" x="1043" y="526" width="198" height="161">
<rect x="1043" y="526" width="198" height="160.432" fill="#D9D9D9"/>
</mask>
<g mask="url(#mask2_1141_887)">
<path d="M1232.97 539.822C1204.99 574.319 1202.72 655.165 1205.09 691.276H1215.48C1214.46 688.204 1213.02 674.524 1215.48 644.375C1217.94 614.226 1228.16 562.111 1232.97 539.822Z" fill="#378F18"/>
<path d="M1185.59 587.196C1162.67 621.81 1164.68 658.591 1167.04 694.702H1179.45C1178.43 691.63 1174.98 677.95 1177.43 647.801C1179.89 617.652 1180.79 609.484 1185.59 587.196Z" fill="#378F18"/>
<path d="M1199.25 586.014C1176.33 620.629 1178.34 657.409 1180.7 693.52H1193.11C1192.09 690.449 1188.64 676.768 1191.09 646.619C1193.55 616.47 1194.45 608.303 1199.25 586.014Z" fill="#378F18"/>
<path d="M1162.32 562.741C1139.4 597.356 1146.02 655.992 1148.38 692.103H1157.71C1156.69 689.031 1154.24 670.72 1154.24 647.801C1154.24 619.022 1157.52 585.03 1162.32 562.741Z" fill="#378F18"/>
<path d="M1094.62 690.685C1095.64 687.613 1094.62 675.209 1094.62 652.172C1094.62 636.459 1092.28 597.237 1089.19 579.28C1087.61 570.101 1083.06 544.253 1076.91 534.742C1071.97 527.116 1068.87 534.506 1064.03 538.523C1066.27 530.844 1074.09 516.512 1085.18 534.742C1100.77 560.378 1104.26 671.547 1103.01 690.685H1094.62Z" fill="#378F18"/>
<path d="M1082.34 692.219C1083.36 690.656 1083.22 684.309 1082.34 672.618C1081.75 664.813 1079.64 651.624 1076.55 642.484C1074.97 637.812 1065.09 612.888 1059.42 610.351C1054.93 608.342 1051.74 617.321 1047.37 628.19C1046.31 620.156 1048.64 597.355 1061.78 603.381C1067.45 605.98 1078.14 621.751 1083.4 639.177C1089.81 660.374 1091.42 686.873 1090.73 692.219H1082.34Z" fill="#378F18"/>
<path d="M1142.71 690.094C1142.11 685.251 1136.8 664.222 1136.8 641.185C1136.8 625.473 1137.38 611.887 1140.46 593.93C1143.31 577.389 1152.04 552.227 1155.23 538.877C1147.19 548.328 1130.8 584.242 1129.36 610.115C1127.97 634.977 1129 673.319 1133.61 692.103L1142.71 690.094Z" fill="#378F18"/>
<path d="M1060.72 539.94C1088.7 574.437 1090.97 655.283 1088.6 691.394H1078.21C1079.23 688.322 1080.66 674.642 1078.21 644.493C1075.75 614.344 1065.53 562.229 1060.72 539.94Z" fill="#6DA958"/>
<path d="M1162.32 588.613C1182.67 613.692 1188.14 668.449 1186.42 694.702H1175.91C1176.65 692.469 1177.69 685.195 1175.91 663.277C1174.12 641.359 1165.81 604.817 1162.32 588.613Z" fill="#6DA958"/>
<path d="M1096.4 587.196C1119.32 621.81 1117.31 658.591 1114.95 694.702H1102.54C1103.57 691.63 1107.01 677.95 1104.56 647.801C1102.1 617.652 1101.2 609.484 1096.4 587.196Z" fill="#6DA958"/>
<path d="M1123.34 562.858C1146.25 597.472 1139.64 656.108 1137.28 692.219H1127.94C1128.97 689.148 1131.42 670.836 1131.42 647.917C1131.42 619.139 1128.14 585.147 1123.34 562.858Z" fill="#6DA958"/>
<path d="M1119.44 691.394C1120.46 688.322 1120.86 675.209 1120.86 652.172C1120.86 636.459 1122.53 599.482 1119.44 581.525C1116.59 564.985 1109.63 562.741 1105.38 556.007C1112.82 557.661 1126.59 566.445 1127.83 588.495C1129.21 613.358 1129.08 672.256 1127.83 691.394H1119.44Z" fill="#6DA958"/>
<path d="M1195.51 694.818C1194.49 691.747 1195.51 679.342 1195.51 656.305C1195.51 640.593 1197.85 601.371 1200.94 583.414C1202.52 574.234 1207.07 548.386 1213.23 538.876C1218.16 531.249 1221.26 538.639 1226.1 542.656C1223.86 534.977 1216.05 520.645 1204.96 538.876C1189.36 564.512 1185.87 675.68 1187.13 694.818H1195.51Z" fill="#6DA958"/>
<path d="M1092.88 692.158C1091.86 690.594 1092 684.247 1092.88 672.556C1093.47 664.751 1095.58 651.562 1098.67 642.423C1100.25 637.751 1110.13 612.826 1115.8 610.289C1120.29 608.281 1123.48 617.259 1127.85 628.128C1128.92 620.095 1126.59 597.293 1113.44 603.319C1107.77 605.918 1097.09 621.689 1091.82 639.115C1085.41 660.312 1083.81 686.812 1084.49 692.158H1092.88Z" fill="#6DA958"/>
<path d="M1150.51 691.157C1151.1 686.314 1156.41 665.285 1156.41 642.248C1156.41 626.536 1155.83 612.95 1152.75 594.993C1149.9 578.452 1141.17 553.29 1137.98 539.94C1146.02 549.391 1162.41 585.305 1163.85 611.178C1165.24 636.04 1164.21 674.382 1159.6 693.166L1150.51 691.157Z" fill="#6DA958"/>
<path d="M1131.84 565.222C1154.76 599.837 1148.14 658.473 1145.78 694.584H1136.45C1137.47 691.512 1139.93 673.2 1139.93 650.282C1139.93 621.503 1136.65 587.511 1131.84 565.222Z" fill="#227214"/>
<path d="M1131.84 565.222C1154.76 599.837 1148.14 658.473 1145.78 694.584H1136.45C1137.47 691.512 1139.93 673.2 1139.93 650.282C1139.93 621.503 1136.65 587.511 1131.84 565.222Z" fill="#227214"/>
<path d="M1180.04 586.014C1200.39 611.093 1205.86 665.85 1204.14 692.103H1193.63C1194.37 689.87 1195.41 682.596 1193.63 660.678C1191.84 638.76 1183.54 602.218 1180.04 586.014Z" fill="#227214"/>
<path d="M1120.85 690.685C1119.83 687.613 1119.43 674.5 1119.43 651.463C1119.43 635.751 1117.76 598.773 1120.85 580.816C1123.7 564.276 1130.66 562.032 1134.91 555.298C1127.47 556.952 1113.69 565.736 1112.46 587.786C1111.08 612.649 1111.21 671.547 1112.46 690.685H1120.85Z" fill="#378F18"/>
<path d="M1213.71 586.014C1193.36 611.093 1187.89 665.85 1189.61 692.103H1200.13C1199.38 689.87 1198.34 682.596 1200.13 660.678C1201.91 638.76 1210.22 602.218 1213.71 586.014Z" fill="#378F18"/>
<path d="M1107.72 691.394C1107.13 686.55 1101.81 665.521 1101.81 642.484C1101.81 626.772 1102.39 613.186 1105.48 595.229C1108.32 578.689 1117.05 553.526 1120.24 540.177C1112.21 549.628 1095.82 585.542 1094.37 611.414C1092.98 636.277 1094.02 674.618 1098.62 693.402L1107.72 691.394Z" fill="#378F18"/>
</g>
</g>
<g opacity="0.75">
<mask id="mask3_1141_887" style="mask-type:alpha" maskUnits="userSpaceOnUse" x="1013" y="77" width="236" height="210">
<rect x="1057.97" y="77.4483" width="198" height="160.432" transform="rotate(15.9526 1057.97 77.4483)" fill="#D9D9D9"/>
</mask>
<g mask="url(#mask3_1141_887)">
<path d="M1236.82 142.949C1200.45 168.428 1176.04 245.537 1168.39 280.907L1178.39 283.764C1178.25 280.529 1180.63 266.982 1191.28 238.669C1201.93 210.357 1226.08 163.059 1236.82 142.949Z" fill="#378F18"/>
<path d="M1178.26 175.478C1146.71 202.46 1138.52 238.374 1130.87 273.744L1142.8 277.155C1142.66 273.92 1143.11 259.819 1153.76 231.507C1164.41 203.194 1167.51 195.588 1178.26 175.478Z" fill="#378F18"/>
<path d="M1191.72 178.096C1160.17 205.079 1151.98 240.993 1144.33 276.363L1156.26 279.774C1156.12 276.539 1156.57 262.438 1167.22 234.125C1177.86 205.813 1180.97 198.206 1191.72 178.096Z" fill="#378F18"/>
<path d="M1162.6 145.569C1131.05 172.551 1121.3 230.747 1113.64 266.117L1122.62 268.682C1122.48 265.447 1125.15 247.167 1131.45 225.131C1139.36 197.461 1151.86 165.679 1162.6 145.569Z" fill="#378F18"/>
<path d="M1062.34 249.978C1064.17 247.306 1066.6 235.098 1072.93 212.948C1077.25 197.841 1085.78 159.486 1087.74 141.372C1088.75 132.113 1091.48 106.009 1088.17 95.1726C1085.52 86.4838 1080.51 92.7375 1074.75 95.2683C1079.02 88.502 1090.47 76.8691 1096.12 97.4454C1104.07 126.38 1076.87 234.227 1070.41 252.284L1062.34 249.978Z" fill="#378F18"/>
<path d="M1050.11 248.078C1051.53 246.857 1053.14 240.716 1055.5 229.231C1057.08 221.565 1058.67 208.304 1058.22 198.668C1057.98 193.742 1055.33 167.061 1050.58 163.064C1046.81 159.899 1041.28 167.655 1034.09 176.905C1035.28 168.887 1043.78 147.604 1054.77 157.011C1059.5 161.069 1065.44 179.169 1065.71 197.371C1066.05 219.513 1060.31 245.433 1058.18 250.384L1050.11 248.078Z" fill="#378F18"/>
<path d="M1108.74 262.627C1109.5 257.807 1110.18 236.128 1116.51 213.978C1120.83 198.871 1125.11 185.966 1133.02 169.549C1140.3 154.428 1155.61 132.633 1162.34 120.675C1152.02 127.554 1126.39 157.58 1117.89 182.059C1109.72 205.583 1100.18 242.731 1099.44 262.057L1108.74 262.627Z" fill="#378F18"/>
<path d="M1071.18 95.7227C1088.6 136.579 1068.56 214.935 1056.36 249.006L1046.37 246.149C1048.2 243.477 1053.34 230.717 1059.26 201.054C1065.18 171.391 1069.68 118.474 1071.18 95.7227Z" fill="#6DA958"/>
<path d="M1155.49 170.445C1168.16 200.15 1158.37 254.302 1149.5 279.071L1139.39 276.181C1140.72 274.239 1143.73 267.532 1148.03 245.967C1152.34 224.401 1154.4 186.985 1155.49 170.445Z" fill="#6DA958"/>
<path d="M1092.5 150.963C1105.02 190.544 1092.99 225.358 1080.79 259.428L1068.86 256.018C1070.69 253.346 1077.76 241.14 1083.68 211.476C1089.61 181.813 1090.99 173.714 1092.5 150.963Z" fill="#6DA958"/>
<path d="M1125.08 134.966C1137.61 174.547 1115.13 229.106 1102.93 263.177L1093.96 260.612C1095.79 257.94 1103.18 241.008 1109.48 218.972C1117.39 191.302 1123.58 157.717 1125.08 134.966Z" fill="#6DA958"/>
<path d="M1086.01 257.481C1087.84 254.809 1091.82 242.309 1098.15 220.159C1102.47 205.051 1114.24 169.957 1116.21 151.843C1118.02 135.158 1111.94 131.087 1109.7 123.444C1116.41 127.08 1127.23 139.311 1122.36 160.85C1116.86 185.137 1100.54 241.729 1094.08 259.786L1086.01 257.481Z" fill="#6DA958"/>
<path d="M1158.22 281.682C1158.07 278.448 1162.47 266.802 1168.8 244.652C1173.12 229.545 1186.15 192.477 1194.05 176.06C1198.09 167.668 1209.58 144.067 1218.11 136.614C1224.95 130.637 1225.9 138.594 1229.45 143.788C1229.4 135.787 1225.83 119.86 1210.16 134.341C1188.12 154.704 1154.21 260.632 1150.15 279.377L1158.22 281.682Z" fill="#6DA958"/>
<path d="M1060.27 250.917C1059.72 249.133 1061.6 243.069 1065.66 232.071C1068.37 224.728 1074.03 212.628 1079.51 204.689C1082.31 200.63 1098.66 179.381 1104.81 178.501C1109.68 177.803 1110.28 187.313 1111.49 198.963C1114.72 191.533 1118.75 168.969 1104.45 171.15C1098.29 172.09 1083.68 184.318 1073.83 199.625C1061.84 218.246 1053.01 243.283 1052.21 248.612L1060.27 250.917Z" fill="#6DA958"/>
<path d="M1115.95 265.792C1117.85 261.298 1128.73 242.539 1135.07 220.389C1139.38 205.282 1142.57 192.061 1144.53 173.947C1146.34 157.262 1144.87 130.669 1145.47 116.957C1150.59 128.252 1156.48 167.288 1150.76 192.561C1145.26 216.848 1133.73 253.428 1124.14 270.224L1115.95 265.792Z" fill="#6DA958"/>
<path d="M1132.61 139.577C1145.14 179.158 1122.66 233.717 1110.46 267.788L1101.49 265.223C1103.32 262.551 1110.71 245.619 1117.01 223.583C1124.92 195.913 1131.11 162.328 1132.61 139.577Z" fill="#227214"/>
<path d="M1132.61 139.577C1145.14 179.158 1122.66 233.717 1110.46 267.788L1101.49 265.223C1103.32 262.551 1110.71 245.619 1117.01 223.583C1124.92 195.913 1131.11 162.328 1132.61 139.577Z" fill="#227214"/>
<path d="M1173.24 172.816C1185.92 202.522 1176.12 256.674 1167.26 281.442L1157.15 278.552C1158.48 276.61 1161.48 269.903 1165.78 248.338C1170.09 226.773 1172.15 189.356 1173.24 172.816Z" fill="#227214"/>
<path d="M1087.57 257.188C1087.43 253.953 1090.65 241.237 1096.98 219.087C1101.3 203.98 1109.86 167.967 1117.76 151.55C1125.04 136.429 1132.35 136.185 1138.29 130.879C1130.68 130.424 1115.03 135.084 1107.78 155.947C1099.61 179.47 1083.56 236.138 1079.5 254.883L1087.57 257.188Z" fill="#378F18"/>
<path d="M1205.62 182.07C1179.16 200.59 1158.85 251.735 1153.29 277.449L1163.4 280.339C1163.29 277.987 1164.29 270.707 1172.03 250.124C1179.78 229.541 1197.8 196.689 1205.62 182.07Z" fill="#378F18"/>
<path d="M1074.74 254.26C1075.51 249.44 1076.18 227.761 1082.51 205.611C1086.83 190.504 1091.11 177.599 1099.02 161.182C1106.3 146.061 1121.61 124.267 1128.34 112.308C1118.02 119.187 1092.39 149.213 1083.89 173.692C1075.72 197.216 1066.18 234.364 1065.44 253.69L1074.74 254.26Z" fill="#378F18"/>
</g>
</g>
<g opacity="0.75">
<mask id="mask4_1141_887" style="mask-type:alpha" maskUnits="userSpaceOnUse" x="89" y="483" width="217" height="184">
<rect x="89" y="507.355" width="198" height="160.432" transform="rotate(-7.06567 89 507.355)" fill="#D9D9D9"/>
</mask>
<g mask="url(#mask4_1141_887)">
<path d="M279.224 497.706C255.704 535.381 263.398 615.892 270.185 651.438L280.502 650.16C279.108 647.237 276.003 633.837 274.733 603.615C273.463 573.393 277.198 520.416 279.224 497.706Z" fill="#378F18"/>
<path d="M238.037 550.546C219.549 587.717 226.061 623.972 232.848 659.518L245.164 657.992C243.77 655.069 238.666 641.917 237.396 611.695C236.126 581.472 236.011 573.257 238.037 550.546Z" fill="#378F18"/>
<path d="M251.449 547.694C232.961 584.865 239.473 621.119 246.26 656.665L258.576 655.139C257.182 652.217 252.078 639.064 250.808 608.842C249.538 578.62 249.423 570.404 251.449 547.694Z" fill="#378F18"/>
<path d="M211.933 529.14C193.445 566.311 207.224 623.688 214.011 659.234L223.273 658.086C221.879 655.164 217.192 637.293 214.373 614.548C210.833 585.989 209.907 551.851 211.933 529.14Z" fill="#378F18"/>
<path d="M160.486 664.44C161.124 661.266 158.582 649.081 155.748 626.219C153.816 610.626 146.669 571.99 141.396 554.549C138.701 545.633 131.002 520.542 123.725 511.861C117.889 504.899 115.723 512.614 111.41 517.196C112.693 509.299 118.683 494.115 131.931 510.843C150.561 534.366 167.698 644.262 168.81 663.408L160.486 664.44Z" fill="#378F18"/>
<path d="M148.485 667.473C149.309 665.796 148.389 659.515 146.074 648.021C144.528 640.347 140.812 627.519 136.623 618.828C134.482 614.386 121.61 590.866 115.671 589.046C110.968 587.605 108.907 596.908 105.91 608.231C103.863 600.39 103.37 577.475 117.158 581.838C123.105 583.72 135.646 598.057 143.016 614.703C151.982 634.951 156.836 661.052 156.811 666.441L148.485 667.473Z" fill="#378F18"/>
<path d="M208.134 657.939C206.952 653.205 199.093 632.989 196.259 610.127C194.326 594.534 193.226 580.981 194.081 562.78C194.869 546.016 200.437 519.97 201.961 506.33C195.151 516.697 183.302 554.355 185.051 580.208C186.732 605.053 192.474 642.976 199.354 661.051L208.134 657.939Z" fill="#378F18"/>
<path d="M108.303 519.01C140.309 549.803 152.505 629.756 154.602 665.884L144.285 667.162C144.923 663.988 144.663 650.235 138.516 620.618C132.369 591 115.813 540.538 108.303 519.01Z" fill="#6DA958"/>
<path d="M215.117 554.816C238.397 577.201 250.56 630.87 252.084 657.134L241.649 658.428C242.113 656.12 242.253 648.773 237.783 627.241C233.313 605.71 220.578 570.467 215.117 554.816Z" fill="#6DA958"/>
<path d="M149.52 561.518C176.523 593.05 179.06 629.798 181.157 665.925L168.841 667.452C169.479 664.278 171.218 650.277 165.071 620.659C158.923 591.042 157.029 583.047 149.52 561.518Z" fill="#6DA958"/>
<path d="M173.259 534.052C200.262 565.584 200.908 624.589 203.005 660.716L193.743 661.864C194.381 658.69 194.564 640.216 191.744 617.471C188.204 588.911 180.768 555.58 173.259 534.052Z" fill="#6DA958"/>
<path d="M185.202 662.091C185.84 658.917 184.618 645.854 181.784 622.992C179.851 607.399 176.96 570.497 171.687 553.057C166.83 536.992 159.645 535.621 154.596 529.462C162.186 530.188 176.935 537.211 180.869 558.942C185.304 583.445 192.414 641.912 193.526 661.059L185.202 662.091Z" fill="#6DA958"/>
<path d="M261.12 656.132C259.726 653.209 259.217 640.773 256.383 617.911C254.45 602.318 251.948 563.106 252.803 544.905C253.24 535.601 254.58 509.39 259.517 499.194C263.477 491.019 267.461 497.972 272.762 501.362C269.59 494.017 260.074 480.755 251.311 500.211C238.988 527.571 249.199 638.325 252.796 657.163L261.12 656.132Z" fill="#6DA958"/>
<path d="M158.945 666.115C157.736 664.689 157.095 658.374 156.534 646.662C156.159 638.844 156.631 625.496 158.571 616.046C159.563 611.215 166.303 585.264 171.619 582.049C175.827 579.504 180.097 588.022 185.768 598.271C185.839 590.167 180.722 567.825 168.416 575.422C163.109 578.699 154.448 595.665 151.365 613.606C147.614 635.431 149.279 661.926 150.619 667.147L158.945 666.115Z" fill="#6DA958"/>
<path d="M216.005 658.035C215.995 653.155 218.681 631.633 215.848 608.771C213.915 593.178 211.673 579.766 206.4 562.325C201.543 546.26 189.784 522.362 184.977 509.506C194.112 517.897 214.796 551.523 219.412 577.021C223.847 601.524 227.538 639.701 225.28 658.909L216.005 658.035Z" fill="#6DA958"/>
<path d="M181.991 535.351C208.994 566.884 209.64 625.889 211.737 662.016L202.475 663.164C203.114 659.99 203.296 641.516 200.477 618.771C196.937 590.211 189.5 556.88 181.991 535.351Z" fill="#227214"/>
<path d="M181.991 535.351C208.994 566.884 209.64 625.889 211.737 662.016L202.475 663.164C203.114 659.99 203.296 641.516 200.477 618.771C196.937 590.211 189.5 556.88 181.991 535.351Z" fill="#227214"/>
<path d="M232.382 550.057C255.662 572.442 267.826 626.111 269.349 652.375L258.914 653.669C259.379 651.361 259.519 644.014 255.049 622.482C250.579 600.951 237.844 565.708 232.382 550.057Z" fill="#227214"/>
<path d="M186.518 661.213C185.124 658.291 183.12 645.326 180.286 622.464C178.353 606.871 172.148 570.379 173.003 552.179C173.79 535.414 180.423 532.332 183.816 525.126C176.633 527.683 164.045 538.094 165.536 560.128C167.217 584.973 174.597 643.406 178.193 662.245L186.518 661.213Z" fill="#378F18"/>
<path d="M265.796 545.915C248.685 573.307 249.993 628.321 254.928 654.163L265.363 652.869C264.349 650.745 262.419 643.654 261.497 621.683C260.575 599.712 264.32 562.426 265.796 545.915Z" fill="#378F18"/>
<path d="M173.572 663.532C172.39 658.798 164.53 638.583 161.696 615.721C159.764 600.128 158.664 586.574 159.519 568.374C160.306 551.609 165.875 525.564 167.398 511.923C160.589 522.291 148.74 559.948 150.489 585.802C152.169 610.646 157.911 648.569 164.791 666.644L173.572 663.532Z" fill="#378F18"/>
</g>
</g>
<defs>
<linearGradient id="paint0_linear_1141_887" x1="652" y1="3" x2="652" y2="816" gradientUnits="userSpaceOnUse">
<stop stop-color="#D2FCB4"/>
<stop offset="1" stop-color="#3C852B"/>
</linearGradient>
</defs>
</svg>
