<svg width="149" height="248" viewBox="0 0 149 248" fill="none" xmlns="http://www.w3.org/2000/svg">
<g filter="url(#filter0_d_1129_2147)">
<path d="M74.5 50C113.074 50 144.412 78.5626 144.991 114H145V240H4V114H4.00879C4.58847 78.5626 35.9261 50 74.5 50Z" fill="#9F9B99"/>
</g>
<path d="M81 13H99V24H81V60H68V24H50V13H68V0H81V13Z" fill="#BAB6B4"/>
<path d="M84.5312 136.594C84.5312 134.25 83.5469 132.203 81.5781 130.453C79.6406 128.703 77.3438 127.828 74.6875 127.828C72.5938 127.828 70.6719 128.406 68.9219 129.562C67.1719 130.719 66.0469 131.953 65.5469 133.266C65.1094 134.422 64.5 135.344 63.7188 136.031C62.9375 136.719 61.8281 137.062 60.3906 137.062C59.3594 137.062 58.3906 136.625 57.4844 135.75C56.5781 134.844 56.125 133.891 56.125 132.891C56.125 132.453 56.1562 132.078 56.2188 131.766C56.3125 131.422 56.3906 131.141 56.4531 130.922C57.7344 127.547 59.9531 124.641 63.1094 122.203C66.2969 119.734 70.1562 118.5 74.6875 118.5C78.1562 118.5 81.3438 119.297 84.25 120.891C87.1875 122.484 89.5312 124.672 91.2812 127.453C93.0625 130.234 93.9531 133.406 93.9531 136.969C93.9531 139.688 93.375 142.109 92.2188 144.234C91.0938 146.359 89.7812 148.156 88.2812 149.625C90.4688 151.125 92.2031 153.031 93.4844 155.344C94.7656 157.656 95.4062 160.328 95.4062 163.359C95.4062 167.328 94.3906 170.859 92.3594 173.953C90.3281 177.016 87.6562 179.422 84.3438 181.172C81.0312 182.922 77.4375 183.797 73.5625 183.797C69.375 183.797 65.6406 182.797 62.3594 180.797C59.0781 178.797 56.4844 176.484 54.5781 173.859C53.9844 173.016 53.6875 172.094 53.6875 171.094C53.6875 169.812 54.1875 168.781 55.1875 168C56.2188 167.219 57.3594 166.828 58.6094 166.828C60.0781 166.828 61.2812 167.453 62.2188 168.703C63.3125 170.109 64.8438 171.406 66.8125 172.594C68.7812 173.781 70.9375 174.375 73.2812 174.375C75.5938 174.375 77.7031 173.891 79.6094 172.922C81.5469 171.953 83.0938 170.656 84.25 169.031C85.4375 167.375 86.0312 165.547 86.0312 163.547C86.0312 160.391 84.9688 158.234 82.8438 157.078C80.7188 155.891 77.7031 155.281 73.7969 155.25C72.5781 155.25 71.5156 154.812 70.6094 153.938C69.7344 153.062 69.2969 151.953 69.2969 150.609C69.2969 148.891 69.875 147.641 71.0312 146.859C72.1875 146.047 73.375 145.641 74.5938 145.641C77.4688 145.641 79.8438 144.922 81.7188 143.484C83.5938 142.016 84.5312 139.719 84.5312 136.594Z" fill="white"/>
<defs>
<filter id="filter0_d_1129_2147" x="0" y="50" width="149" height="198" filterUnits="userSpaceOnUse" color-interpolation-filters="sRGB">
<feFlood flood-opacity="0" result="BackgroundImageFix"/>
<feColorMatrix in="SourceAlpha" type="matrix" values="0 0 0 0 0 0 0 0 0 0 0 0 0 0 0 0 0 0 127 0" result="hardAlpha"/>
<feOffset dy="4"/>
<feGaussianBlur stdDeviation="2"/>
<feComposite in2="hardAlpha" operator="out"/>
<feColorMatrix type="matrix" values="0 0 0 0 0 0 0 0 0 0 0 0 0 0 0 0 0 0 0.25 0"/>
<feBlend mode="normal" in2="BackgroundImageFix" result="effect1_dropShadow_1129_2147"/>
<feBlend mode="normal" in="SourceGraphic" in2="effect1_dropShadow_1129_2147" result="shape"/>
</filter>
</defs>
</svg>
