<svg width="178" height="178" viewBox="0 0 178 178" fill="none" xmlns="http://www.w3.org/2000/svg">
<path d="M177.426 88.7129C177.426 106.071 170.395 136.945 161.874 150.62C146.344 175.545 120.987 177.426 89.7046 177.426C41.2575 177.426 0 146.005 0 97.0098C0 73.7196 10.8581 44.2287 25.3741 28.4009C41.3949 10.9323 64.2874 0 89.7046 0C117.516 0 145.803 7.98263 161.874 28.4009C173.799 43.5515 177.426 67.8435 177.426 88.7129Z" fill="#764D2F"/>
<path d="M48.3778 42.2648C46.8473 39.3244 47.1266 36.7969 48.3778 33.7192C50.1607 29.3334 53.6507 26.0914 58.1876 26.9416C62.9899 27.8416 67.7221 35.5662 66.8958 40.5274C65.7701 47.2854 51.5223 48.3064 48.3778 42.2648Z" fill="#FFFDFD"/>
<path d="M89.5246 25.6855C90.9515 21.1059 93.9019 19.3758 98.4795 18.5296C105.003 17.3237 112.173 19.4373 116.186 26.426C120.434 33.8235 118.06 41.7685 111.967 44.7796C103.669 48.8812 86.5928 35.0951 89.5246 25.6855Z" fill="#FFFDFD"/>
<path d="M76.2623 82.976C78.5229 78.7829 81.6623 76.7097 86.1685 75.0598C92.59 72.7088 98.966 73.056 101.384 78.1991C103.942 83.643 100.116 90.8969 93.7454 94.6993C85.067 99.8788 71.6175 91.5913 76.2623 82.976Z" fill="#FFFDFD"/>
<path d="M133.461 61.685C134.467 58.2592 136.645 56.9966 140.049 56.4202C144.9 55.5988 150.276 57.2827 153.359 62.5919C156.623 68.2118 154.954 74.1564 150.448 76.3412C144.31 79.3173 131.395 68.7239 133.461 61.685Z" fill="#FFFDFD"/>
<path d="M145.706 127.57C141.134 128.033 134.296 129.182 130.288 126.714C124.578 123.197 124.293 115.948 126.732 111.578C129.315 106.951 137.174 106.088 143.958 108.835C153.2 112.576 155.101 126.619 145.706 127.57Z" fill="#FFFDFD"/>
<path d="M50.0925 129.354C53.8536 129.045 56.9133 134.664 57.2414 138.319C57.709 143.526 53.1131 147.268 49.0775 147.933C44.8057 148.637 40.1934 145.122 38.7026 139.639C36.6718 132.171 44.3861 129.824 50.0925 129.354Z" fill="#FFFDFD"/>
<path d="M96.8303 150.351C91.3194 148.685 88.3933 146.402 87.0828 143.815C83.8069 137.346 82.0519 134.26 87.3544 129.01C92.3146 124.098 95.0095 117.836 107.004 125.476C116.913 131.788 107.051 153.44 96.8303 150.351Z" fill="#FFFDFD"/>
<path d="M26.8191 92.8616C22.7197 87.9817 22.4314 85.9684 22.4015 81.6928C22.3588 75.6 24.9492 74.2165 31.371 72.2284C37.7929 70.2403 50.2897 77.7811 46.6986 82.9692C42.281 89.3514 31.8231 98.8185 26.8191 92.8616Z" fill="#FFFDFD"/>
</svg>
