<?xml version="1.0" standalone="no"?>
<!DOCTYPE svg PUBLIC "-//W3C//DTD SVG 20010904//EN"
 "http://www.w3.org/TR/2001/REC-SVG-20010904/DTD/svg10.dtd">
<svg version="1.0" xmlns="http://www.w3.org/2000/svg"
 width="275.000000pt" height="403.000000pt" viewBox="0 0 275.000000 403.000000"
 preserveAspectRatio="xMidYMid meet">

<g transform="translate(0.000000,403.000000) scale(0.100000,-0.100000)"
fill="#000000" stroke="none">
<path d="M980 3714 c-19 -2 -84 -9 -145 -14 -136 -14 -284 -45 -342 -73 l-43
-21 0 -75 c0 -54 6 -89 20 -120 29 -64 26 -119 -10 -172 -16 -24 -30 -51 -30
-59 0 -8 14 -44 31 -80 27 -58 30 -73 27 -135 -3 -57 -12 -87 -46 -160 l-42
-90 2 -1040 3 -1040 41 -85 c67 -141 128 -179 354 -226 178 -37 380 -47 770
-41 341 6 487 19 544 49 82 43 154 137 220 286 l36 83 0 957 c0 559 -4 981
-10 1015 -5 32 -28 99 -51 149 -30 65 -44 111 -51 169 -9 79 -9 79 21 121 36
49 39 81 11 123 -26 39 -25 57 3 106 l22 39 -22 39 c-29 50 -29 62 -1 111 l23
39 -29 30 c-47 49 -147 76 -381 102 -96 10 -853 21 -925 13z m765 -55 c270
-17 446 -49 475 -84 27 -33 -4 -38 -97 -17 -175 41 -275 47 -758 46 -495 0
-613 -9 -744 -54 -51 -18 -68 -20 -88 -11 -89 41 94 94 412 120 149 12 618 12
800 0z m249 -99 c160 -21 178 -41 54 -58 -244 -33 -315 -37 -673 -36 -463 1
-743 23 -732 57 5 17 86 35 207 46 140 13 1029 6 1144 -9z m-1360 -75 c175
-39 342 -47 856 -42 420 4 474 6 560 25 52 11 108 25 123 31 38 15 47 14 47
-4 0 -33 -62 -47 -348 -80 -118 -14 -218 -28 -221 -31 -12 -13 277 6 399 26
69 12 134 19 145 16 12 -3 29 -22 38 -41 16 -33 16 -38 2 -58 -22 -31 -19 -89
6 -121 27 -34 19 -67 -21 -96 -33 -24 -33 -12 -8 -160 6 -36 34 -119 62 -185
l51 -120 3 -525 c2 -289 -2 -722 -7 -962 l-11 -437 -39 -90 c-111 -260 -154
-281 -610 -300 -376 -16 -802 16 -972 74 -113 38 -140 61 -191 162 l-46 88 -6
1020 -7 1020 46 102 c27 59 48 124 52 155 9 84 16 91 76 85 29 -3 113 -15 187
-28 129 -23 157 -24 630 -24 367 0 518 3 583 14 117 18 128 37 16 27 -247 -21
-358 -25 -605 -26 -316 0 -458 10 -719 50 -167 26 -192 32 -207 52 -32 41 -33
67 -4 97 20 21 30 46 39 94 10 63 10 66 -16 100 -15 20 -27 41 -27 47 0 11 28
70 33 70 1 0 51 -11 111 -25z"/>
<path d="M565 3460 c-13 -21 168 -54 400 -75 256 -22 405 -29 405 -17 0 13
-50 19 -260 33 -158 10 -407 39 -498 58 -23 4 -45 5 -47 1z"/>
<path d="M672 3340 c27 -16 239 -48 438 -66 143 -13 238 -15 420 -10 266 7
460 22 475 38 7 7 -12 8 -60 4 -38 -3 -207 -9 -375 -12 -323 -7 -475 1 -718
36 -150 22 -207 25 -180 10z"/>
<path d="M550 3221 c0 -13 75 -29 264 -58 139 -20 222 -26 443 -30 374 -7 784
20 755 49 -7 7 -43 7 -109 -1 -434 -48 -882 -37 -1248 34 -93 17 -105 18 -105
6z"/>
<path d="M1975 2939 c-27 -5 -327 -13 -665 -19 l-615 -11 -22 -27 c-31 -38
-30 -87 3 -117 42 -39 61 -31 25 10 -35 40 -37 53 -17 80 19 26 111 33 486 35
342 1 790 16 839 28 19 4 36 13 39 20 4 13 0 13 -73 1z"/>
<path d="M2170 2633 c0 -3 14 -18 31 -32 27 -23 32 -35 39 -101 5 -41 10 -309
11 -595 1 -286 5 -551 9 -590 4 -38 7 200 8 530 1 671 -2 738 -43 772 -25 22
-55 31 -55 16z"/>
<path d="M538 2400 c-12 -210 -19 -938 -10 -1010 11 -86 25 529 20 885 -3 246
-3 253 -10 125z"/>
<path d="M2191 556 c-53 -56 -131 -82 -351 -117 -96 -15 -122 -28 -55 -29 58
0 195 23 273 46 63 18 124 56 147 91 22 33 14 39 -14 9z"/>
</g>
</svg>
