<?xml version="1.0" encoding="iso-8859-1"?>
<!-- Generator: Adobe Illustrator 19.0.0, SVG Export Plug-In . SVG Version: 6.00 Build 0)  -->
<svg version="1.1" id="Layer_1" xmlns="http://www.w3.org/2000/svg" xmlns:xlink="http://www.w3.org/1999/xlink" x="0px" y="0px"
	 viewBox="0 0 512 512" style="enable-background:new 0 0 512 512;" xml:space="preserve">
<rect x="364.788" y="247.463" style="fill:#D7D7D7;" width="33.391" height="64.668"/>
<rect x="299.152" y="186.401" style="fill:#444444;" width="164.675" height="77.764"/>
<rect x="381.484" y="186.401" style="fill:#232323;" width="82.336" height="77.764"/>
<path style="fill:#95BB40;" d="M234.724,446.039H63.683l14.19-279.071h142.66L234.724,446.039z"/>
<path style="fill:#C0E466;" d="M507.11,200.36H4.889v-72.999C4.889,57.134,62.023,0,132.249,0h247.5
	C449.976,0,507.11,57.134,507.11,127.361V200.36z"/>
<path style="fill:#F7F7F8;" d="M149.204,145.696c-25.099,0-45.518-20.419-45.518-45.518c0-25.098,20.419-45.517,45.518-45.517
	c25.098,0,45.517,20.419,45.517,45.517C194.72,125.279,174.302,145.696,149.204,145.696z"/>
<path style="fill:#B0B0B0;" d="M149.204,88.054c-6.686,0-12.127,5.439-12.127,12.125c0,6.686,5.441,12.127,12.127,12.127
	c6.686,0,12.125-5.441,12.125-12.127C161.33,93.493,155.89,88.054,149.204,88.054z"/>
<path style="fill:#F0C838;" d="M387.873,445.459h-12.777c-57.421,0-104.135-46.714-104.135-104.135v-45.882h221.046v45.882
	C492.007,398.744,445.292,445.459,387.873,445.459z"/>
<path style="fill:#E79C25;" d="M387.873,445.459h-6.389c0-58.12,0-150.016,0-150.016h110.523v45.882
	C492.007,398.744,445.292,445.459,387.873,445.459z"/>
<path style="fill:#C0E466;" d="M507.11,512H4.889v-77.913h502.222V512H507.11z"/>
<g>
</g>
<g>
</g>
<g>
</g>
<g>
</g>
<g>
</g>
<g>
</g>
<g>
</g>
<g>
</g>
<g>
</g>
<g>
</g>
<g>
</g>
<g>
</g>
<g>
</g>
<g>
</g>
<g>
</g>
</svg>
