<svg width="135" height="135" viewBox="0 0 135 135" fill="none" xmlns="http://www.w3.org/2000/svg">
<mask id="mask0_1004_828" style="mask-type:alpha" maskUnits="userSpaceOnUse" x="0" y="0" width="135" height="135">
<rect width="135" height="135" rx="25" fill="#E3BC8C"/>
</mask>
<g mask="url(#mask0_1004_828)">
<rect width="135" height="135" rx="25" fill="#E3BC8C"/>
<g filter="url(#filter0_d_1004_828)">
<path d="M-1 96.5746C-1 96.607 0.871094 98.0058 4.83902 103.881C8.80694 109.757 16.7428 121.475 21.7694 128.503C28.3732 137.736 31.4559 140.125 32.8728 140.642C33.4083 140.837 33.7012 139.906 33.8036 139.156C33.906 138.405 33.8424 137.611 32.1027 133.794C30.3631 129.977 26.9495 123.163 22.8623 116.145C18.7752 109.126 14.1179 102.11 11.0082 96.9935C7 90.3985 6.5 89.4999 4.83902 82.4999C4.48882 81.0241 4.44524 74.2461 4.81179 73.5647C5.17835 72.8834 6 72.4999 7 72.4999C7.50629 72.4999 9.5611 72.9765 13 76.4999C16.4389 80.0234 20.3652 86.326 28.1781 96.5746C35.991 106.823 45.1027 120.419 50.2134 127.844C55.986 136.229 57.7648 137.514 59.1362 138.389C59.7331 138.77 60.237 138.838 60.5732 138.665C61.3032 138.287 61.277 136.642 61.1859 134.915C61.1424 134.088 60.9126 133.38 55.7591 125.428C50.6055 117.477 40.4861 102.307 31.8485 86.9351C23.2109 71.563 16.3619 56.4478 12.1817 44.4448C8.00146 32.4417 6.04805 27.9841 4.5 22.9999C2.99783 18.1636 1.74315 11.1978 5.49521 11.1978C8.5 11.1978 10.3091 14.5386 17.414 23.3277C21.1891 27.9977 24.5502 33.6819 33.9002 50.456C43.2502 67.23 58.2934 95.0721 66.4996 110.05C75.4522 126.39 76.9832 128.083 77.8791 129.018C79.7149 130.933 83.7658 134.993 86.5 135.5C87.1548 135.621 89.5 137 90.5 133.5C90.7833 132.508 91.5 129.018 89 120.5C87.8156 116.465 85.4122 110.116 83.9932 105.518C82.5742 100.92 80.5952 96.2163 75.4448 86.426C70.2944 76.6357 62.0324 61.9009 55.7696 48.7602C49.5068 35.6195 45.4935 24.5195 42.7494 15.9664C40.0052 7.41336 38.6519 1.74363 37.8808 -2.54282C37.1096 -6.82928 36.9616 -9.56065 37.1221 -10.9497C37.2826 -12.3388 37.7561 -12.3029 47.2756 2.44812C56.7952 17.1991 75.3463 46.664 86.4471 65.4387C97.5478 84.2134 100.636 91.4051 103.99 97.58C107.344 103.755 110.87 108.695 113.218 111.768C118.204 118.293 122.186 121.671 125.5 122.5C127.5 123 128.087 123.269 128.905 122.5C130.138 121.34 129.595 120.729 129.5 119.5C129.43 118.592 128.955 117.698 126.338 110.703C123.721 103.708 118.509 90.9177 110.619 75.0692C102.729 59.2207 92.0222 42.6868 86.4471 32.4999C83.2049 26.5758 80 20.4497 78.5 15.9664C75.5 6.99994 74 2.99994 77 0.999939C80.5 -1.33339 86.0337 5.46652 91 12.9999C99.1416 25.35 113.983 47.782 123.219 60.2434C133.125 73.6093 135.965 74.3915 137 74.9999C137.484 75.2848 138.965 75.3754 139.359 75.1709C139.753 74.9665 140.339 74.1231 140.5 73.4999C140.661 72.8767 140 70.9999 138 65.9999C136.285 61.7124 133.961 56.3532 132 50.9999C130.039 45.6467 127.415 40.0577 125.5 36.4999C123.585 32.9422 122.016 30.6187 118.5 25.4999C114.984 20.3812 112.196 14.5894 109.83 11.3625C105.11 4.92187 104.453 -1.10811 104.496 -3.32567C104.514 -4.21944 104.851 -4.62157 105.231 -4.69231C106.115 -4.85708 110.574 0.282382 116.926 7.59266C120.181 11.3385 124.016 16.2007 127.5 22.4999C129.044 25.1001 136.272 37.6335 138 39.4999" stroke="#B1652F" stroke-width="7" stroke-linecap="round"/>
</g>
</g>
<defs>
<filter id="filter0_d_1004_828" x="-8.5" y="-15.02" width="156.523" height="167.189" filterUnits="userSpaceOnUse" color-interpolation-filters="sRGB">
<feFlood flood-opacity="0" result="BackgroundImageFix"/>
<feColorMatrix in="SourceAlpha" type="matrix" values="0 0 0 0 0 0 0 0 0 0 0 0 0 0 0 0 0 0 127 0" result="hardAlpha"/>
<feOffset dy="4"/>
<feGaussianBlur stdDeviation="2"/>
<feComposite in2="hardAlpha" operator="out"/>
<feColorMatrix type="matrix" values="0 0 0 0 0 0 0 0 0 0 0 0 0 0 0 0 0 0 0.25 0"/>
<feBlend mode="normal" in2="BackgroundImageFix" result="effect1_dropShadow_1004_828"/>
<feBlend mode="normal" in="SourceGraphic" in2="effect1_dropShadow_1004_828" result="shape"/>
</filter>
</defs>
</svg>
