<svg width="678" height="678" viewBox="0 0 678 678" fill="none" xmlns="http://www.w3.org/2000/svg">
<path d="M678 339C678 434.298 620.305 554.411 557 616C495.935 675.41 430.927 678 339 678C241.28 678 153.218 636.653 91.3519 570.5C34.6871 509.908 0 428.505 0 339C0 241.774 44.4303 124.816 110 63C170.695 5.77963 249.002 0 339 0C447.374 0 563.943 45.8537 626 125C671.152 182.586 678 260.149 678 339Z" fill="#E3BC8C"/>
<g filter="url(#filter0_d_1126_2060)">
<path d="M49 426C49 426.119 83.9255 473.918 98.5 495.5C113.074 517.082 144.344 552.482 166.5 575.206C198.366 607.889 214.213 616.004 219.417 617.903C221.384 618.621 222.46 615.201 222.836 612.445C223.212 609.689 222.979 606.769 216.589 592.75C210.199 578.731 197.661 553.702 182.648 527.923C167.636 502.144 150.529 476.374 139.107 457.58C124.385 433.356 123.435 428.557 112.5 404.5C110 399 98.5 367.5 107.5 359C109.566 357.049 119.715 360.357 123 362C127.5 364.25 133.792 369.363 146.423 382.305C159.054 395.247 176.966 415.976 202.173 456.041C227 495.5 253.728 543.23 272.5 570.5C293.703 601.301 303.774 612.774 308 617C311.5 620.5 324.837 634.36 333.5 622.5C335.28 620.063 332.587 599.633 329.5 592.5C328.293 589.711 325.429 578.707 306.5 549.5C287.571 520.293 253.726 463.463 222 407C190.274 350.537 162.636 306 143.417 264.564C123.774 222.213 120.888 204.103 115.202 185.796C109.684 168.031 105.076 142.446 118.857 142.446C129.894 142.446 136.539 154.717 162.636 187C176.502 204.153 188.848 225.031 223.191 286.644C257.534 348.256 312.789 450.522 342.931 505.536C375.815 565.554 381.747 571.501 384.729 575.206C391 583 407.139 594.695 416.394 599.017C418.5 600 427.413 604.526 431.086 591.67C432.127 588.029 434.759 575.206 425.577 543.92C422.078 532 412.398 505.778 407.186 488.889C401.974 472 394.705 454.725 375.787 418.764C356.869 382.804 326.523 328.682 303.519 280.415C280.515 232.149 265.774 191.377 255.695 159.961C245.615 128.545 241.758 107.478 237.812 91.9754C234 76.9998 227.475 54.4034 232 51.4998C239.5 46.6877 246.701 57.9833 276 111C307.5 168 375.426 272.716 416.199 341.676C456.973 410.637 468.316 437.053 480.636 459.734C493.273 483 505.907 500.561 514.531 511.848C532.844 535.815 548.454 545.587 559.644 551.267C567 555 572.995 559.825 576 557C580.531 552.74 576.664 542.753 575 538.5C573.781 535.384 572.334 533.628 562.721 507.934C553.109 482.241 533.966 435.263 504.984 377.05C476.002 318.837 436.677 258.107 416.199 220.69C404.291 198.93 392.519 176.428 387.009 159.961C375.99 127.027 370.48 112.334 381.5 104.988C394.355 96.4177 414.681 121.394 432.923 149.065C462.827 194.428 517.34 276.822 551.264 322.594C587.65 371.688 598.084 374.561 601.884 376.796C603.663 377.842 609.102 378.175 610.549 377.424C611.997 376.673 614.148 373.575 614.74 371.286C615.331 368.997 612.903 362.103 605.557 343.738C599.258 327.989 592.037 308.284 583.519 288.642C575 269 564.035 249.068 557 236C549.965 222.932 545 213.5 533.932 194.979C522.231 175.398 509.5 155.5 502.088 143.051C487.083 117.848 477.842 100.645 478 92.5C478.064 89.2171 478 82.5 485.193 84.0802C493.307 85.8625 504.821 102.353 528.152 129.204C540.183 143.051 558.454 160.613 574 182C582.01 193.019 617.653 236.144 624 243" stroke="#B1652F" stroke-width="25.7115" stroke-linecap="round"/>
</g>
<defs>
<filter id="filter0_d_1126_2060" x="21.4522" y="37.6387" width="630.096" height="631.811" filterUnits="userSpaceOnUse" color-interpolation-filters="sRGB">
<feFlood flood-opacity="0" result="BackgroundImageFix"/>
<feColorMatrix in="SourceAlpha" type="matrix" values="0 0 0 0 0 0 0 0 0 0 0 0 0 0 0 0 0 0 127 0" result="hardAlpha"/>
<feOffset dy="14.6923"/>
<feGaussianBlur stdDeviation="7.34615"/>
<feComposite in2="hardAlpha" operator="out"/>
<feColorMatrix type="matrix" values="0 0 0 0 0 0 0 0 0 0 0 0 0 0 0 0 0 0 0.25 0"/>
<feBlend mode="normal" in2="BackgroundImageFix" result="effect1_dropShadow_1126_2060"/>
<feBlend mode="normal" in="SourceGraphic" in2="effect1_dropShadow_1126_2060" result="shape"/>
</filter>
</defs>
</svg>
