<svg width="678" height="678" viewBox="0 0 678 678" fill="none" xmlns="http://www.w3.org/2000/svg">
<mask id="mask0_1004_902" style="mask-type:alpha" maskUnits="userSpaceOnUse" x="0" y="0" width="678" height="678">
<path d="M678 339C678 434.298 620.305 554.411 557 616C495.935 675.41 430.927 678 339 678C241.28 678 153.218 636.653 91.3519 570.5C34.6871 509.908 0 428.505 0 339C0 241.774 44.4303 124.816 110 63C170.695 5.77963 249.002 0 339 0C447.374 0 563.943 45.8537 626 125C671.152 182.586 678 260.149 678 339Z" fill="#E3BC8C"/>
</mask>
<g mask="url(#mask0_1004_902)">
<path d="M678 339C678 434.298 620.305 554.411 557 616C495.935 675.41 430.927 678 339 678C241.28 678 153.218 636.653 91.3519 570.5C34.6871 509.908 0 428.505 0 339C0 241.774 44.4303 124.816 110 63C170.695 5.77963 249.002 0 339 0C447.374 0 563.943 45.8537 626 125C671.152 182.586 678 260.149 678 339Z" fill="#E3BC8C"/>
<g filter="url(#filter0_d_1004_902)">
<path d="M276.328 206.58C277.695 202.812 282.047 189.266 284.052 182.964C285.105 179.655 286.464 173.122 291.554 174.575C297.917 176.391 299.506 181.949 297.689 180.532C295.872 179.116 291.082 177.861 292.762 181.114C294.443 184.368 305.701 186.305 313.2 188.221C320.7 190.137 328.03 198.029 322.083 205.418C316.136 212.808 298.206 223.541 285.958 224.078C273.709 224.615 274.618 211.291 276.328 206.58Z" fill="#97775F"/>
</g>
<g filter="url(#filter1_d_1004_902)">
<path d="M583.147 198.24C581.861 194.443 577.803 180.806 575.934 174.462C574.953 171.132 573.735 164.57 568.614 165.913C562.214 167.592 560.506 173.115 562.352 171.737C564.199 170.36 569.016 169.209 567.265 172.425C565.515 175.642 554.218 177.336 546.679 179.09C539.14 180.844 531.641 188.576 537.428 196.092C543.214 203.608 560.908 214.725 573.143 215.526C585.377 216.327 584.755 202.986 583.147 198.24Z" fill="#764D2F"/>
</g>
<g filter="url(#filter2_d_1004_902)">
<path d="M400.147 30.2395C398.861 26.4428 394.803 12.806 392.934 6.46218C391.953 3.13168 390.735 -3.42975 385.614 -2.08677C379.214 -0.408031 377.506 5.11441 379.352 3.73712C381.199 2.35984 386.016 1.20878 384.265 4.4253C382.515 7.64183 371.218 9.33601 363.679 11.0901C356.14 12.8442 348.641 20.5755 354.428 28.0917C360.214 35.6079 377.908 46.7251 390.143 47.5259C402.377 48.3268 401.755 34.9854 400.147 30.2395Z" fill="#764D2F"/>
</g>
<g filter="url(#filter3_d_1004_902)">
<path d="M461.166 44.5281C465.06 43.5786 478.748 39.6951 485.105 37.872C488.442 36.9149 494.635 34.4261 496.246 39.4685C498.259 45.7716 494.513 50.1738 494.686 47.8765C494.858 45.5791 493.248 40.8961 491.471 44.0979C489.694 47.2997 494.32 57.7448 496.88 65.0493C499.441 72.3538 496.934 82.8288 487.487 81.9729C478.04 81.117 459.17 72.1391 451.936 62.2405C444.702 52.3419 456.297 45.7151 461.166 44.5281Z" fill="#97775F"/>
</g>
<g filter="url(#filter4_d_1004_902)">
<path d="M391.168 367.679C392.966 364.096 398.867 351.149 401.593 345.124C403.024 341.961 405.136 335.63 410.022 337.666C416.129 340.212 417.059 345.917 415.42 344.298C413.781 342.679 409.169 340.875 410.459 344.302C411.749 347.729 422.705 350.966 429.93 353.743C437.154 356.52 443.516 365.212 436.748 371.858C429.98 378.504 410.921 387.074 398.693 386.18C386.466 385.286 388.922 372.158 391.168 367.679Z" fill="#97775F"/>
</g>
<g filter="url(#filter5_d_1004_902)">
<path d="M378.412 247.531C381.118 244.574 390.323 233.725 394.588 228.671C396.827 226.017 400.584 220.501 404.73 223.792C409.913 227.906 409.253 233.648 408.117 231.644C406.981 229.64 403.036 226.647 403.343 230.296C403.65 233.945 413.309 240.044 419.504 244.685C425.698 249.326 429.45 259.422 421.127 263.973C412.804 268.523 392.132 271.575 380.61 267.383C369.089 263.19 375.03 251.228 378.412 247.531Z" fill="#764D2F"/>
</g>
<g filter="url(#filter6_d_1004_902)">
<path d="M486.412 281.531C489.118 278.574 498.323 267.725 502.588 262.671C504.827 260.017 508.584 254.501 512.73 257.792C517.913 261.906 517.253 267.648 516.117 265.644C514.981 263.64 511.036 260.647 511.343 264.296C511.65 267.945 521.309 274.044 527.504 278.685C533.698 283.326 537.45 293.422 529.127 297.973C520.804 302.523 500.132 305.575 488.61 301.383C477.089 297.19 483.03 285.228 486.412 281.531Z" fill="#97775F"/>
</g>
<g filter="url(#filter7_d_1004_902)">
<path d="M615.412 243.531C618.118 240.574 627.323 229.725 631.588 224.671C633.827 222.017 637.584 216.501 641.73 219.792C646.913 223.906 646.253 229.648 645.117 227.644C643.981 225.64 640.036 222.647 640.343 226.296C640.65 229.945 650.309 236.044 656.504 240.685C662.698 245.326 666.45 255.422 658.127 259.973C649.804 264.523 629.132 267.575 617.61 263.383C606.089 259.19 612.03 247.228 615.412 243.531Z" fill="#97775F"/>
</g>
<g filter="url(#filter8_d_1004_902)">
<path d="M264.412 306.531C267.118 303.574 276.323 292.725 280.588 287.671C282.827 285.017 286.584 279.501 290.73 282.792C295.913 286.906 295.253 292.648 294.117 290.644C292.981 288.64 289.036 285.647 289.343 289.296C289.65 292.945 299.309 299.044 305.504 303.685C311.698 308.326 315.45 318.422 307.127 322.973C298.804 327.523 278.132 330.575 266.61 326.383C255.089 322.19 261.03 310.228 264.412 306.531Z" fill="#764D2F"/>
</g>
<g filter="url(#filter9_d_1004_902)">
<path d="M363.177 96.6969C359.2 96.1882 345.165 93.8575 338.644 92.7557C335.22 92.1773 328.789 90.3955 327.751 95.5863C326.454 102.075 330.668 106.031 330.24 103.767C329.812 101.504 330.889 96.6702 333.013 99.6535C335.136 102.637 331.706 113.533 329.977 121.078C328.248 128.623 331.909 138.752 341.202 136.847C350.494 134.941 368.243 123.912 374.327 113.268C380.41 102.623 368.147 97.3328 363.177 96.6969Z" fill="#764D2F"/>
</g>
<g filter="url(#filter10_d_1004_902)">
<path d="M471.455 157.531C468.749 154.574 459.544 143.725 455.279 138.671C453.04 136.017 449.283 130.501 445.137 133.792C439.954 137.906 440.614 143.648 441.75 141.644C442.886 139.64 446.831 136.647 446.524 140.296C446.217 143.945 436.558 150.044 430.363 154.685C424.169 159.326 420.417 169.422 428.74 173.973C437.063 178.523 457.736 181.575 469.257 177.383C480.778 173.19 474.838 161.228 471.455 157.531Z" fill="#764D2F"/>
</g>
<g filter="url(#filter11_d_1004_902)">
<path d="M223.147 146.24C221.861 142.443 217.803 128.806 215.934 122.462C214.953 119.132 213.735 112.57 208.614 113.913C202.214 115.592 200.506 121.115 202.352 119.737C204.199 118.36 209.016 117.209 207.265 120.425C205.515 123.642 194.218 125.336 186.679 127.09C179.14 128.844 171.641 136.576 177.428 144.092C183.214 151.608 200.908 162.725 213.143 163.526C225.377 164.327 224.755 150.986 223.147 146.24Z" fill="#764D2F"/>
</g>
<g filter="url(#filter12_d_1004_902)">
<path d="M221.166 44.5281C225.06 43.5786 238.748 39.6951 245.105 37.872C248.442 36.9149 254.635 34.4261 256.246 39.4685C258.259 45.7716 254.513 50.1738 254.686 47.8765C254.858 45.5791 253.248 40.8961 251.471 44.0979C249.694 47.2997 254.32 57.7448 256.88 65.0493C259.441 72.3538 256.934 82.8288 247.487 81.9729C238.04 81.117 219.17 72.1391 211.936 62.2405C204.702 52.3419 216.297 45.7151 221.166 44.5281Z" fill="#97775F"/>
</g>
<g filter="url(#filter13_d_1004_902)">
<path d="M31.1684 315.679C32.9659 312.096 38.867 299.149 41.5928 293.124C43.0239 289.961 45.1355 283.63 50.0217 285.666C56.1294 288.212 57.0595 293.917 55.4202 292.298C53.781 290.679 49.1694 288.875 50.4593 292.302C51.7492 295.729 62.7048 298.966 69.9296 301.743C77.1544 304.52 83.5155 313.212 76.7475 319.858C69.9795 326.504 50.9211 335.074 38.6934 334.18C26.4658 333.286 28.9216 320.158 31.1684 315.679Z" fill="#97775F"/>
</g>
<g filter="url(#filter14_d_1004_902)">
<path d="M18.4119 195.531C21.1177 192.574 30.3235 181.725 34.5881 176.671C36.8271 174.017 40.5839 168.501 44.7302 171.792C49.9131 175.906 49.2533 181.648 48.1172 179.644C46.9812 177.64 43.0359 174.647 43.343 178.296C43.6501 181.945 53.3092 188.044 59.5038 192.685C65.6984 197.326 69.4502 207.422 61.1272 211.973C52.8042 216.523 32.1316 219.575 20.6104 215.383C9.08925 211.19 15.0296 199.228 18.4119 195.531Z" fill="#764D2F"/>
</g>
<g filter="url(#filter15_d_1004_902)">
<path d="M126.412 229.531C129.118 226.574 138.323 215.725 142.588 210.671C144.827 208.017 148.584 202.501 152.73 205.792C157.913 209.906 157.253 215.648 156.117 213.644C154.981 211.64 151.036 208.647 151.343 212.296C151.65 215.945 161.309 222.044 167.504 226.685C173.698 231.326 177.45 241.422 169.127 245.973C160.804 250.523 140.132 253.575 128.61 249.383C117.089 245.19 123.03 233.228 126.412 229.531Z" fill="#97775F"/>
</g>
<g filter="url(#filter16_d_1004_902)">
<path d="M439.177 472.697C435.2 472.188 421.165 469.858 414.644 468.756C411.22 468.177 404.789 466.396 403.751 471.586C402.454 478.075 406.668 482.031 406.24 479.768C405.812 477.504 406.889 472.67 409.013 475.654C411.136 478.637 407.706 489.533 405.977 497.078C404.248 504.623 407.909 514.752 417.202 512.847C426.494 510.941 444.243 499.912 450.327 489.268C456.41 478.623 444.147 473.333 439.177 472.697Z" fill="#764D2F"/>
</g>
<g filter="url(#filter17_d_1004_902)">
<path d="M111.455 105.531C108.749 102.574 99.5437 91.725 95.2791 86.6704C93.0401 84.0167 89.2833 78.5011 85.137 81.7919C79.9541 85.9055 80.6139 91.6483 81.7499 89.644C82.886 87.6397 86.8313 84.6469 86.5242 88.2959C86.2171 91.9449 76.558 98.0441 70.3634 102.685C64.1688 107.326 60.417 117.422 68.74 121.972C77.063 126.523 97.7356 129.575 109.257 125.383C120.778 121.19 114.838 109.228 111.455 105.531Z" fill="#764D2F"/>
</g>
<g filter="url(#filter18_d_1004_902)">
<path d="M356.524 530.58C355.156 526.812 350.804 513.266 348.799 506.964C347.747 503.655 346.387 497.122 341.297 498.575C334.934 500.391 333.346 505.949 335.163 504.532C336.979 503.116 341.77 501.861 340.089 505.114C338.409 508.368 327.151 510.305 319.651 512.221C312.152 514.137 304.821 522.029 310.768 529.418C316.716 536.808 334.645 547.541 346.894 548.078C359.142 548.615 358.233 535.291 356.524 530.58Z" fill="#97775F"/>
</g>
<g filter="url(#filter19_d_1004_902)">
<path d="M54.7041 424.24C55.9901 420.443 60.0491 406.806 61.9178 400.462C62.8988 397.132 64.117 390.57 69.2374 391.913C75.6378 393.592 77.346 399.115 75.4991 397.737C73.6523 396.36 68.8359 395.209 70.5862 398.425C72.3364 401.642 83.6336 403.336 91.1725 405.09C98.7113 406.844 106.21 414.576 100.424 422.092C94.6373 429.608 76.9432 440.725 64.7091 441.526C52.4749 442.327 53.0965 428.986 54.7041 424.24Z" fill="#764D2F"/>
</g>
<g filter="url(#filter20_d_1004_902)">
<path d="M198.813 311.528C194.918 310.579 181.231 306.695 174.873 304.872C171.536 303.915 165.344 301.426 163.733 306.469C161.719 312.772 165.465 317.174 165.293 314.877C165.12 312.579 166.73 307.896 168.507 311.098C170.284 314.3 165.659 324.745 163.098 332.049C160.538 339.354 163.045 349.829 172.492 348.973C181.939 348.117 200.809 339.139 208.043 329.241C215.277 319.342 203.681 312.715 198.813 311.528Z" fill="#97775F"/>
</g>
<g filter="url(#filter21_d_1004_902)">
<path d="M478.896 614.679C477.099 611.096 471.197 598.149 468.472 592.124C467.041 588.961 464.929 582.63 460.043 584.666C453.935 587.212 453.005 592.917 454.644 591.298C456.283 589.679 460.895 587.875 459.605 591.302C458.315 594.729 447.36 597.966 440.135 600.743C432.91 603.52 426.549 612.212 433.317 618.858C440.085 625.504 459.143 634.074 471.371 633.18C483.599 632.286 481.143 619.158 478.896 614.679Z" fill="#97775F"/>
</g>
<g filter="url(#filter22_d_1004_902)">
<path d="M254.44 571.531C251.734 568.574 242.528 557.725 238.263 552.671C236.024 550.017 232.268 544.501 228.121 547.792C222.938 551.906 223.598 557.648 224.734 555.644C225.87 553.64 229.816 550.647 229.509 554.296C229.201 557.945 219.542 564.044 213.348 568.685C207.153 573.326 203.401 583.422 211.724 587.973C220.047 592.523 240.72 595.575 252.241 591.383C263.762 587.19 257.822 575.228 254.44 571.531Z" fill="#764D2F"/>
</g>
<g filter="url(#filter23_d_1004_902)">
<path d="M111.455 534.531C108.749 531.574 99.5437 520.725 95.2791 515.671C93.0401 513.017 89.2833 507.501 85.137 510.792C79.9541 514.906 80.6139 520.648 81.7499 518.644C82.886 516.64 86.8313 513.647 86.5242 517.296C86.2171 520.945 76.558 527.044 70.3634 531.685C64.1688 536.326 60.417 546.422 68.74 550.973C77.063 555.523 97.7356 558.575 109.257 554.383C120.778 550.19 114.838 538.228 111.455 534.531Z" fill="#97775F"/>
</g>
<g filter="url(#filter24_d_1004_902)">
<path d="M368.44 630.531C365.734 627.574 356.528 616.725 352.263 611.671C350.024 609.017 346.268 603.501 342.121 606.792C336.938 610.906 337.598 616.648 338.734 614.644C339.87 612.64 343.816 609.647 343.509 613.296C343.201 616.945 333.542 623.044 327.348 627.685C321.153 632.326 317.401 642.422 325.724 646.973C334.047 651.523 354.72 654.575 366.241 650.383C377.762 646.19 371.822 634.228 368.44 630.531Z" fill="#764D2F"/>
</g>
<g filter="url(#filter25_d_1004_902)">
<path d="M287.675 392.697C291.651 392.188 305.687 389.858 312.208 388.756C315.631 388.177 322.063 386.396 323.101 391.586C324.398 398.075 320.183 402.031 320.611 399.768C321.04 397.504 319.963 392.67 317.839 395.654C315.715 398.637 319.146 409.533 320.874 417.078C322.603 424.623 318.942 434.752 309.65 432.847C300.358 430.941 282.608 419.912 276.525 409.268C270.441 398.623 282.705 393.333 287.675 392.697Z" fill="#764D2F"/>
</g>
<g filter="url(#filter26_d_1004_902)">
<path d="M161.396 481.531C164.102 478.574 173.308 467.725 177.573 462.671C179.811 460.017 183.568 454.501 187.715 457.792C192.897 461.906 192.238 467.648 191.102 465.644C189.966 463.64 186.02 460.647 186.327 464.296C186.635 467.945 196.294 474.044 202.488 478.685C208.683 483.326 212.435 493.422 204.112 497.973C195.789 502.523 175.116 505.575 163.595 501.383C152.074 497.19 158.014 485.228 161.396 481.531Z" fill="#764D2F"/>
</g>
<g filter="url(#filter27_d_1004_902)">
<path d="M505.704 480.24C506.99 476.443 511.049 462.806 512.918 456.462C513.899 453.132 515.117 446.57 520.237 447.913C526.638 449.592 528.346 455.115 526.499 453.737C524.652 452.36 519.836 451.209 521.586 454.425C523.336 457.642 534.634 459.336 542.172 461.09C549.711 462.844 557.21 470.576 551.424 478.092C545.637 485.608 527.943 496.725 515.709 497.526C503.475 498.327 504.097 484.986 505.704 480.24Z" fill="#764D2F"/>
</g>
<g filter="url(#filter28_d_1004_902)">
<path d="M627.686 326.528C623.791 325.579 610.104 321.695 603.747 319.872C600.409 318.915 594.217 316.426 592.606 321.469C590.592 327.772 594.339 332.174 594.166 329.877C593.993 327.579 595.603 322.896 597.38 326.098C599.157 329.3 594.532 339.745 591.971 347.049C589.411 354.354 591.918 364.829 601.365 363.973C610.812 363.117 629.682 354.139 636.916 344.241C644.15 334.342 632.554 327.715 627.686 326.528Z" fill="#97775F"/>
</g>
<g filter="url(#filter29_d_1004_902)">
<path d="M243.896 654.679C242.099 651.096 236.197 638.149 233.472 632.124C232.041 628.961 229.929 622.63 225.043 624.666C218.935 627.212 218.005 632.917 219.644 631.298C221.283 629.679 225.895 627.875 224.605 631.302C223.315 634.729 212.36 637.966 205.135 640.743C197.91 643.52 191.549 652.212 198.317 658.858C205.085 665.504 224.143 674.074 236.371 673.18C248.599 672.286 246.143 659.158 243.896 654.679Z" fill="#97775F"/>
</g>
<g filter="url(#filter30_d_1004_902)">
<path d="M540.455 383.531C537.749 380.574 528.544 369.725 524.279 364.671C522.04 362.017 518.283 356.501 514.137 359.792C508.954 363.906 509.614 369.648 510.75 367.644C511.886 365.64 515.831 362.647 515.524 366.296C515.217 369.945 505.558 376.044 499.363 380.685C493.169 385.326 489.417 395.422 497.74 399.973C506.063 404.523 526.736 407.575 538.257 403.383C549.778 399.19 543.838 387.228 540.455 383.531Z" fill="#764D2F"/>
</g>
<g filter="url(#filter31_d_1004_902)">
<path d="M602.44 563.531C599.734 560.574 590.528 549.725 586.263 544.671C584.024 542.017 580.268 536.501 576.121 539.792C570.938 543.906 571.598 549.648 572.734 547.644C573.87 545.64 577.816 542.647 577.509 546.296C577.201 549.945 567.542 556.044 561.348 560.685C555.153 565.326 551.401 575.422 559.724 579.973C568.047 584.523 588.72 587.575 600.241 583.383C611.762 579.19 605.822 567.228 602.44 563.531Z" fill="#97775F"/>
</g>
<g filter="url(#filter32_d_1004_902)">
<path d="M617.396 439.531C620.102 436.574 629.308 425.725 633.573 420.671C635.811 418.017 639.568 412.501 643.715 415.792C648.897 419.906 648.238 425.648 647.102 423.644C645.966 421.64 642.02 418.647 642.327 422.296C642.635 425.945 652.294 432.044 658.488 436.685C664.683 441.326 668.435 451.422 660.112 455.973C651.789 460.523 631.116 463.575 619.595 459.383C608.074 455.19 614.014 443.228 617.396 439.531Z" fill="#764D2F"/>
</g>
<g filter="url(#filter33_d_1004_902)">
<path d="M579.177 86.6969C575.2 86.1882 561.165 83.8575 554.644 82.7557C551.22 82.1773 544.789 80.3955 543.751 85.5863C542.454 92.0748 546.668 96.0311 546.24 93.7674C545.812 91.5037 546.889 86.6702 549.013 89.6535C551.136 92.6368 547.706 103.533 545.977 111.078C544.248 118.623 547.909 128.752 557.202 126.847C566.494 124.941 584.243 113.912 590.327 103.268C596.41 92.6233 584.147 87.3328 579.177 86.6969Z" fill="#764D2F"/>
</g>
</g>
<defs>
<filter id="filter0_d_1004_902" x="271.337" y="174.367" width="56.9229" height="57.7271" filterUnits="userSpaceOnUse" color-interpolation-filters="sRGB">
<feFlood flood-opacity="0" result="BackgroundImageFix"/>
<feColorMatrix in="SourceAlpha" type="matrix" values="0 0 0 0 0 0 0 0 0 0 0 0 0 0 0 0 0 0 127 0" result="hardAlpha"/>
<feOffset dy="4"/>
<feGaussianBlur stdDeviation="2"/>
<feComposite in2="hardAlpha" operator="out"/>
<feColorMatrix type="matrix" values="0 0 0 0 0 0 0 0 0 0 0 0 0 0 0 0 0 0 0.25 0"/>
<feBlend mode="normal" in2="BackgroundImageFix" result="effect1_dropShadow_1004_902"/>
<feBlend mode="normal" in="SourceGraphic" in2="effect1_dropShadow_1004_902" result="shape"/>
</filter>
<filter id="filter1_d_1004_902" x="531.372" y="165.735" width="56.6357" height="57.8258" filterUnits="userSpaceOnUse" color-interpolation-filters="sRGB">
<feFlood flood-opacity="0" result="BackgroundImageFix"/>
<feColorMatrix in="SourceAlpha" type="matrix" values="0 0 0 0 0 0 0 0 0 0 0 0 0 0 0 0 0 0 127 0" result="hardAlpha"/>
<feOffset dy="4"/>
<feGaussianBlur stdDeviation="2"/>
<feComposite in2="hardAlpha" operator="out"/>
<feColorMatrix type="matrix" values="0 0 0 0 0 0 0 0 0 0 0 0 0 0 0 0 0 0 0.25 0"/>
<feBlend mode="normal" in2="BackgroundImageFix" result="effect1_dropShadow_1004_902"/>
<feBlend mode="normal" in="SourceGraphic" in2="effect1_dropShadow_1004_902" result="shape"/>
</filter>
<filter id="filter2_d_1004_902" x="348.372" y="-2.26544" width="56.6357" height="57.8259" filterUnits="userSpaceOnUse" color-interpolation-filters="sRGB">
<feFlood flood-opacity="0" result="BackgroundImageFix"/>
<feColorMatrix in="SourceAlpha" type="matrix" values="0 0 0 0 0 0 0 0 0 0 0 0 0 0 0 0 0 0 127 0" result="hardAlpha"/>
<feOffset dy="4"/>
<feGaussianBlur stdDeviation="2"/>
<feComposite in2="hardAlpha" operator="out"/>
<feColorMatrix type="matrix" values="0 0 0 0 0 0 0 0 0 0 0 0 0 0 0 0 0 0 0.25 0"/>
<feBlend mode="normal" in2="BackgroundImageFix" result="effect1_dropShadow_1004_902"/>
<feBlend mode="normal" in="SourceGraphic" in2="effect1_dropShadow_1004_902" result="shape"/>
</filter>
<filter id="filter3_d_1004_902" x="445.621" y="36.4084" width="56.2012" height="53.6138" filterUnits="userSpaceOnUse" color-interpolation-filters="sRGB">
<feFlood flood-opacity="0" result="BackgroundImageFix"/>
<feColorMatrix in="SourceAlpha" type="matrix" values="0 0 0 0 0 0 0 0 0 0 0 0 0 0 0 0 0 0 127 0" result="hardAlpha"/>
<feOffset dy="4"/>
<feGaussianBlur stdDeviation="2"/>
<feComposite in2="hardAlpha" operator="out"/>
<feColorMatrix type="matrix" values="0 0 0 0 0 0 0 0 0 0 0 0 0 0 0 0 0 0 0.25 0"/>
<feBlend mode="normal" in2="BackgroundImageFix" result="effect1_dropShadow_1004_902"/>
<feBlend mode="normal" in="SourceGraphic" in2="effect1_dropShadow_1004_902" result="shape"/>
</filter>
<filter id="filter4_d_1004_902" x="385.325" y="337.271" width="58.2998" height="56.9742" filterUnits="userSpaceOnUse" color-interpolation-filters="sRGB">
<feFlood flood-opacity="0" result="BackgroundImageFix"/>
<feColorMatrix in="SourceAlpha" type="matrix" values="0 0 0 0 0 0 0 0 0 0 0 0 0 0 0 0 0 0 127 0" result="hardAlpha"/>
<feOffset dy="4"/>
<feGaussianBlur stdDeviation="2"/>
<feComposite in2="hardAlpha" operator="out"/>
<feColorMatrix type="matrix" values="0 0 0 0 0 0 0 0 0 0 0 0 0 0 0 0 0 0 0.25 0"/>
<feBlend mode="normal" in2="BackgroundImageFix" result="effect1_dropShadow_1004_902"/>
<feBlend mode="normal" in="SourceGraphic" in2="effect1_dropShadow_1004_902" result="shape"/>
</filter>
<filter id="filter5_d_1004_902" x="369.839" y="222.775" width="60.1006" height="54.5988" filterUnits="userSpaceOnUse" color-interpolation-filters="sRGB">
<feFlood flood-opacity="0" result="BackgroundImageFix"/>
<feColorMatrix in="SourceAlpha" type="matrix" values="0 0 0 0 0 0 0 0 0 0 0 0 0 0 0 0 0 0 127 0" result="hardAlpha"/>
<feOffset dy="4"/>
<feGaussianBlur stdDeviation="2"/>
<feComposite in2="hardAlpha" operator="out"/>
<feColorMatrix type="matrix" values="0 0 0 0 0 0 0 0 0 0 0 0 0 0 0 0 0 0 0.25 0"/>
<feBlend mode="normal" in2="BackgroundImageFix" result="effect1_dropShadow_1004_902"/>
<feBlend mode="normal" in="SourceGraphic" in2="effect1_dropShadow_1004_902" result="shape"/>
</filter>
<filter id="filter6_d_1004_902" x="477.839" y="256.775" width="60.1006" height="54.5988" filterUnits="userSpaceOnUse" color-interpolation-filters="sRGB">
<feFlood flood-opacity="0" result="BackgroundImageFix"/>
<feColorMatrix in="SourceAlpha" type="matrix" values="0 0 0 0 0 0 0 0 0 0 0 0 0 0 0 0 0 0 127 0" result="hardAlpha"/>
<feOffset dy="4"/>
<feGaussianBlur stdDeviation="2"/>
<feComposite in2="hardAlpha" operator="out"/>
<feColorMatrix type="matrix" values="0 0 0 0 0 0 0 0 0 0 0 0 0 0 0 0 0 0 0.25 0"/>
<feBlend mode="normal" in2="BackgroundImageFix" result="effect1_dropShadow_1004_902"/>
<feBlend mode="normal" in="SourceGraphic" in2="effect1_dropShadow_1004_902" result="shape"/>
</filter>
<filter id="filter7_d_1004_902" x="606.839" y="218.775" width="60.1006" height="54.5988" filterUnits="userSpaceOnUse" color-interpolation-filters="sRGB">
<feFlood flood-opacity="0" result="BackgroundImageFix"/>
<feColorMatrix in="SourceAlpha" type="matrix" values="0 0 0 0 0 0 0 0 0 0 0 0 0 0 0 0 0 0 127 0" result="hardAlpha"/>
<feOffset dy="4"/>
<feGaussianBlur stdDeviation="2"/>
<feComposite in2="hardAlpha" operator="out"/>
<feColorMatrix type="matrix" values="0 0 0 0 0 0 0 0 0 0 0 0 0 0 0 0 0 0 0.25 0"/>
<feBlend mode="normal" in2="BackgroundImageFix" result="effect1_dropShadow_1004_902"/>
<feBlend mode="normal" in="SourceGraphic" in2="effect1_dropShadow_1004_902" result="shape"/>
</filter>
<filter id="filter8_d_1004_902" x="255.839" y="281.775" width="60.1006" height="54.5988" filterUnits="userSpaceOnUse" color-interpolation-filters="sRGB">
<feFlood flood-opacity="0" result="BackgroundImageFix"/>
<feColorMatrix in="SourceAlpha" type="matrix" values="0 0 0 0 0 0 0 0 0 0 0 0 0 0 0 0 0 0 127 0" result="hardAlpha"/>
<feOffset dy="4"/>
<feGaussianBlur stdDeviation="2"/>
<feComposite in2="hardAlpha" operator="out"/>
<feColorMatrix type="matrix" values="0 0 0 0 0 0 0 0 0 0 0 0 0 0 0 0 0 0 0.25 0"/>
<feBlend mode="normal" in2="BackgroundImageFix" result="effect1_dropShadow_1004_902"/>
<feBlend mode="normal" in="SourceGraphic" in2="effect1_dropShadow_1004_902" result="shape"/>
</filter>
<filter id="filter9_d_1004_902" x="323.502" y="91.9888" width="56.4814" height="53.092" filterUnits="userSpaceOnUse" color-interpolation-filters="sRGB">
<feFlood flood-opacity="0" result="BackgroundImageFix"/>
<feColorMatrix in="SourceAlpha" type="matrix" values="0 0 0 0 0 0 0 0 0 0 0 0 0 0 0 0 0 0 127 0" result="hardAlpha"/>
<feOffset dy="4"/>
<feGaussianBlur stdDeviation="2"/>
<feComposite in2="hardAlpha" operator="out"/>
<feColorMatrix type="matrix" values="0 0 0 0 0 0 0 0 0 0 0 0 0 0 0 0 0 0 0.25 0"/>
<feBlend mode="normal" in2="BackgroundImageFix" result="effect1_dropShadow_1004_902"/>
<feBlend mode="normal" in="SourceGraphic" in2="effect1_dropShadow_1004_902" result="shape"/>
</filter>
<filter id="filter10_d_1004_902" x="419.928" y="132.775" width="60.1006" height="54.5988" filterUnits="userSpaceOnUse" color-interpolation-filters="sRGB">
<feFlood flood-opacity="0" result="BackgroundImageFix"/>
<feColorMatrix in="SourceAlpha" type="matrix" values="0 0 0 0 0 0 0 0 0 0 0 0 0 0 0 0 0 0 127 0" result="hardAlpha"/>
<feOffset dy="4"/>
<feGaussianBlur stdDeviation="2"/>
<feComposite in2="hardAlpha" operator="out"/>
<feColorMatrix type="matrix" values="0 0 0 0 0 0 0 0 0 0 0 0 0 0 0 0 0 0 0.25 0"/>
<feBlend mode="normal" in2="BackgroundImageFix" result="effect1_dropShadow_1004_902"/>
<feBlend mode="normal" in="SourceGraphic" in2="effect1_dropShadow_1004_902" result="shape"/>
</filter>
<filter id="filter11_d_1004_902" x="171.372" y="113.735" width="56.6357" height="57.8258" filterUnits="userSpaceOnUse" color-interpolation-filters="sRGB">
<feFlood flood-opacity="0" result="BackgroundImageFix"/>
<feColorMatrix in="SourceAlpha" type="matrix" values="0 0 0 0 0 0 0 0 0 0 0 0 0 0 0 0 0 0 127 0" result="hardAlpha"/>
<feOffset dy="4"/>
<feGaussianBlur stdDeviation="2"/>
<feComposite in2="hardAlpha" operator="out"/>
<feColorMatrix type="matrix" values="0 0 0 0 0 0 0 0 0 0 0 0 0 0 0 0 0 0 0.25 0"/>
<feBlend mode="normal" in2="BackgroundImageFix" result="effect1_dropShadow_1004_902"/>
<feBlend mode="normal" in="SourceGraphic" in2="effect1_dropShadow_1004_902" result="shape"/>
</filter>
<filter id="filter12_d_1004_902" x="205.621" y="36.4084" width="56.2012" height="53.6138" filterUnits="userSpaceOnUse" color-interpolation-filters="sRGB">
<feFlood flood-opacity="0" result="BackgroundImageFix"/>
<feColorMatrix in="SourceAlpha" type="matrix" values="0 0 0 0 0 0 0 0 0 0 0 0 0 0 0 0 0 0 127 0" result="hardAlpha"/>
<feOffset dy="4"/>
<feGaussianBlur stdDeviation="2"/>
<feComposite in2="hardAlpha" operator="out"/>
<feColorMatrix type="matrix" values="0 0 0 0 0 0 0 0 0 0 0 0 0 0 0 0 0 0 0.25 0"/>
<feBlend mode="normal" in2="BackgroundImageFix" result="effect1_dropShadow_1004_902"/>
<feBlend mode="normal" in="SourceGraphic" in2="effect1_dropShadow_1004_902" result="shape"/>
</filter>
<filter id="filter13_d_1004_902" x="25.3252" y="285.271" width="58.2998" height="56.9742" filterUnits="userSpaceOnUse" color-interpolation-filters="sRGB">
<feFlood flood-opacity="0" result="BackgroundImageFix"/>
<feColorMatrix in="SourceAlpha" type="matrix" values="0 0 0 0 0 0 0 0 0 0 0 0 0 0 0 0 0 0 127 0" result="hardAlpha"/>
<feOffset dy="4"/>
<feGaussianBlur stdDeviation="2"/>
<feComposite in2="hardAlpha" operator="out"/>
<feColorMatrix type="matrix" values="0 0 0 0 0 0 0 0 0 0 0 0 0 0 0 0 0 0 0.25 0"/>
<feBlend mode="normal" in2="BackgroundImageFix" result="effect1_dropShadow_1004_902"/>
<feBlend mode="normal" in="SourceGraphic" in2="effect1_dropShadow_1004_902" result="shape"/>
</filter>
<filter id="filter14_d_1004_902" x="9.83887" y="170.775" width="60.1006" height="54.5988" filterUnits="userSpaceOnUse" color-interpolation-filters="sRGB">
<feFlood flood-opacity="0" result="BackgroundImageFix"/>
<feColorMatrix in="SourceAlpha" type="matrix" values="0 0 0 0 0 0 0 0 0 0 0 0 0 0 0 0 0 0 127 0" result="hardAlpha"/>
<feOffset dy="4"/>
<feGaussianBlur stdDeviation="2"/>
<feComposite in2="hardAlpha" operator="out"/>
<feColorMatrix type="matrix" values="0 0 0 0 0 0 0 0 0 0 0 0 0 0 0 0 0 0 0.25 0"/>
<feBlend mode="normal" in2="BackgroundImageFix" result="effect1_dropShadow_1004_902"/>
<feBlend mode="normal" in="SourceGraphic" in2="effect1_dropShadow_1004_902" result="shape"/>
</filter>
<filter id="filter15_d_1004_902" x="117.839" y="204.775" width="60.1006" height="54.5988" filterUnits="userSpaceOnUse" color-interpolation-filters="sRGB">
<feFlood flood-opacity="0" result="BackgroundImageFix"/>
<feColorMatrix in="SourceAlpha" type="matrix" values="0 0 0 0 0 0 0 0 0 0 0 0 0 0 0 0 0 0 127 0" result="hardAlpha"/>
<feOffset dy="4"/>
<feGaussianBlur stdDeviation="2"/>
<feComposite in2="hardAlpha" operator="out"/>
<feColorMatrix type="matrix" values="0 0 0 0 0 0 0 0 0 0 0 0 0 0 0 0 0 0 0.25 0"/>
<feBlend mode="normal" in2="BackgroundImageFix" result="effect1_dropShadow_1004_902"/>
<feBlend mode="normal" in="SourceGraphic" in2="effect1_dropShadow_1004_902" result="shape"/>
</filter>
<filter id="filter16_d_1004_902" x="399.502" y="467.989" width="56.4814" height="53.092" filterUnits="userSpaceOnUse" color-interpolation-filters="sRGB">
<feFlood flood-opacity="0" result="BackgroundImageFix"/>
<feColorMatrix in="SourceAlpha" type="matrix" values="0 0 0 0 0 0 0 0 0 0 0 0 0 0 0 0 0 0 127 0" result="hardAlpha"/>
<feOffset dy="4"/>
<feGaussianBlur stdDeviation="2"/>
<feComposite in2="hardAlpha" operator="out"/>
<feColorMatrix type="matrix" values="0 0 0 0 0 0 0 0 0 0 0 0 0 0 0 0 0 0 0.25 0"/>
<feBlend mode="normal" in2="BackgroundImageFix" result="effect1_dropShadow_1004_902"/>
<feBlend mode="normal" in="SourceGraphic" in2="effect1_dropShadow_1004_902" result="shape"/>
</filter>
<filter id="filter17_d_1004_902" x="59.9277" y="80.7744" width="60.1006" height="54.5988" filterUnits="userSpaceOnUse" color-interpolation-filters="sRGB">
<feFlood flood-opacity="0" result="BackgroundImageFix"/>
<feColorMatrix in="SourceAlpha" type="matrix" values="0 0 0 0 0 0 0 0 0 0 0 0 0 0 0 0 0 0 127 0" result="hardAlpha"/>
<feOffset dy="4"/>
<feGaussianBlur stdDeviation="2"/>
<feComposite in2="hardAlpha" operator="out"/>
<feColorMatrix type="matrix" values="0 0 0 0 0 0 0 0 0 0 0 0 0 0 0 0 0 0 0.25 0"/>
<feBlend mode="normal" in2="BackgroundImageFix" result="effect1_dropShadow_1004_902"/>
<feBlend mode="normal" in="SourceGraphic" in2="effect1_dropShadow_1004_902" result="shape"/>
</filter>
<filter id="filter18_d_1004_902" x="304.592" y="498.367" width="56.9229" height="57.7271" filterUnits="userSpaceOnUse" color-interpolation-filters="sRGB">
<feFlood flood-opacity="0" result="BackgroundImageFix"/>
<feColorMatrix in="SourceAlpha" type="matrix" values="0 0 0 0 0 0 0 0 0 0 0 0 0 0 0 0 0 0 127 0" result="hardAlpha"/>
<feOffset dy="4"/>
<feGaussianBlur stdDeviation="2"/>
<feComposite in2="hardAlpha" operator="out"/>
<feColorMatrix type="matrix" values="0 0 0 0 0 0 0 0 0 0 0 0 0 0 0 0 0 0 0.25 0"/>
<feBlend mode="normal" in2="BackgroundImageFix" result="effect1_dropShadow_1004_902"/>
<feBlend mode="normal" in="SourceGraphic" in2="effect1_dropShadow_1004_902" result="shape"/>
</filter>
<filter id="filter19_d_1004_902" x="49.8438" y="391.735" width="56.6357" height="57.8258" filterUnits="userSpaceOnUse" color-interpolation-filters="sRGB">
<feFlood flood-opacity="0" result="BackgroundImageFix"/>
<feColorMatrix in="SourceAlpha" type="matrix" values="0 0 0 0 0 0 0 0 0 0 0 0 0 0 0 0 0 0 127 0" result="hardAlpha"/>
<feOffset dy="4"/>
<feGaussianBlur stdDeviation="2"/>
<feComposite in2="hardAlpha" operator="out"/>
<feColorMatrix type="matrix" values="0 0 0 0 0 0 0 0 0 0 0 0 0 0 0 0 0 0 0.25 0"/>
<feBlend mode="normal" in2="BackgroundImageFix" result="effect1_dropShadow_1004_902"/>
<feBlend mode="normal" in="SourceGraphic" in2="effect1_dropShadow_1004_902" result="shape"/>
</filter>
<filter id="filter20_d_1004_902" x="158.156" y="303.409" width="56.2012" height="53.6138" filterUnits="userSpaceOnUse" color-interpolation-filters="sRGB">
<feFlood flood-opacity="0" result="BackgroundImageFix"/>
<feColorMatrix in="SourceAlpha" type="matrix" values="0 0 0 0 0 0 0 0 0 0 0 0 0 0 0 0 0 0 127 0" result="hardAlpha"/>
<feOffset dy="4"/>
<feGaussianBlur stdDeviation="2"/>
<feComposite in2="hardAlpha" operator="out"/>
<feColorMatrix type="matrix" values="0 0 0 0 0 0 0 0 0 0 0 0 0 0 0 0 0 0 0.25 0"/>
<feBlend mode="normal" in2="BackgroundImageFix" result="effect1_dropShadow_1004_902"/>
<feBlend mode="normal" in="SourceGraphic" in2="effect1_dropShadow_1004_902" result="shape"/>
</filter>
<filter id="filter21_d_1004_902" x="426.439" y="584.271" width="58.2998" height="56.9742" filterUnits="userSpaceOnUse" color-interpolation-filters="sRGB">
<feFlood flood-opacity="0" result="BackgroundImageFix"/>
<feColorMatrix in="SourceAlpha" type="matrix" values="0 0 0 0 0 0 0 0 0 0 0 0 0 0 0 0 0 0 127 0" result="hardAlpha"/>
<feOffset dy="4"/>
<feGaussianBlur stdDeviation="2"/>
<feComposite in2="hardAlpha" operator="out"/>
<feColorMatrix type="matrix" values="0 0 0 0 0 0 0 0 0 0 0 0 0 0 0 0 0 0 0.25 0"/>
<feBlend mode="normal" in2="BackgroundImageFix" result="effect1_dropShadow_1004_902"/>
<feBlend mode="normal" in="SourceGraphic" in2="effect1_dropShadow_1004_902" result="shape"/>
</filter>
<filter id="filter22_d_1004_902" x="202.912" y="546.775" width="60.1006" height="54.5988" filterUnits="userSpaceOnUse" color-interpolation-filters="sRGB">
<feFlood flood-opacity="0" result="BackgroundImageFix"/>
<feColorMatrix in="SourceAlpha" type="matrix" values="0 0 0 0 0 0 0 0 0 0 0 0 0 0 0 0 0 0 127 0" result="hardAlpha"/>
<feOffset dy="4"/>
<feGaussianBlur stdDeviation="2"/>
<feComposite in2="hardAlpha" operator="out"/>
<feColorMatrix type="matrix" values="0 0 0 0 0 0 0 0 0 0 0 0 0 0 0 0 0 0 0.25 0"/>
<feBlend mode="normal" in2="BackgroundImageFix" result="effect1_dropShadow_1004_902"/>
<feBlend mode="normal" in="SourceGraphic" in2="effect1_dropShadow_1004_902" result="shape"/>
</filter>
<filter id="filter23_d_1004_902" x="59.9277" y="509.775" width="60.1006" height="54.5988" filterUnits="userSpaceOnUse" color-interpolation-filters="sRGB">
<feFlood flood-opacity="0" result="BackgroundImageFix"/>
<feColorMatrix in="SourceAlpha" type="matrix" values="0 0 0 0 0 0 0 0 0 0 0 0 0 0 0 0 0 0 127 0" result="hardAlpha"/>
<feOffset dy="4"/>
<feGaussianBlur stdDeviation="2"/>
<feComposite in2="hardAlpha" operator="out"/>
<feColorMatrix type="matrix" values="0 0 0 0 0 0 0 0 0 0 0 0 0 0 0 0 0 0 0.25 0"/>
<feBlend mode="normal" in2="BackgroundImageFix" result="effect1_dropShadow_1004_902"/>
<feBlend mode="normal" in="SourceGraphic" in2="effect1_dropShadow_1004_902" result="shape"/>
</filter>
<filter id="filter24_d_1004_902" x="316.912" y="605.775" width="60.1006" height="54.5988" filterUnits="userSpaceOnUse" color-interpolation-filters="sRGB">
<feFlood flood-opacity="0" result="BackgroundImageFix"/>
<feColorMatrix in="SourceAlpha" type="matrix" values="0 0 0 0 0 0 0 0 0 0 0 0 0 0 0 0 0 0 127 0" result="hardAlpha"/>
<feOffset dy="4"/>
<feGaussianBlur stdDeviation="2"/>
<feComposite in2="hardAlpha" operator="out"/>
<feColorMatrix type="matrix" values="0 0 0 0 0 0 0 0 0 0 0 0 0 0 0 0 0 0 0.25 0"/>
<feBlend mode="normal" in2="BackgroundImageFix" result="effect1_dropShadow_1004_902"/>
<feBlend mode="normal" in="SourceGraphic" in2="effect1_dropShadow_1004_902" result="shape"/>
</filter>
<filter id="filter25_d_1004_902" x="270.868" y="387.989" width="56.4814" height="53.092" filterUnits="userSpaceOnUse" color-interpolation-filters="sRGB">
<feFlood flood-opacity="0" result="BackgroundImageFix"/>
<feColorMatrix in="SourceAlpha" type="matrix" values="0 0 0 0 0 0 0 0 0 0 0 0 0 0 0 0 0 0 127 0" result="hardAlpha"/>
<feOffset dy="4"/>
<feGaussianBlur stdDeviation="2"/>
<feComposite in2="hardAlpha" operator="out"/>
<feColorMatrix type="matrix" values="0 0 0 0 0 0 0 0 0 0 0 0 0 0 0 0 0 0 0.25 0"/>
<feBlend mode="normal" in2="BackgroundImageFix" result="effect1_dropShadow_1004_902"/>
<feBlend mode="normal" in="SourceGraphic" in2="effect1_dropShadow_1004_902" result="shape"/>
</filter>
<filter id="filter26_d_1004_902" x="152.823" y="456.775" width="60.1006" height="54.5988" filterUnits="userSpaceOnUse" color-interpolation-filters="sRGB">
<feFlood flood-opacity="0" result="BackgroundImageFix"/>
<feColorMatrix in="SourceAlpha" type="matrix" values="0 0 0 0 0 0 0 0 0 0 0 0 0 0 0 0 0 0 127 0" result="hardAlpha"/>
<feOffset dy="4"/>
<feGaussianBlur stdDeviation="2"/>
<feComposite in2="hardAlpha" operator="out"/>
<feColorMatrix type="matrix" values="0 0 0 0 0 0 0 0 0 0 0 0 0 0 0 0 0 0 0.25 0"/>
<feBlend mode="normal" in2="BackgroundImageFix" result="effect1_dropShadow_1004_902"/>
<feBlend mode="normal" in="SourceGraphic" in2="effect1_dropShadow_1004_902" result="shape"/>
</filter>
<filter id="filter27_d_1004_902" x="500.844" y="447.735" width="56.6357" height="57.8258" filterUnits="userSpaceOnUse" color-interpolation-filters="sRGB">
<feFlood flood-opacity="0" result="BackgroundImageFix"/>
<feColorMatrix in="SourceAlpha" type="matrix" values="0 0 0 0 0 0 0 0 0 0 0 0 0 0 0 0 0 0 127 0" result="hardAlpha"/>
<feOffset dy="4"/>
<feGaussianBlur stdDeviation="2"/>
<feComposite in2="hardAlpha" operator="out"/>
<feColorMatrix type="matrix" values="0 0 0 0 0 0 0 0 0 0 0 0 0 0 0 0 0 0 0.25 0"/>
<feBlend mode="normal" in2="BackgroundImageFix" result="effect1_dropShadow_1004_902"/>
<feBlend mode="normal" in="SourceGraphic" in2="effect1_dropShadow_1004_902" result="shape"/>
</filter>
<filter id="filter28_d_1004_902" x="587.029" y="318.409" width="56.2012" height="53.6138" filterUnits="userSpaceOnUse" color-interpolation-filters="sRGB">
<feFlood flood-opacity="0" result="BackgroundImageFix"/>
<feColorMatrix in="SourceAlpha" type="matrix" values="0 0 0 0 0 0 0 0 0 0 0 0 0 0 0 0 0 0 127 0" result="hardAlpha"/>
<feOffset dy="4"/>
<feGaussianBlur stdDeviation="2"/>
<feComposite in2="hardAlpha" operator="out"/>
<feColorMatrix type="matrix" values="0 0 0 0 0 0 0 0 0 0 0 0 0 0 0 0 0 0 0.25 0"/>
<feBlend mode="normal" in2="BackgroundImageFix" result="effect1_dropShadow_1004_902"/>
<feBlend mode="normal" in="SourceGraphic" in2="effect1_dropShadow_1004_902" result="shape"/>
</filter>
<filter id="filter29_d_1004_902" x="191.439" y="624.271" width="58.2998" height="56.9742" filterUnits="userSpaceOnUse" color-interpolation-filters="sRGB">
<feFlood flood-opacity="0" result="BackgroundImageFix"/>
<feColorMatrix in="SourceAlpha" type="matrix" values="0 0 0 0 0 0 0 0 0 0 0 0 0 0 0 0 0 0 127 0" result="hardAlpha"/>
<feOffset dy="4"/>
<feGaussianBlur stdDeviation="2"/>
<feComposite in2="hardAlpha" operator="out"/>
<feColorMatrix type="matrix" values="0 0 0 0 0 0 0 0 0 0 0 0 0 0 0 0 0 0 0.25 0"/>
<feBlend mode="normal" in2="BackgroundImageFix" result="effect1_dropShadow_1004_902"/>
<feBlend mode="normal" in="SourceGraphic" in2="effect1_dropShadow_1004_902" result="shape"/>
</filter>
<filter id="filter30_d_1004_902" x="488.928" y="358.775" width="60.1006" height="54.5988" filterUnits="userSpaceOnUse" color-interpolation-filters="sRGB">
<feFlood flood-opacity="0" result="BackgroundImageFix"/>
<feColorMatrix in="SourceAlpha" type="matrix" values="0 0 0 0 0 0 0 0 0 0 0 0 0 0 0 0 0 0 127 0" result="hardAlpha"/>
<feOffset dy="4"/>
<feGaussianBlur stdDeviation="2"/>
<feComposite in2="hardAlpha" operator="out"/>
<feColorMatrix type="matrix" values="0 0 0 0 0 0 0 0 0 0 0 0 0 0 0 0 0 0 0.25 0"/>
<feBlend mode="normal" in2="BackgroundImageFix" result="effect1_dropShadow_1004_902"/>
<feBlend mode="normal" in="SourceGraphic" in2="effect1_dropShadow_1004_902" result="shape"/>
</filter>
<filter id="filter31_d_1004_902" x="550.912" y="538.775" width="60.1006" height="54.5988" filterUnits="userSpaceOnUse" color-interpolation-filters="sRGB">
<feFlood flood-opacity="0" result="BackgroundImageFix"/>
<feColorMatrix in="SourceAlpha" type="matrix" values="0 0 0 0 0 0 0 0 0 0 0 0 0 0 0 0 0 0 127 0" result="hardAlpha"/>
<feOffset dy="4"/>
<feGaussianBlur stdDeviation="2"/>
<feComposite in2="hardAlpha" operator="out"/>
<feColorMatrix type="matrix" values="0 0 0 0 0 0 0 0 0 0 0 0 0 0 0 0 0 0 0.25 0"/>
<feBlend mode="normal" in2="BackgroundImageFix" result="effect1_dropShadow_1004_902"/>
<feBlend mode="normal" in="SourceGraphic" in2="effect1_dropShadow_1004_902" result="shape"/>
</filter>
<filter id="filter32_d_1004_902" x="608.823" y="414.775" width="60.1006" height="54.5988" filterUnits="userSpaceOnUse" color-interpolation-filters="sRGB">
<feFlood flood-opacity="0" result="BackgroundImageFix"/>
<feColorMatrix in="SourceAlpha" type="matrix" values="0 0 0 0 0 0 0 0 0 0 0 0 0 0 0 0 0 0 127 0" result="hardAlpha"/>
<feOffset dy="4"/>
<feGaussianBlur stdDeviation="2"/>
<feComposite in2="hardAlpha" operator="out"/>
<feColorMatrix type="matrix" values="0 0 0 0 0 0 0 0 0 0 0 0 0 0 0 0 0 0 0.25 0"/>
<feBlend mode="normal" in2="BackgroundImageFix" result="effect1_dropShadow_1004_902"/>
<feBlend mode="normal" in="SourceGraphic" in2="effect1_dropShadow_1004_902" result="shape"/>
</filter>
<filter id="filter33_d_1004_902" x="539.502" y="81.9888" width="56.4814" height="53.092" filterUnits="userSpaceOnUse" color-interpolation-filters="sRGB">
<feFlood flood-opacity="0" result="BackgroundImageFix"/>
<feColorMatrix in="SourceAlpha" type="matrix" values="0 0 0 0 0 0 0 0 0 0 0 0 0 0 0 0 0 0 127 0" result="hardAlpha"/>
<feOffset dy="4"/>
<feGaussianBlur stdDeviation="2"/>
<feComposite in2="hardAlpha" operator="out"/>
<feColorMatrix type="matrix" values="0 0 0 0 0 0 0 0 0 0 0 0 0 0 0 0 0 0 0.25 0"/>
<feBlend mode="normal" in2="BackgroundImageFix" result="effect1_dropShadow_1004_902"/>
<feBlend mode="normal" in="SourceGraphic" in2="effect1_dropShadow_1004_902" result="shape"/>
</filter>
</defs>
</svg>
