<svg version="1.1" id="Layer_1" xmlns="http://www.w3.org/2000/svg" xmlns:xlink="http://www.w3.org/1999/xlink" x="0px" y="0px"
	 width="100%" viewBox="0 0 800 800" enable-background="new 0 0 800 800" xml:space="preserve">
<path fill="#000000" opacity="1.000000" stroke="none" 
	d="
M527.000000,801.000000 
	C351.333344,801.000000 176.166672,801.000000 1.000000,801.000000 
	C1.000000,534.333313 1.000000,267.666656 1.000000,1.000000 
	C267.666656,1.000000 534.333313,1.000000 801.000000,1.000000 
	C801.000000,267.666656 801.000000,534.333313 801.000000,801.000000 
	C709.833313,801.000000 618.666687,801.000000 527.000000,801.000000 
M183.162384,153.647919 
	C82.870918,243.104736 46.024990,380.845764 88.738373,506.632904 
	C142.726410,665.622803 305.813141,758.032043 470.789398,723.113098 
	C612.982910,693.016357 720.608765,568.908936 729.828613,424.357910 
	C733.854553,361.239319 721.459717,301.593475 691.775391,245.649170 
	C623.155029,116.324524 474.709442,47.568130 331.780762,78.727524 
	C276.007050,90.886559 226.721725,115.764297 183.162384,153.647919 
z"/>
<path fill="#FFFFFF" opacity="1.000000" stroke="none" 
	d="
M183.424469,153.409149 
	C226.721725,115.764297 276.007050,90.886559 331.780762,78.727524 
	C474.709442,47.568130 623.155029,116.324524 691.775391,245.649170 
	C721.459717,301.593475 733.854553,361.239319 729.828613,424.357910 
	C720.608765,568.908936 612.982910,693.016357 470.789398,723.113098 
	C305.813141,758.032043 142.726410,665.622803 88.738373,506.632904 
	C46.024990,380.845764 82.870918,243.104736 183.424469,153.409149 
z"/>
</svg>