<svg width="678" height="678" viewBox="0 0 678 678" fill="none" xmlns="http://www.w3.org/2000/svg">
<mask id="mask0_1126_1123" style="mask-type:alpha" maskUnits="userSpaceOnUse" x="0" y="0" width="678" height="678">
<path d="M678 339C678 434.298 620.305 554.411 557 616C495.935 675.41 430.927 678 339 678C241.28 678 153.218 636.653 91.3519 570.5C34.6871 509.908 0 428.505 0 339C0 241.774 44.4303 124.816 110 63C170.695 5.77963 249.002 0 339 0C447.374 0 563.943 45.8537 626 125C671.152 182.586 678 260.149 678 339Z" fill="#E3BC8C"/>
</mask>
<g mask="url(#mask0_1126_1123)">
<path d="M678 339C678 434.298 620.305 554.411 557 616C495.935 675.41 430.927 678 339 678C241.28 678 153.218 636.653 91.3519 570.5C34.6871 509.908 0 428.505 0 339C0 241.774 44.4303 124.816 110 63C170.695 5.77963 249.002 0 339 0C447.374 0 563.943 45.8537 626 125C671.152 182.586 678 260.149 678 339Z" fill="#E3BC8C"/>
<g filter="url(#filter0_f_1126_1123)">
<path d="M616.563 326.5C616.563 380.062 621.762 413 597.063 478.5C583.488 514.5 551.337 554.48 523.563 574.5C479.113 606.54 434.543 621 375.563 621C335.225 621 281.563 603 242.063 589.5C207.913 577.828 177.563 567 133.063 524C86.1658 478.683 74.0631 455 61.5631 377C52.7493 322 82.9015 209.908 109.563 168C130.899 134.463 164.063 93.2092 198.563 81.4999C254.063 56.0001 292.713 56 346.063 56C396.057 56 437.064 60.7908 481.063 81C530.095 103.52 572.166 133.816 595.563 181.5C613.183 217.411 616.563 283.8 616.563 326.5Z" fill="#FFA3B9"/>
<path d="M346.063 54C396.201 54 437.532 58.8049 481.898 79.1826C531.13 101.795 573.673 132.348 597.358 180.619C606.324 198.892 611.604 224.748 614.657 251.225C617.717 277.751 618.563 305.106 618.563 326.5C618.563 379.945 623.789 413.293 598.935 479.206C585.214 515.592 552.809 555.884 524.732 576.122C479.929 608.417 434.946 623 375.563 623C334.824 623 280.817 604.859 241.416 591.393C207.124 579.673 176.469 568.723 131.674 525.438C108.17 502.727 93.222 485.284 82.6182 463.636C72.0298 442.019 65.8432 416.349 59.5879 377.316C55.1153 349.406 60.5336 307.31 70.3164 267.117C80.104 226.904 94.3705 188.155 107.876 166.927C118.59 150.087 132.293 131.275 147.682 115.183C163.014 99.149 180.16 85.6623 197.82 79.6396C253.694 53.9882 292.71 54 346.063 54Z" stroke="#FF557E" stroke-opacity="0.51" stroke-width="4"/>
</g>
<g filter="url(#filter1_f_1126_1123)">
<path d="M341.015 340.741C325.682 337.241 307.015 315.741 312.515 294.241C322.436 255.462 359.838 255.32 376.515 258.741C415.515 266.741 459.515 319.241 425.515 385.241C391.515 451.241 282.015 448.241 244.015 385.241C206.015 322.241 219.015 252.241 254.515 209.241C290.015 166.241 369.015 129.241 454.015 176.741C539.015 224.241 597.015 318.741 545.515 440.241C494.015 561.741 345.515 556.241 287.015 540.241C228.515 524.241 174.015 494 142.515 413.5C132.538 388 113 325.3 129 268.5C149 197.5 214.5 95.5 289 82" stroke="#F1F1F1" stroke-opacity="0.66" stroke-width="9" stroke-linecap="round"/>
</g>
</g>
<defs>
<filter id="filter0_f_1126_1123" x="52.001" y="48" width="573.021" height="581" filterUnits="userSpaceOnUse" color-interpolation-filters="sRGB">
<feFlood flood-opacity="0" result="BackgroundImageFix"/>
<feBlend mode="normal" in="SourceGraphic" in2="BackgroundImageFix" result="shape"/>
<feGaussianBlur stdDeviation="2" result="effect1_foregroundBlur_1126_1123"/>
</filter>
<filter id="filter1_f_1126_1123" x="114.425" y="73.499" width="459.004" height="483.671" filterUnits="userSpaceOnUse" color-interpolation-filters="sRGB">
<feFlood flood-opacity="0" result="BackgroundImageFix"/>
<feBlend mode="normal" in="SourceGraphic" in2="BackgroundImageFix" result="shape"/>
<feGaussianBlur stdDeviation="2" result="effect1_foregroundBlur_1126_1123"/>
</filter>
</defs>
</svg>
