<svg width="135" height="135" viewBox="0 0 135 135" fill="none" xmlns="http://www.w3.org/2000/svg">
<mask id="mask0_1004_747" style="mask-type:alpha" maskUnits="userSpaceOnUse" x="0" y="0" width="135" height="135">
<rect width="135" height="135" rx="25" fill="#E3BC8C"/>
</mask>
<g mask="url(#mask0_1004_747)">
<rect width="135" height="135" rx="25" fill="#E3BC8C"/>
<g filter="url(#filter0_d_1004_747)">
<ellipse cx="69" cy="58.5" rx="15" ry="13.5" fill="#4192F2"/>
<path d="M66.9395 55.0068C67.3815 55.0068 67.7689 55.1139 68.1016 55.3281C68.4388 55.5423 68.7145 55.8021 68.9287 56.1074C69.1839 55.8112 69.4915 55.5537 69.8516 55.335C70.2116 55.1117 70.6126 55 71.0547 55C71.638 55 72.1211 55.1572 72.5039 55.4717C72.8913 55.7816 73.1784 56.1895 73.3652 56.6953C73.5521 57.2012 73.6455 57.748 73.6455 58.3359L73.6523 61.9795C73.6523 62.1618 73.5863 62.319 73.4541 62.4512C73.3219 62.5833 73.1602 62.6494 72.9688 62.6494C72.7773 62.6494 72.6156 62.5833 72.4834 62.4512C72.3512 62.319 72.2852 62.1618 72.2852 61.9795L72.2783 58.3496C72.2783 58.0033 72.2464 57.6797 72.1826 57.3789C72.1188 57.0736 72.0026 56.8275 71.834 56.6406C71.6654 56.4538 71.4215 56.3604 71.1025 56.3604C70.7653 56.3604 70.4759 56.4538 70.2344 56.6406C69.9974 56.8275 69.8151 57.0736 69.6875 57.3789C69.5645 57.6797 69.5029 58.0055 69.5029 58.3564L69.5098 62C69.5098 62.1823 69.4414 62.3395 69.3047 62.4717C69.1725 62.5993 69.013 62.6631 68.8262 62.6631C68.6348 62.6631 68.473 62.597 68.3408 62.4648C68.2087 62.3327 68.1426 62.1755 68.1426 61.9932V58.3633C68.1426 57.9349 68.0697 57.5726 67.9238 57.2764C67.7826 56.9801 67.598 56.7568 67.3701 56.6064C67.1468 56.4515 66.9167 56.374 66.6797 56.374C66.3424 56.374 66.0394 56.5312 65.7705 56.8457C65.5016 57.1602 65.3672 57.6501 65.3672 58.3154V62C65.3672 62.1823 65.2988 62.3395 65.1621 62.4717C65.0299 62.5993 64.8704 62.6631 64.6836 62.6631C64.4967 62.6631 64.335 62.597 64.1982 62.4648C64.0661 62.3327 64 62.1755 64 61.9932V55.6699C64 55.4831 64.0342 55.3258 64.1025 55.1982C64.1755 55.0661 64.3076 55 64.499 55C64.6494 55 64.7884 55.0479 64.916 55.1436C65.0436 55.2393 65.1462 55.3988 65.2236 55.6221L65.3535 55.998C65.4993 55.6973 65.7227 55.458 66.0234 55.2803C66.3288 55.098 66.6341 55.0068 66.9395 55.0068Z" fill="#F6F6F6"/>
</g>
<g filter="url(#filter1_d_1004_747)">
<ellipse cx="96" cy="76.5" rx="15" ry="13.5" fill="#4192F2"/>
<path d="M93.9395 73.0068C94.3815 73.0068 94.7689 73.1139 95.1016 73.3281C95.4388 73.5423 95.7145 73.8021 95.9287 74.1074C96.1839 73.8112 96.4915 73.5537 96.8516 73.335C97.2116 73.1117 97.6126 73 98.0547 73C98.638 73 99.1211 73.1572 99.5039 73.4717C99.8913 73.7816 100.178 74.1895 100.365 74.6953C100.552 75.2012 100.646 75.748 100.646 76.3359L100.652 79.9795C100.652 80.1618 100.586 80.319 100.454 80.4512C100.322 80.5833 100.16 80.6494 99.9688 80.6494C99.7773 80.6494 99.6156 80.5833 99.4834 80.4512C99.3512 80.319 99.2852 80.1618 99.2852 79.9795L99.2783 76.3496C99.2783 76.0033 99.2464 75.6797 99.1826 75.3789C99.1188 75.0736 99.0026 74.8275 98.834 74.6406C98.6654 74.4538 98.4215 74.3604 98.1025 74.3604C97.7653 74.3604 97.4759 74.4538 97.2344 74.6406C96.9974 74.8275 96.8151 75.0736 96.6875 75.3789C96.5645 75.6797 96.5029 76.0055 96.5029 76.3564L96.5098 80C96.5098 80.1823 96.4414 80.3395 96.3047 80.4717C96.1725 80.5993 96.013 80.6631 95.8262 80.6631C95.6348 80.6631 95.473 80.597 95.3408 80.4648C95.2087 80.3327 95.1426 80.1755 95.1426 79.9932V76.3633C95.1426 75.9349 95.0697 75.5726 94.9238 75.2764C94.7826 74.9801 94.598 74.7568 94.3701 74.6064C94.1468 74.4515 93.9167 74.374 93.6797 74.374C93.3424 74.374 93.0394 74.5312 92.7705 74.8457C92.5016 75.1602 92.3672 75.6501 92.3672 76.3154V80C92.3672 80.1823 92.2988 80.3395 92.1621 80.4717C92.0299 80.5993 91.8704 80.6631 91.6836 80.6631C91.4967 80.6631 91.335 80.597 91.1982 80.4648C91.0661 80.3327 91 80.1755 91 79.9932V73.6699C91 73.4831 91.0342 73.3258 91.1025 73.1982C91.1755 73.0661 91.3076 73 91.499 73C91.6494 73 91.7884 73.0479 91.916 73.1436C92.0436 73.2393 92.1462 73.3988 92.2236 73.6221L92.3535 73.998C92.4993 73.6973 92.7227 73.458 93.0234 73.2803C93.3288 73.098 93.6341 73.0068 93.9395 73.0068Z" fill="#F6F6F6"/>
</g>
<g filter="url(#filter2_d_1004_747)">
<ellipse cx="119" cy="116.5" rx="15" ry="13.5" fill="#4192F2"/>
<path d="M116.939 113.007C117.382 113.007 117.769 113.114 118.102 113.328C118.439 113.542 118.715 113.802 118.929 114.107C119.184 113.811 119.492 113.554 119.852 113.335C120.212 113.112 120.613 113 121.055 113C121.638 113 122.121 113.157 122.504 113.472C122.891 113.782 123.178 114.189 123.365 114.695C123.552 115.201 123.646 115.748 123.646 116.336L123.652 119.979C123.652 120.162 123.586 120.319 123.454 120.451C123.322 120.583 123.16 120.649 122.969 120.649C122.777 120.649 122.616 120.583 122.483 120.451C122.351 120.319 122.285 120.162 122.285 119.979L122.278 116.35C122.278 116.003 122.246 115.68 122.183 115.379C122.119 115.074 122.003 114.827 121.834 114.641C121.665 114.454 121.422 114.36 121.103 114.36C120.765 114.36 120.476 114.454 120.234 114.641C119.997 114.827 119.815 115.074 119.688 115.379C119.564 115.68 119.503 116.006 119.503 116.356L119.51 120C119.51 120.182 119.441 120.34 119.305 120.472C119.173 120.599 119.013 120.663 118.826 120.663C118.635 120.663 118.473 120.597 118.341 120.465C118.209 120.333 118.143 120.175 118.143 119.993V116.363C118.143 115.935 118.07 115.573 117.924 115.276C117.783 114.98 117.598 114.757 117.37 114.606C117.147 114.451 116.917 114.374 116.68 114.374C116.342 114.374 116.039 114.531 115.771 114.846C115.502 115.16 115.367 115.65 115.367 116.315V120C115.367 120.182 115.299 120.34 115.162 120.472C115.03 120.599 114.87 120.663 114.684 120.663C114.497 120.663 114.335 120.597 114.198 120.465C114.066 120.333 114 120.175 114 119.993V113.67C114 113.483 114.034 113.326 114.103 113.198C114.175 113.066 114.308 113 114.499 113C114.649 113 114.788 113.048 114.916 113.144C115.044 113.239 115.146 113.399 115.224 113.622L115.354 113.998C115.499 113.697 115.723 113.458 116.023 113.28C116.329 113.098 116.634 113.007 116.939 113.007Z" fill="#F6F6F6"/>
<g filter="url(#filter3_d_1004_747)">
<ellipse cx="116" cy="19.5" rx="15" ry="13.5" fill="#4192F2"/>
<path d="M113.939 16.0068C114.382 16.0068 114.769 16.1139 115.102 16.3281C115.439 16.5423 115.715 16.8021 115.929 17.1074C116.184 16.8112 116.492 16.5537 116.852 16.335C117.212 16.1117 117.613 16 118.055 16C118.638 16 119.121 16.1572 119.504 16.4717C119.891 16.7816 120.178 17.1895 120.365 17.6953C120.552 18.2012 120.646 18.748 120.646 19.3359L120.652 22.9795C120.652 23.1618 120.586 23.319 120.454 23.4512C120.322 23.5833 120.16 23.6494 119.969 23.6494C119.777 23.6494 119.616 23.5833 119.483 23.4512C119.351 23.319 119.285 23.1618 119.285 22.9795L119.278 19.3496C119.278 19.0033 119.246 18.6797 119.183 18.3789C119.119 18.0736 119.003 17.8275 118.834 17.6406C118.665 17.4538 118.422 17.3604 118.103 17.3604C117.765 17.3604 117.476 17.4538 117.234 17.6406C116.997 17.8275 116.815 18.0736 116.688 18.3789C116.564 18.6797 116.503 19.0055 116.503 19.3564L116.51 23C116.51 23.1823 116.441 23.3395 116.305 23.4717C116.173 23.5993 116.013 23.6631 115.826 23.6631C115.635 23.6631 115.473 23.597 115.341 23.4648C115.209 23.3327 115.143 23.1755 115.143 22.9932V19.3633C115.143 18.9349 115.07 18.5726 114.924 18.2764C114.783 17.9801 114.598 17.7568 114.37 17.6064C114.147 17.4515 113.917 17.374 113.68 17.374C113.342 17.374 113.039 17.5312 112.771 17.8457C112.502 18.1602 112.367 18.6501 112.367 19.3154V23C112.367 23.1823 112.299 23.3395 112.162 23.4717C112.03 23.5993 111.87 23.6631 111.684 23.6631C111.497 23.6631 111.335 23.597 111.198 23.4648C111.066 23.3327 111 23.1755 111 22.9932V16.6699C111 16.4831 111.034 16.3258 111.103 16.1982C111.175 16.0661 111.308 16 111.499 16C111.649 16 111.788 16.0479 111.916 16.1436C112.044 16.2393 112.146 16.3988 112.224 16.6221L112.354 16.998C112.499 16.6973 112.723 16.458 113.023 16.2803C113.329 16.098 113.634 16.0068 113.939 16.0068Z" fill="#F6F6F6"/>
<g filter="url(#filter4_d_1004_747)">
<ellipse cx="11" cy="33.5" rx="15" ry="13.5" fill="#4192F2"/>
<path d="M8.93945 30.0068C9.38151 30.0068 9.76888 30.1139 10.1016 30.3281C10.4388 30.5423 10.7145 30.8021 10.9287 31.1074C11.1839 30.8112 11.4915 30.5537 11.8516 30.335C12.2116 30.1117 12.6126 30 13.0547 30C13.638 30 14.1211 30.1572 14.5039 30.4717C14.8913 30.7816 15.1784 31.1895 15.3652 31.6953C15.5521 32.2012 15.6455 32.748 15.6455 33.3359L15.6523 36.9795C15.6523 37.1618 15.5863 37.319 15.4541 37.4512C15.3219 37.5833 15.1602 37.6494 14.9688 37.6494C14.7773 37.6494 14.6156 37.5833 14.4834 37.4512C14.3512 37.319 14.2852 37.1618 14.2852 36.9795L14.2783 33.3496C14.2783 33.0033 14.2464 32.6797 14.1826 32.3789C14.1188 32.0736 14.0026 31.8275 13.834 31.6406C13.6654 31.4538 13.4215 31.3604 13.1025 31.3604C12.7653 31.3604 12.4759 31.4538 12.2344 31.6406C11.9974 31.8275 11.8151 32.0736 11.6875 32.3789C11.5645 32.6797 11.5029 33.0055 11.5029 33.3564L11.5098 37C11.5098 37.1823 11.4414 37.3395 11.3047 37.4717C11.1725 37.5993 11.013 37.6631 10.8262 37.6631C10.6348 37.6631 10.473 37.597 10.3408 37.4648C10.2087 37.3327 10.1426 37.1755 10.1426 36.9932V33.3633C10.1426 32.9349 10.0697 32.5726 9.92383 32.2764C9.78255 31.9801 9.59798 31.7568 9.37012 31.6064C9.14681 31.4515 8.91667 31.374 8.67969 31.374C8.34245 31.374 8.03939 31.5312 7.77051 31.8457C7.50163 32.1602 7.36719 32.6501 7.36719 33.3154V37C7.36719 37.1823 7.29883 37.3395 7.16211 37.4717C7.02995 37.5993 6.87044 37.6631 6.68359 37.6631C6.49674 37.6631 6.33496 37.597 6.19824 37.4648C6.06608 37.3327 6 37.1755 6 36.9932V30.6699C6 30.4831 6.03418 30.3258 6.10254 30.1982C6.17546 30.0661 6.30762 30 6.49902 30C6.64941 30 6.78841 30.0479 6.91602 30.1436C7.04362 30.2393 7.14616 30.3988 7.22363 30.6221L7.35352 30.998C7.49935 30.6973 7.72266 30.458 8.02344 30.2803C8.32878 30.098 8.63411 30.0068 8.93945 30.0068Z" fill="#F6F6F6"/>
<g filter="url(#filter5_d_1004_747)">
<ellipse cx="3" cy="109.5" rx="15" ry="13.5" fill="#4192F2"/>
<path d="M0.939453 106.007C1.38151 106.007 1.76888 106.114 2.10156 106.328C2.4388 106.542 2.71452 106.802 2.92871 107.107C3.18392 106.811 3.49154 106.554 3.85156 106.335C4.21159 106.112 4.61263 106 5.05469 106C5.63802 106 6.12109 106.157 6.50391 106.472C6.89128 106.782 7.17839 107.189 7.36523 107.695C7.55208 108.201 7.64551 108.748 7.64551 109.336L7.65234 112.979C7.65234 113.162 7.58626 113.319 7.4541 113.451C7.32194 113.583 7.16016 113.649 6.96875 113.649C6.77734 113.649 6.61556 113.583 6.4834 113.451C6.35124 113.319 6.28516 113.162 6.28516 112.979L6.27832 109.35C6.27832 109.003 6.24642 108.68 6.18262 108.379C6.11882 108.074 6.0026 107.827 5.83398 107.641C5.66536 107.454 5.42155 107.36 5.10254 107.36C4.7653 107.36 4.47591 107.454 4.23438 107.641C3.9974 107.827 3.8151 108.074 3.6875 108.379C3.56445 108.68 3.50293 109.006 3.50293 109.356L3.50977 113C3.50977 113.182 3.44141 113.34 3.30469 113.472C3.17253 113.599 3.01302 113.663 2.82617 113.663C2.63477 113.663 2.47298 113.597 2.34082 113.465C2.20866 113.333 2.14258 113.175 2.14258 112.993V109.363C2.14258 108.935 2.06966 108.573 1.92383 108.276C1.78255 107.98 1.59798 107.757 1.37012 107.606C1.14681 107.451 0.916667 107.374 0.679688 107.374C0.342448 107.374 0.0393879 107.531 -0.229492 107.846C-0.498372 108.16 -0.632812 108.65 -0.632812 109.315V113C-0.632812 113.182 -0.701172 113.34 -0.837891 113.472C-0.970052 113.599 -1.12956 113.663 -1.31641 113.663C-1.50326 113.663 -1.66504 113.597 -1.80176 113.465C-1.93392 113.333 -2 113.175 -2 112.993V106.67C-2 106.483 -1.96582 106.326 -1.89746 106.198C-1.82454 106.066 -1.69238 106 -1.50098 106C-1.35059 106 -1.21159 106.048 -1.08398 106.144C-0.95638 106.239 -0.853841 106.399 -0.776367 106.622L-0.646484 106.998C-0.500651 106.697 -0.277344 106.458 0.0234375 106.28C0.328776 106.098 0.634115 106.007 0.939453 106.007Z" fill="#F6F6F6"/>
</g>
</g>
</g>
</g>
<g filter="url(#filter6_d_1004_747)">
<ellipse cx="46" cy="75.5" rx="15" ry="13.5" fill="#FFE459"/>
<path d="M43.9395 72.0068C44.3815 72.0068 44.7689 72.1139 45.1016 72.3281C45.4388 72.5423 45.7145 72.8021 45.9287 73.1074C46.1839 72.8112 46.4915 72.5537 46.8516 72.335C47.2116 72.1117 47.6126 72 48.0547 72C48.638 72 49.1211 72.1572 49.5039 72.4717C49.8913 72.7816 50.1784 73.1895 50.3652 73.6953C50.5521 74.2012 50.6455 74.748 50.6455 75.3359L50.6523 78.9795C50.6523 79.1618 50.5863 79.319 50.4541 79.4512C50.3219 79.5833 50.1602 79.6494 49.9688 79.6494C49.7773 79.6494 49.6156 79.5833 49.4834 79.4512C49.3512 79.319 49.2852 79.1618 49.2852 78.9795L49.2783 75.3496C49.2783 75.0033 49.2464 74.6797 49.1826 74.3789C49.1188 74.0736 49.0026 73.8275 48.834 73.6406C48.6654 73.4538 48.4215 73.3604 48.1025 73.3604C47.7653 73.3604 47.4759 73.4538 47.2344 73.6406C46.9974 73.8275 46.8151 74.0736 46.6875 74.3789C46.5645 74.6797 46.5029 75.0055 46.5029 75.3564L46.5098 79C46.5098 79.1823 46.4414 79.3395 46.3047 79.4717C46.1725 79.5993 46.013 79.6631 45.8262 79.6631C45.6348 79.6631 45.473 79.597 45.3408 79.4648C45.2087 79.3327 45.1426 79.1755 45.1426 78.9932V75.3633C45.1426 74.9349 45.0697 74.5726 44.9238 74.2764C44.7826 73.9801 44.598 73.7568 44.3701 73.6064C44.1468 73.4515 43.9167 73.374 43.6797 73.374C43.3424 73.374 43.0394 73.5312 42.7705 73.8457C42.5016 74.1602 42.3672 74.6501 42.3672 75.3154V79C42.3672 79.1823 42.2988 79.3395 42.1621 79.4717C42.0299 79.5993 41.8704 79.6631 41.6836 79.6631C41.4967 79.6631 41.335 79.597 41.1982 79.4648C41.0661 79.3327 41 79.1755 41 78.9932V72.6699C41 72.4831 41.0342 72.3258 41.1025 72.1982C41.1755 72.0661 41.3076 72 41.499 72C41.6494 72 41.7884 72.0479 41.916 72.1436C42.0436 72.2393 42.1462 72.3988 42.2236 72.6221L42.3535 72.998C42.4993 72.6973 42.7227 72.458 43.0234 72.2803C43.3288 72.098 43.6341 72.0068 43.9395 72.0068Z" fill="#F6F6F6"/>
</g>
<g filter="url(#filter7_d_1004_747)">
<ellipse cx="83" cy="123.5" rx="15" ry="13.5" fill="#FFE459"/>
<path d="M80.9395 120.007C81.3815 120.007 81.7689 120.114 82.1016 120.328C82.4388 120.542 82.7145 120.802 82.9287 121.107C83.1839 120.811 83.4915 120.554 83.8516 120.335C84.2116 120.112 84.6126 120 85.0547 120C85.638 120 86.1211 120.157 86.5039 120.472C86.8913 120.782 87.1784 121.189 87.3652 121.695C87.5521 122.201 87.6455 122.748 87.6455 123.336L87.6523 126.979C87.6523 127.162 87.5863 127.319 87.4541 127.451C87.3219 127.583 87.1602 127.649 86.9688 127.649C86.7773 127.649 86.6156 127.583 86.4834 127.451C86.3512 127.319 86.2852 127.162 86.2852 126.979L86.2783 123.35C86.2783 123.003 86.2464 122.68 86.1826 122.379C86.1188 122.074 86.0026 121.827 85.834 121.641C85.6654 121.454 85.4215 121.36 85.1025 121.36C84.7653 121.36 84.4759 121.454 84.2344 121.641C83.9974 121.827 83.8151 122.074 83.6875 122.379C83.5645 122.68 83.5029 123.006 83.5029 123.356L83.5098 127C83.5098 127.182 83.4414 127.34 83.3047 127.472C83.1725 127.599 83.013 127.663 82.8262 127.663C82.6348 127.663 82.473 127.597 82.3408 127.465C82.2087 127.333 82.1426 127.175 82.1426 126.993V123.363C82.1426 122.935 82.0697 122.573 81.9238 122.276C81.7826 121.98 81.598 121.757 81.3701 121.606C81.1468 121.451 80.9167 121.374 80.6797 121.374C80.3424 121.374 80.0394 121.531 79.7705 121.846C79.5016 122.16 79.3672 122.65 79.3672 123.315V127C79.3672 127.182 79.2988 127.34 79.1621 127.472C79.0299 127.599 78.8704 127.663 78.6836 127.663C78.4967 127.663 78.335 127.597 78.1982 127.465C78.0661 127.333 78 127.175 78 126.993V120.67C78 120.483 78.0342 120.326 78.1025 120.198C78.1755 120.066 78.3076 120 78.499 120C78.6494 120 78.7884 120.048 78.916 120.144C79.0436 120.239 79.1462 120.399 79.2236 120.622L79.3535 120.998C79.4993 120.697 79.7227 120.458 80.0234 120.28C80.3288 120.098 80.6341 120.007 80.9395 120.007Z" fill="#F6F6F6"/>
<g filter="url(#filter8_d_1004_747)">
<ellipse cx="121" cy="86.5" rx="15" ry="13.5" fill="#FFE459"/>
<path d="M118.939 83.0068C119.382 83.0068 119.769 83.1139 120.102 83.3281C120.439 83.5423 120.715 83.8021 120.929 84.1074C121.184 83.8112 121.492 83.5537 121.852 83.335C122.212 83.1117 122.613 83 123.055 83C123.638 83 124.121 83.1572 124.504 83.4717C124.891 83.7816 125.178 84.1895 125.365 84.6953C125.552 85.2012 125.646 85.748 125.646 86.3359L125.652 89.9795C125.652 90.1618 125.586 90.319 125.454 90.4512C125.322 90.5833 125.16 90.6494 124.969 90.6494C124.777 90.6494 124.616 90.5833 124.483 90.4512C124.351 90.319 124.285 90.1618 124.285 89.9795L124.278 86.3496C124.278 86.0033 124.246 85.6797 124.183 85.3789C124.119 85.0736 124.003 84.8275 123.834 84.6406C123.665 84.4538 123.422 84.3604 123.103 84.3604C122.765 84.3604 122.476 84.4538 122.234 84.6406C121.997 84.8275 121.815 85.0736 121.688 85.3789C121.564 85.6797 121.503 86.0055 121.503 86.3564L121.51 90C121.51 90.1823 121.441 90.3395 121.305 90.4717C121.173 90.5993 121.013 90.6631 120.826 90.6631C120.635 90.6631 120.473 90.597 120.341 90.4648C120.209 90.3327 120.143 90.1755 120.143 89.9932V86.3633C120.143 85.9349 120.07 85.5726 119.924 85.2764C119.783 84.9801 119.598 84.7568 119.37 84.6064C119.147 84.4515 118.917 84.374 118.68 84.374C118.342 84.374 118.039 84.5312 117.771 84.8457C117.502 85.1602 117.367 85.6501 117.367 86.3154V90C117.367 90.1823 117.299 90.3395 117.162 90.4717C117.03 90.5993 116.87 90.6631 116.684 90.6631C116.497 90.6631 116.335 90.597 116.198 90.4648C116.066 90.3327 116 90.1755 116 89.9932V83.6699C116 83.4831 116.034 83.3258 116.103 83.1982C116.175 83.0661 116.308 83 116.499 83C116.649 83 116.788 83.0479 116.916 83.1436C117.044 83.2393 117.146 83.3988 117.224 83.6221L117.354 83.998C117.499 83.6973 117.723 83.458 118.023 83.2803C118.329 83.098 118.634 83.0068 118.939 83.0068Z" fill="#F6F6F6"/>
</g>
</g>
<g filter="url(#filter9_d_1004_747)">
<ellipse cx="109" cy="58.5" rx="15" ry="13.5" fill="#FFE459"/>
<path d="M106.939 55.0068C107.382 55.0068 107.769 55.1139 108.102 55.3281C108.439 55.5423 108.715 55.8021 108.929 56.1074C109.184 55.8112 109.492 55.5537 109.852 55.335C110.212 55.1117 110.613 55 111.055 55C111.638 55 112.121 55.1572 112.504 55.4717C112.891 55.7816 113.178 56.1895 113.365 56.6953C113.552 57.2012 113.646 57.748 113.646 58.3359L113.652 61.9795C113.652 62.1618 113.586 62.319 113.454 62.4512C113.322 62.5833 113.16 62.6494 112.969 62.6494C112.777 62.6494 112.616 62.5833 112.483 62.4512C112.351 62.319 112.285 62.1618 112.285 61.9795L112.278 58.3496C112.278 58.0033 112.246 57.6797 112.183 57.3789C112.119 57.0736 112.003 56.8275 111.834 56.6406C111.665 56.4538 111.422 56.3604 111.103 56.3604C110.765 56.3604 110.476 56.4538 110.234 56.6406C109.997 56.8275 109.815 57.0736 109.688 57.3789C109.564 57.6797 109.503 58.0055 109.503 58.3564L109.51 62C109.51 62.1823 109.441 62.3395 109.305 62.4717C109.173 62.5993 109.013 62.6631 108.826 62.6631C108.635 62.6631 108.473 62.597 108.341 62.4648C108.209 62.3327 108.143 62.1755 108.143 61.9932V58.3633C108.143 57.9349 108.07 57.5726 107.924 57.2764C107.783 56.9801 107.598 56.7568 107.37 56.6064C107.147 56.4515 106.917 56.374 106.68 56.374C106.342 56.374 106.039 56.5312 105.771 56.8457C105.502 57.1602 105.367 57.6501 105.367 58.3154V62C105.367 62.1823 105.299 62.3395 105.162 62.4717C105.03 62.5993 104.87 62.6631 104.684 62.6631C104.497 62.6631 104.335 62.597 104.198 62.4648C104.066 62.3327 104 62.1755 104 61.9932V55.6699C104 55.4831 104.034 55.3258 104.103 55.1982C104.175 55.0661 104.308 55 104.499 55C104.649 55 104.788 55.0479 104.916 55.1436C105.044 55.2393 105.146 55.3988 105.224 55.6221L105.354 55.998C105.499 55.6973 105.723 55.458 106.023 55.2803C106.329 55.098 106.634 55.0068 106.939 55.0068Z" fill="#F6F6F6"/>
<g filter="url(#filter10_d_1004_747)">
<ellipse cx="61" cy="18.5" rx="15" ry="13.5" fill="#FFE459"/>
<path d="M58.9395 15.0068C59.3815 15.0068 59.7689 15.1139 60.1016 15.3281C60.4388 15.5423 60.7145 15.8021 60.9287 16.1074C61.1839 15.8112 61.4915 15.5537 61.8516 15.335C62.2116 15.1117 62.6126 15 63.0547 15C63.638 15 64.1211 15.1572 64.5039 15.4717C64.8913 15.7816 65.1784 16.1895 65.3652 16.6953C65.5521 17.2012 65.6455 17.748 65.6455 18.3359L65.6523 21.9795C65.6523 22.1618 65.5863 22.319 65.4541 22.4512C65.3219 22.5833 65.1602 22.6494 64.9688 22.6494C64.7773 22.6494 64.6156 22.5833 64.4834 22.4512C64.3512 22.319 64.2852 22.1618 64.2852 21.9795L64.2783 18.3496C64.2783 18.0033 64.2464 17.6797 64.1826 17.3789C64.1188 17.0736 64.0026 16.8275 63.834 16.6406C63.6654 16.4538 63.4215 16.3604 63.1025 16.3604C62.7653 16.3604 62.4759 16.4538 62.2344 16.6406C61.9974 16.8275 61.8151 17.0736 61.6875 17.3789C61.5645 17.6797 61.5029 18.0055 61.5029 18.3564L61.5098 22C61.5098 22.1823 61.4414 22.3395 61.3047 22.4717C61.1725 22.5993 61.013 22.6631 60.8262 22.6631C60.6348 22.6631 60.473 22.597 60.3408 22.4648C60.2087 22.3327 60.1426 22.1755 60.1426 21.9932V18.3633C60.1426 17.9349 60.0697 17.5726 59.9238 17.2764C59.7826 16.9801 59.598 16.7568 59.3701 16.6064C59.1468 16.4515 58.9167 16.374 58.6797 16.374C58.3424 16.374 58.0394 16.5312 57.7705 16.8457C57.5016 17.1602 57.3672 17.6501 57.3672 18.3154V22C57.3672 22.1823 57.2988 22.3395 57.1621 22.4717C57.0299 22.5993 56.8704 22.6631 56.6836 22.6631C56.4967 22.6631 56.335 22.597 56.1982 22.4648C56.0661 22.3327 56 22.1755 56 21.9932V15.6699C56 15.4831 56.0342 15.3258 56.1025 15.1982C56.1755 15.0661 56.3076 15 56.499 15C56.6494 15 56.7884 15.0479 56.916 15.1436C57.0436 15.2393 57.1462 15.3988 57.2236 15.6221L57.3535 15.998C57.4993 15.6973 57.7227 15.458 58.0234 15.2803C58.3288 15.098 58.6341 15.0068 58.9395 15.0068Z" fill="#F6F6F6"/>
</g>
</g>
<g filter="url(#filter11_d_1004_747)">
<ellipse cx="99" cy="36.5" rx="15" ry="13.5" fill="#378F18"/>
<path d="M96.9395 33.0068C97.3815 33.0068 97.7689 33.1139 98.1016 33.3281C98.4388 33.5423 98.7145 33.8021 98.9287 34.1074C99.1839 33.8112 99.4915 33.5537 99.8516 33.335C100.212 33.1117 100.613 33 101.055 33C101.638 33 102.121 33.1572 102.504 33.4717C102.891 33.7816 103.178 34.1895 103.365 34.6953C103.552 35.2012 103.646 35.748 103.646 36.3359L103.652 39.9795C103.652 40.1618 103.586 40.319 103.454 40.4512C103.322 40.5833 103.16 40.6494 102.969 40.6494C102.777 40.6494 102.616 40.5833 102.483 40.4512C102.351 40.319 102.285 40.1618 102.285 39.9795L102.278 36.3496C102.278 36.0033 102.246 35.6797 102.183 35.3789C102.119 35.0736 102.003 34.8275 101.834 34.6406C101.665 34.4538 101.422 34.3604 101.103 34.3604C100.765 34.3604 100.476 34.4538 100.234 34.6406C99.9974 34.8275 99.8151 35.0736 99.6875 35.3789C99.5645 35.6797 99.5029 36.0055 99.5029 36.3564L99.5098 40C99.5098 40.1823 99.4414 40.3395 99.3047 40.4717C99.1725 40.5993 99.013 40.6631 98.8262 40.6631C98.6348 40.6631 98.473 40.597 98.3408 40.4648C98.2087 40.3327 98.1426 40.1755 98.1426 39.9932V36.3633C98.1426 35.9349 98.0697 35.5726 97.9238 35.2764C97.7826 34.9801 97.598 34.7568 97.3701 34.6064C97.1468 34.4515 96.9167 34.374 96.6797 34.374C96.3424 34.374 96.0394 34.5312 95.7705 34.8457C95.5016 35.1602 95.3672 35.6501 95.3672 36.3154V40C95.3672 40.1823 95.2988 40.3395 95.1621 40.4717C95.0299 40.5993 94.8704 40.6631 94.6836 40.6631C94.4967 40.6631 94.335 40.597 94.1982 40.4648C94.0661 40.3327 94 40.1755 94 39.9932V33.6699C94 33.4831 94.0342 33.3258 94.1025 33.1982C94.1755 33.0661 94.3076 33 94.499 33C94.6494 33 94.7884 33.0479 94.916 33.1436C95.0436 33.2393 95.1462 33.3988 95.2236 33.6221L95.3535 33.998C95.4993 33.6973 95.7227 33.458 96.0234 33.2803C96.3288 33.098 96.6341 33.0068 96.9395 33.0068Z" fill="#F6F6F6"/>
</g>
<g filter="url(#filter12_d_1004_747)">
<ellipse cx="94" cy="9.5" rx="15" ry="13.5" fill="#378F18"/>
<path d="M91.9395 6.00684C92.3815 6.00684 92.7689 6.11393 93.1016 6.32812C93.4388 6.54232 93.7145 6.80208 93.9287 7.10742C94.1839 6.8112 94.4915 6.55371 94.8516 6.33496C95.2116 6.11165 95.6126 6 96.0547 6C96.638 6 97.1211 6.15723 97.5039 6.47168C97.8913 6.78158 98.1784 7.18945 98.3652 7.69531C98.5521 8.20117 98.6455 8.74805 98.6455 9.33594L98.6523 12.9795C98.6523 13.1618 98.5863 13.319 98.4541 13.4512C98.3219 13.5833 98.1602 13.6494 97.9688 13.6494C97.7773 13.6494 97.6156 13.5833 97.4834 13.4512C97.3512 13.319 97.2852 13.1618 97.2852 12.9795L97.2783 9.34961C97.2783 9.00326 97.2464 8.67969 97.1826 8.37891C97.1188 8.07357 97.0026 7.82747 96.834 7.64062C96.6654 7.45378 96.4215 7.36035 96.1025 7.36035C95.7653 7.36035 95.4759 7.45378 95.2344 7.64062C94.9974 7.82747 94.8151 8.07357 94.6875 8.37891C94.5645 8.67969 94.5029 9.00553 94.5029 9.35645L94.5098 13C94.5098 13.1823 94.4414 13.3395 94.3047 13.4717C94.1725 13.5993 94.013 13.6631 93.8262 13.6631C93.6348 13.6631 93.473 13.597 93.3408 13.4648C93.2087 13.3327 93.1426 13.1755 93.1426 12.9932V9.36328C93.1426 8.9349 93.0697 8.57259 92.9238 8.27637C92.7826 7.98014 92.598 7.75684 92.3701 7.60645C92.1468 7.4515 91.9167 7.37402 91.6797 7.37402C91.3424 7.37402 91.0394 7.53125 90.7705 7.8457C90.5016 8.16016 90.3672 8.65007 90.3672 9.31543V13C90.3672 13.1823 90.2988 13.3395 90.1621 13.4717C90.0299 13.5993 89.8704 13.6631 89.6836 13.6631C89.4967 13.6631 89.335 13.597 89.1982 13.4648C89.0661 13.3327 89 13.1755 89 12.9932V6.66992C89 6.48307 89.0342 6.32585 89.1025 6.19824C89.1755 6.06608 89.3076 6 89.499 6C89.6494 6 89.7884 6.04785 89.916 6.14355C90.0436 6.23926 90.1462 6.39876 90.2236 6.62207L90.3535 6.99805C90.4993 6.69727 90.7227 6.45801 91.0234 6.28027C91.3288 6.09798 91.6341 6.00684 91.9395 6.00684Z" fill="#F6F6F6"/>
</g>
<g filter="url(#filter13_d_1004_747)">
<ellipse cx="56" cy="94.5" rx="15" ry="13.5" fill="#378F18"/>
<path d="M53.9395 91.0068C54.3815 91.0068 54.7689 91.1139 55.1016 91.3281C55.4388 91.5423 55.7145 91.8021 55.9287 92.1074C56.1839 91.8112 56.4915 91.5537 56.8516 91.335C57.2116 91.1117 57.6126 91 58.0547 91C58.638 91 59.1211 91.1572 59.5039 91.4717C59.8913 91.7816 60.1784 92.1895 60.3652 92.6953C60.5521 93.2012 60.6455 93.748 60.6455 94.3359L60.6523 97.9795C60.6523 98.1618 60.5863 98.319 60.4541 98.4512C60.3219 98.5833 60.1602 98.6494 59.9688 98.6494C59.7773 98.6494 59.6156 98.5833 59.4834 98.4512C59.3512 98.319 59.2852 98.1618 59.2852 97.9795L59.2783 94.3496C59.2783 94.0033 59.2464 93.6797 59.1826 93.3789C59.1188 93.0736 59.0026 92.8275 58.834 92.6406C58.6654 92.4538 58.4215 92.3604 58.1025 92.3604C57.7653 92.3604 57.4759 92.4538 57.2344 92.6406C56.9974 92.8275 56.8151 93.0736 56.6875 93.3789C56.5645 93.6797 56.5029 94.0055 56.5029 94.3564L56.5098 98C56.5098 98.1823 56.4414 98.3395 56.3047 98.4717C56.1725 98.5993 56.013 98.6631 55.8262 98.6631C55.6348 98.6631 55.473 98.597 55.3408 98.4648C55.2087 98.3327 55.1426 98.1755 55.1426 97.9932V94.3633C55.1426 93.9349 55.0697 93.5726 54.9238 93.2764C54.7826 92.9801 54.598 92.7568 54.3701 92.6064C54.1468 92.4515 53.9167 92.374 53.6797 92.374C53.3424 92.374 53.0394 92.5312 52.7705 92.8457C52.5016 93.1602 52.3672 93.6501 52.3672 94.3154V98C52.3672 98.1823 52.2988 98.3395 52.1621 98.4717C52.0299 98.5993 51.8704 98.6631 51.6836 98.6631C51.4967 98.6631 51.335 98.597 51.1982 98.4648C51.0661 98.3327 51 98.1755 51 97.9932V91.6699C51 91.4831 51.0342 91.3258 51.1025 91.1982C51.1755 91.0661 51.3076 91 51.499 91C51.6494 91 51.7884 91.0479 51.916 91.1436C52.0436 91.2393 52.1462 91.3988 52.2236 91.6221L52.3535 91.998C52.4993 91.6973 52.7227 91.458 53.0234 91.2803C53.3288 91.098 53.6341 91.0068 53.9395 91.0068Z" fill="#F6F6F6"/>
</g>
<g filter="url(#filter14_d_1004_747)">
<ellipse cx="18" cy="86.5" rx="15" ry="13.5" fill="#378F18"/>
<path d="M15.9395 83.0068C16.3815 83.0068 16.7689 83.1139 17.1016 83.3281C17.4388 83.5423 17.7145 83.8021 17.9287 84.1074C18.1839 83.8112 18.4915 83.5537 18.8516 83.335C19.2116 83.1117 19.6126 83 20.0547 83C20.638 83 21.1211 83.1572 21.5039 83.4717C21.8913 83.7816 22.1784 84.1895 22.3652 84.6953C22.5521 85.2012 22.6455 85.748 22.6455 86.3359L22.6523 89.9795C22.6523 90.1618 22.5863 90.319 22.4541 90.4512C22.3219 90.5833 22.1602 90.6494 21.9688 90.6494C21.7773 90.6494 21.6156 90.5833 21.4834 90.4512C21.3512 90.319 21.2852 90.1618 21.2852 89.9795L21.2783 86.3496C21.2783 86.0033 21.2464 85.6797 21.1826 85.3789C21.1188 85.0736 21.0026 84.8275 20.834 84.6406C20.6654 84.4538 20.4215 84.3604 20.1025 84.3604C19.7653 84.3604 19.4759 84.4538 19.2344 84.6406C18.9974 84.8275 18.8151 85.0736 18.6875 85.3789C18.5645 85.6797 18.5029 86.0055 18.5029 86.3564L18.5098 90C18.5098 90.1823 18.4414 90.3395 18.3047 90.4717C18.1725 90.5993 18.013 90.6631 17.8262 90.6631C17.6348 90.6631 17.473 90.597 17.3408 90.4648C17.2087 90.3327 17.1426 90.1755 17.1426 89.9932V86.3633C17.1426 85.9349 17.0697 85.5726 16.9238 85.2764C16.7826 84.9801 16.598 84.7568 16.3701 84.6064C16.1468 84.4515 15.9167 84.374 15.6797 84.374C15.3424 84.374 15.0394 84.5312 14.7705 84.8457C14.5016 85.1602 14.3672 85.6501 14.3672 86.3154V90C14.3672 90.1823 14.2988 90.3395 14.1621 90.4717C14.0299 90.5993 13.8704 90.6631 13.6836 90.6631C13.4967 90.6631 13.335 90.597 13.1982 90.4648C13.0661 90.3327 13 90.1755 13 89.9932V83.6699C13 83.4831 13.0342 83.3258 13.1025 83.1982C13.1755 83.0661 13.3076 83 13.499 83C13.6494 83 13.7884 83.0479 13.916 83.1436C14.0436 83.2393 14.1462 83.3988 14.2236 83.6221L14.3535 83.998C14.4993 83.6973 14.7227 83.458 15.0234 83.2803C15.3288 83.098 15.6341 83.0068 15.9395 83.0068Z" fill="#F6F6F6"/>
<g filter="url(#filter15_d_1004_747)">
<ellipse cx="31" cy="15.5" rx="15" ry="13.5" fill="#378F18"/>
<path d="M28.9395 12.0068C29.3815 12.0068 29.7689 12.1139 30.1016 12.3281C30.4388 12.5423 30.7145 12.8021 30.9287 13.1074C31.1839 12.8112 31.4915 12.5537 31.8516 12.335C32.2116 12.1117 32.6126 12 33.0547 12C33.638 12 34.1211 12.1572 34.5039 12.4717C34.8913 12.7816 35.1784 13.1895 35.3652 13.6953C35.5521 14.2012 35.6455 14.748 35.6455 15.3359L35.6523 18.9795C35.6523 19.1618 35.5863 19.319 35.4541 19.4512C35.3219 19.5833 35.1602 19.6494 34.9688 19.6494C34.7773 19.6494 34.6156 19.5833 34.4834 19.4512C34.3512 19.319 34.2852 19.1618 34.2852 18.9795L34.2783 15.3496C34.2783 15.0033 34.2464 14.6797 34.1826 14.3789C34.1188 14.0736 34.0026 13.8275 33.834 13.6406C33.6654 13.4538 33.4215 13.3604 33.1025 13.3604C32.7653 13.3604 32.4759 13.4538 32.2344 13.6406C31.9974 13.8275 31.8151 14.0736 31.6875 14.3789C31.5645 14.6797 31.5029 15.0055 31.5029 15.3564L31.5098 19C31.5098 19.1823 31.4414 19.3395 31.3047 19.4717C31.1725 19.5993 31.013 19.6631 30.8262 19.6631C30.6348 19.6631 30.473 19.597 30.3408 19.4648C30.2087 19.3327 30.1426 19.1755 30.1426 18.9932V15.3633C30.1426 14.9349 30.0697 14.5726 29.9238 14.2764C29.7826 13.9801 29.598 13.7568 29.3701 13.6064C29.1468 13.4515 28.9167 13.374 28.6797 13.374C28.3424 13.374 28.0394 13.5312 27.7705 13.8457C27.5016 14.1602 27.3672 14.6501 27.3672 15.3154V19C27.3672 19.1823 27.2988 19.3395 27.1621 19.4717C27.0299 19.5993 26.8704 19.6631 26.6836 19.6631C26.4967 19.6631 26.335 19.597 26.1982 19.4648C26.0661 19.3327 26 19.1755 26 18.9932V12.6699C26 12.4831 26.0342 12.3258 26.1025 12.1982C26.1755 12.0661 26.3076 12 26.499 12C26.6494 12 26.7884 12.0479 26.916 12.1436C27.0436 12.2393 27.1462 12.3988 27.2236 12.6221L27.3535 12.998C27.4993 12.6973 27.7227 12.458 28.0234 12.2803C28.3288 12.098 28.6341 12.0068 28.9395 12.0068Z" fill="#F6F6F6"/>
</g>
</g>
<g filter="url(#filter16_d_1004_747)">
<ellipse cx="46" cy="36.5" rx="15" ry="13.5" fill="#320A28"/>
<path d="M43.9395 33.0068C44.3815 33.0068 44.7689 33.1139 45.1016 33.3281C45.4388 33.5423 45.7145 33.8021 45.9287 34.1074C46.1839 33.8112 46.4915 33.5537 46.8516 33.335C47.2116 33.1117 47.6126 33 48.0547 33C48.638 33 49.1211 33.1572 49.5039 33.4717C49.8913 33.7816 50.1784 34.1895 50.3652 34.6953C50.5521 35.2012 50.6455 35.748 50.6455 36.3359L50.6523 39.9795C50.6523 40.1618 50.5863 40.319 50.4541 40.4512C50.3219 40.5833 50.1602 40.6494 49.9688 40.6494C49.7773 40.6494 49.6156 40.5833 49.4834 40.4512C49.3512 40.319 49.2852 40.1618 49.2852 39.9795L49.2783 36.3496C49.2783 36.0033 49.2464 35.6797 49.1826 35.3789C49.1188 35.0736 49.0026 34.8275 48.834 34.6406C48.6654 34.4538 48.4215 34.3604 48.1025 34.3604C47.7653 34.3604 47.4759 34.4538 47.2344 34.6406C46.9974 34.8275 46.8151 35.0736 46.6875 35.3789C46.5645 35.6797 46.5029 36.0055 46.5029 36.3564L46.5098 40C46.5098 40.1823 46.4414 40.3395 46.3047 40.4717C46.1725 40.5993 46.013 40.6631 45.8262 40.6631C45.6348 40.6631 45.473 40.597 45.3408 40.4648C45.2087 40.3327 45.1426 40.1755 45.1426 39.9932V36.3633C45.1426 35.9349 45.0697 35.5726 44.9238 35.2764C44.7826 34.9801 44.598 34.7568 44.3701 34.6064C44.1468 34.4515 43.9167 34.374 43.6797 34.374C43.3424 34.374 43.0394 34.5312 42.7705 34.8457C42.5016 35.1602 42.3672 35.6501 42.3672 36.3154V40C42.3672 40.1823 42.2988 40.3395 42.1621 40.4717C42.0299 40.5993 41.8704 40.6631 41.6836 40.6631C41.4967 40.6631 41.335 40.597 41.1982 40.4648C41.0661 40.3327 41 40.1755 41 39.9932V33.6699C41 33.4831 41.0342 33.3258 41.1025 33.1982C41.1755 33.0661 41.3076 33 41.499 33C41.6494 33 41.7884 33.0479 41.916 33.1436C42.0436 33.2393 42.1462 33.3988 42.2236 33.6221L42.3535 33.998C42.4993 33.6973 42.7227 33.458 43.0234 33.2803C43.3288 33.098 43.6341 33.0068 43.9395 33.0068Z" fill="#F6F6F6"/>
</g>
<g filter="url(#filter17_d_1004_747)">
<ellipse cx="6" cy="67.5" rx="15" ry="13.5" fill="#320A28"/>
<path d="M3.93945 64.0068C4.38151 64.0068 4.76888 64.1139 5.10156 64.3281C5.4388 64.5423 5.71452 64.8021 5.92871 65.1074C6.18392 64.8112 6.49154 64.5537 6.85156 64.335C7.21159 64.1117 7.61263 64 8.05469 64C8.63802 64 9.12109 64.1572 9.50391 64.4717C9.89128 64.7816 10.1784 65.1895 10.3652 65.6953C10.5521 66.2012 10.6455 66.748 10.6455 67.3359L10.6523 70.9795C10.6523 71.1618 10.5863 71.319 10.4541 71.4512C10.3219 71.5833 10.1602 71.6494 9.96875 71.6494C9.77734 71.6494 9.61556 71.5833 9.4834 71.4512C9.35124 71.319 9.28516 71.1618 9.28516 70.9795L9.27832 67.3496C9.27832 67.0033 9.24642 66.6797 9.18262 66.3789C9.11882 66.0736 9.0026 65.8275 8.83398 65.6406C8.66536 65.4538 8.42155 65.3604 8.10254 65.3604C7.7653 65.3604 7.47591 65.4538 7.23438 65.6406C6.9974 65.8275 6.8151 66.0736 6.6875 66.3789C6.56445 66.6797 6.50293 67.0055 6.50293 67.3564L6.50977 71C6.50977 71.1823 6.44141 71.3395 6.30469 71.4717C6.17253 71.5993 6.01302 71.6631 5.82617 71.6631C5.63477 71.6631 5.47298 71.597 5.34082 71.4648C5.20866 71.3327 5.14258 71.1755 5.14258 70.9932V67.3633C5.14258 66.9349 5.06966 66.5726 4.92383 66.2764C4.78255 65.9801 4.59798 65.7568 4.37012 65.6064C4.14681 65.4515 3.91667 65.374 3.67969 65.374C3.34245 65.374 3.03939 65.5312 2.77051 65.8457C2.50163 66.1602 2.36719 66.6501 2.36719 67.3154V71C2.36719 71.1823 2.29883 71.3395 2.16211 71.4717C2.02995 71.5993 1.87044 71.6631 1.68359 71.6631C1.49674 71.6631 1.33496 71.597 1.19824 71.4648C1.06608 71.3327 1 71.1755 1 70.9932V64.6699C1 64.4831 1.03418 64.3258 1.10254 64.1982C1.17546 64.0661 1.30762 64 1.49902 64C1.64941 64 1.78841 64.0479 1.91602 64.1436C2.04362 64.2393 2.14616 64.3988 2.22363 64.6221L2.35352 64.998C2.49935 64.6973 2.72266 64.458 3.02344 64.2803C3.32878 64.098 3.63411 64.0068 3.93945 64.0068Z" fill="#F6F6F6"/>
</g>
<g filter="url(#filter18_d_1004_747)">
<ellipse cx="99" cy="104.5" rx="15" ry="13.5" fill="#320A28"/>
<path d="M96.9395 101.007C97.3815 101.007 97.7689 101.114 98.1016 101.328C98.4388 101.542 98.7145 101.802 98.9287 102.107C99.1839 101.811 99.4915 101.554 99.8516 101.335C100.212 101.112 100.613 101 101.055 101C101.638 101 102.121 101.157 102.504 101.472C102.891 101.782 103.178 102.189 103.365 102.695C103.552 103.201 103.646 103.748 103.646 104.336L103.652 107.979C103.652 108.162 103.586 108.319 103.454 108.451C103.322 108.583 103.16 108.649 102.969 108.649C102.777 108.649 102.616 108.583 102.483 108.451C102.351 108.319 102.285 108.162 102.285 107.979L102.278 104.35C102.278 104.003 102.246 103.68 102.183 103.379C102.119 103.074 102.003 102.827 101.834 102.641C101.665 102.454 101.422 102.36 101.103 102.36C100.765 102.36 100.476 102.454 100.234 102.641C99.9974 102.827 99.8151 103.074 99.6875 103.379C99.5645 103.68 99.5029 104.006 99.5029 104.356L99.5098 108C99.5098 108.182 99.4414 108.34 99.3047 108.472C99.1725 108.599 99.013 108.663 98.8262 108.663C98.6348 108.663 98.473 108.597 98.3408 108.465C98.2087 108.333 98.1426 108.175 98.1426 107.993V104.363C98.1426 103.935 98.0697 103.573 97.9238 103.276C97.7826 102.98 97.598 102.757 97.3701 102.606C97.1468 102.451 96.9167 102.374 96.6797 102.374C96.3424 102.374 96.0394 102.531 95.7705 102.846C95.5016 103.16 95.3672 103.65 95.3672 104.315V108C95.3672 108.182 95.2988 108.34 95.1621 108.472C95.0299 108.599 94.8704 108.663 94.6836 108.663C94.4967 108.663 94.335 108.597 94.1982 108.465C94.0661 108.333 94 108.175 94 107.993V101.67C94 101.483 94.0342 101.326 94.1025 101.198C94.1755 101.066 94.3076 101 94.499 101C94.6494 101 94.7884 101.048 94.916 101.144C95.0436 101.239 95.1462 101.399 95.2236 101.622L95.3535 101.998C95.4993 101.697 95.7227 101.458 96.0234 101.28C96.3288 101.098 96.6341 101.007 96.9395 101.007Z" fill="#F6F6F6"/>
<g filter="url(#filter19_d_1004_747)">
<ellipse cx="28" cy="112.5" rx="15" ry="13.5" fill="#320A28"/>
<path d="M25.9395 109.007C26.3815 109.007 26.7689 109.114 27.1016 109.328C27.4388 109.542 27.7145 109.802 27.9287 110.107C28.1839 109.811 28.4915 109.554 28.8516 109.335C29.2116 109.112 29.6126 109 30.0547 109C30.638 109 31.1211 109.157 31.5039 109.472C31.8913 109.782 32.1784 110.189 32.3652 110.695C32.5521 111.201 32.6455 111.748 32.6455 112.336L32.6523 115.979C32.6523 116.162 32.5863 116.319 32.4541 116.451C32.3219 116.583 32.1602 116.649 31.9688 116.649C31.7773 116.649 31.6156 116.583 31.4834 116.451C31.3512 116.319 31.2852 116.162 31.2852 115.979L31.2783 112.35C31.2783 112.003 31.2464 111.68 31.1826 111.379C31.1188 111.074 31.0026 110.827 30.834 110.641C30.6654 110.454 30.4215 110.36 30.1025 110.36C29.7653 110.36 29.4759 110.454 29.2344 110.641C28.9974 110.827 28.8151 111.074 28.6875 111.379C28.5645 111.68 28.5029 112.006 28.5029 112.356L28.5098 116C28.5098 116.182 28.4414 116.34 28.3047 116.472C28.1725 116.599 28.013 116.663 27.8262 116.663C27.6348 116.663 27.473 116.597 27.3408 116.465C27.2087 116.333 27.1426 116.175 27.1426 115.993V112.363C27.1426 111.935 27.0697 111.573 26.9238 111.276C26.7826 110.98 26.598 110.757 26.3701 110.606C26.1468 110.451 25.9167 110.374 25.6797 110.374C25.3424 110.374 25.0394 110.531 24.7705 110.846C24.5016 111.16 24.3672 111.65 24.3672 112.315V116C24.3672 116.182 24.2988 116.34 24.1621 116.472C24.0299 116.599 23.8704 116.663 23.6836 116.663C23.4967 116.663 23.335 116.597 23.1982 116.465C23.0661 116.333 23 116.175 23 115.993V109.67C23 109.483 23.0342 109.326 23.1025 109.198C23.1755 109.066 23.3076 109 23.499 109C23.6494 109 23.7884 109.048 23.916 109.144C24.0436 109.239 24.1462 109.399 24.2236 109.622L24.3535 109.998C24.4993 109.697 24.7227 109.458 25.0234 109.28C25.3288 109.098 25.6341 109.007 25.9395 109.007Z" fill="#F6F6F6"/>
</g>
</g>
<g filter="url(#filter20_d_1004_747)">
<ellipse cx="79" cy="89.5" rx="15" ry="13.5" fill="#B83333"/>
<path d="M76.9395 86.0068C77.3815 86.0068 77.7689 86.1139 78.1016 86.3281C78.4388 86.5423 78.7145 86.8021 78.9287 87.1074C79.1839 86.8112 79.4915 86.5537 79.8516 86.335C80.2116 86.1117 80.6126 86 81.0547 86C81.638 86 82.1211 86.1572 82.5039 86.4717C82.8913 86.7816 83.1784 87.1895 83.3652 87.6953C83.5521 88.2012 83.6455 88.748 83.6455 89.3359L83.6523 92.9795C83.6523 93.1618 83.5863 93.319 83.4541 93.4512C83.3219 93.5833 83.1602 93.6494 82.9688 93.6494C82.7773 93.6494 82.6156 93.5833 82.4834 93.4512C82.3512 93.319 82.2852 93.1618 82.2852 92.9795L82.2783 89.3496C82.2783 89.0033 82.2464 88.6797 82.1826 88.3789C82.1188 88.0736 82.0026 87.8275 81.834 87.6406C81.6654 87.4538 81.4215 87.3604 81.1025 87.3604C80.7653 87.3604 80.4759 87.4538 80.2344 87.6406C79.9974 87.8275 79.8151 88.0736 79.6875 88.3789C79.5645 88.6797 79.5029 89.0055 79.5029 89.3564L79.5098 93C79.5098 93.1823 79.4414 93.3395 79.3047 93.4717C79.1725 93.5993 79.013 93.6631 78.8262 93.6631C78.6348 93.6631 78.473 93.597 78.3408 93.4648C78.2087 93.3327 78.1426 93.1755 78.1426 92.9932V89.3633C78.1426 88.9349 78.0697 88.5726 77.9238 88.2764C77.7826 87.9801 77.598 87.7568 77.3701 87.6064C77.1468 87.4515 76.9167 87.374 76.6797 87.374C76.3424 87.374 76.0394 87.5312 75.7705 87.8457C75.5016 88.1602 75.3672 88.6501 75.3672 89.3154V93C75.3672 93.1823 75.2988 93.3395 75.1621 93.4717C75.0299 93.5993 74.8704 93.6631 74.6836 93.6631C74.4967 93.6631 74.335 93.597 74.1982 93.4648C74.0661 93.3327 74 93.1755 74 92.9932V86.6699C74 86.4831 74.0342 86.3258 74.1025 86.1982C74.1755 86.0661 74.3076 86 74.499 86C74.6494 86 74.7884 86.0479 74.916 86.1436C75.0436 86.2393 75.1462 86.3988 75.2236 86.6221L75.3535 86.998C75.4993 86.6973 75.7227 86.458 76.0234 86.2803C76.3288 86.098 76.6341 86.0068 76.9395 86.0068Z" fill="#F6F6F6"/>
</g>
<g filter="url(#filter21_d_1004_747)">
<ellipse cx="131" cy="43.5" rx="15" ry="13.5" fill="#B83333"/>
<path d="M128.939 40.0068C129.382 40.0068 129.769 40.1139 130.102 40.3281C130.439 40.5423 130.715 40.8021 130.929 41.1074C131.184 40.8112 131.492 40.5537 131.852 40.335C132.212 40.1117 132.613 40 133.055 40C133.638 40 134.121 40.1572 134.504 40.4717C134.891 40.7816 135.178 41.1895 135.365 41.6953C135.552 42.2012 135.646 42.748 135.646 43.3359L135.652 46.9795C135.652 47.1618 135.586 47.319 135.454 47.4512C135.322 47.5833 135.16 47.6494 134.969 47.6494C134.777 47.6494 134.616 47.5833 134.483 47.4512C134.351 47.319 134.285 47.1618 134.285 46.9795L134.278 43.3496C134.278 43.0033 134.246 42.6797 134.183 42.3789C134.119 42.0736 134.003 41.8275 133.834 41.6406C133.665 41.4538 133.422 41.3604 133.103 41.3604C132.765 41.3604 132.476 41.4538 132.234 41.6406C131.997 41.8275 131.815 42.0736 131.688 42.3789C131.564 42.6797 131.503 43.0055 131.503 43.3564L131.51 47C131.51 47.1823 131.441 47.3395 131.305 47.4717C131.173 47.5993 131.013 47.6631 130.826 47.6631C130.635 47.6631 130.473 47.597 130.341 47.4648C130.209 47.3327 130.143 47.1755 130.143 46.9932V43.3633C130.143 42.9349 130.07 42.5726 129.924 42.2764C129.783 41.9801 129.598 41.7568 129.37 41.6064C129.147 41.4515 128.917 41.374 128.68 41.374C128.342 41.374 128.039 41.5312 127.771 41.8457C127.502 42.1602 127.367 42.6501 127.367 43.3154V47C127.367 47.1823 127.299 47.3395 127.162 47.4717C127.03 47.5993 126.87 47.6631 126.684 47.6631C126.497 47.6631 126.335 47.597 126.198 47.4648C126.066 47.3327 126 47.1755 126 46.9932V40.6699C126 40.4831 126.034 40.3258 126.103 40.1982C126.175 40.0661 126.308 40 126.499 40C126.649 40 126.788 40.0479 126.916 40.1436C127.044 40.2393 127.146 40.3988 127.224 40.6221L127.354 40.998C127.499 40.6973 127.723 40.458 128.023 40.2803C128.329 40.098 128.634 40.0068 128.939 40.0068Z" fill="#F6F6F6"/>
</g>
<g filter="url(#filter22_d_1004_747)">
<ellipse cx="76" cy="32.5" rx="15" ry="13.5" fill="#B83333"/>
<path d="M73.9395 29.0068C74.3815 29.0068 74.7689 29.1139 75.1016 29.3281C75.4388 29.5423 75.7145 29.8021 75.9287 30.1074C76.1839 29.8112 76.4915 29.5537 76.8516 29.335C77.2116 29.1117 77.6126 29 78.0547 29C78.638 29 79.1211 29.1572 79.5039 29.4717C79.8913 29.7816 80.1784 30.1895 80.3652 30.6953C80.5521 31.2012 80.6455 31.748 80.6455 32.3359L80.6523 35.9795C80.6523 36.1618 80.5863 36.319 80.4541 36.4512C80.3219 36.5833 80.1602 36.6494 79.9688 36.6494C79.7773 36.6494 79.6156 36.5833 79.4834 36.4512C79.3512 36.319 79.2852 36.1618 79.2852 35.9795L79.2783 32.3496C79.2783 32.0033 79.2464 31.6797 79.1826 31.3789C79.1188 31.0736 79.0026 30.8275 78.834 30.6406C78.6654 30.4538 78.4215 30.3604 78.1025 30.3604C77.7653 30.3604 77.4759 30.4538 77.2344 30.6406C76.9974 30.8275 76.8151 31.0736 76.6875 31.3789C76.5645 31.6797 76.5029 32.0055 76.5029 32.3564L76.5098 36C76.5098 36.1823 76.4414 36.3395 76.3047 36.4717C76.1725 36.5993 76.013 36.6631 75.8262 36.6631C75.6348 36.6631 75.473 36.597 75.3408 36.4648C75.2087 36.3327 75.1426 36.1755 75.1426 35.9932V32.3633C75.1426 31.9349 75.0697 31.5726 74.9238 31.2764C74.7826 30.9801 74.598 30.7568 74.3701 30.6064C74.1468 30.4515 73.9167 30.374 73.6797 30.374C73.3424 30.374 73.0394 30.5312 72.7705 30.8457C72.5016 31.1602 72.3672 31.6501 72.3672 32.3154V36C72.3672 36.1823 72.2988 36.3395 72.1621 36.4717C72.0299 36.5993 71.8704 36.6631 71.6836 36.6631C71.4967 36.6631 71.335 36.597 71.1982 36.4648C71.0661 36.3327 71 36.1755 71 35.9932V29.6699C71 29.4831 71.0342 29.3258 71.1025 29.1982C71.1755 29.0661 71.3076 29 71.499 29C71.6494 29 71.7884 29.0479 71.916 29.1436C72.0436 29.2393 72.1462 29.3988 72.2236 29.6221L72.3535 29.998C72.4993 29.6973 72.7227 29.458 73.0234 29.2803C73.3288 29.098 73.6341 29.0068 73.9395 29.0068Z" fill="#F6F6F6"/>
</g>
<g filter="url(#filter23_d_1004_747)">
<ellipse cx="28" cy="54.5" rx="15" ry="13.5" fill="#B83333"/>
<path d="M25.9395 51.0068C26.3815 51.0068 26.7689 51.1139 27.1016 51.3281C27.4388 51.5423 27.7145 51.8021 27.9287 52.1074C28.1839 51.8112 28.4915 51.5537 28.8516 51.335C29.2116 51.1117 29.6126 51 30.0547 51C30.638 51 31.1211 51.1572 31.5039 51.4717C31.8913 51.7816 32.1784 52.1895 32.3652 52.6953C32.5521 53.2012 32.6455 53.748 32.6455 54.3359L32.6523 57.9795C32.6523 58.1618 32.5863 58.319 32.4541 58.4512C32.3219 58.5833 32.1602 58.6494 31.9688 58.6494C31.7773 58.6494 31.6156 58.5833 31.4834 58.4512C31.3512 58.319 31.2852 58.1618 31.2852 57.9795L31.2783 54.3496C31.2783 54.0033 31.2464 53.6797 31.1826 53.3789C31.1188 53.0736 31.0026 52.8275 30.834 52.6406C30.6654 52.4538 30.4215 52.3604 30.1025 52.3604C29.7653 52.3604 29.4759 52.4538 29.2344 52.6406C28.9974 52.8275 28.8151 53.0736 28.6875 53.3789C28.5645 53.6797 28.5029 54.0055 28.5029 54.3564L28.5098 58C28.5098 58.1823 28.4414 58.3395 28.3047 58.4717C28.1725 58.5993 28.013 58.6631 27.8262 58.6631C27.6348 58.6631 27.473 58.597 27.3408 58.4648C27.2087 58.3327 27.1426 58.1755 27.1426 57.9932V54.3633C27.1426 53.9349 27.0697 53.5726 26.9238 53.2764C26.7826 52.9801 26.598 52.7568 26.3701 52.6064C26.1468 52.4515 25.9167 52.374 25.6797 52.374C25.3424 52.374 25.0394 52.5312 24.7705 52.8457C24.5016 53.1602 24.3672 53.6501 24.3672 54.3154V58C24.3672 58.1823 24.2988 58.3395 24.1621 58.4717C24.0299 58.5993 23.8704 58.6631 23.6836 58.6631C23.4967 58.6631 23.335 58.597 23.1982 58.4648C23.0661 58.3327 23 58.1755 23 57.9932V51.6699C23 51.4831 23.0342 51.3258 23.1025 51.1982C23.1755 51.0661 23.3076 51 23.499 51C23.6494 51 23.7884 51.0479 23.916 51.1436C24.0436 51.2393 24.1462 51.3988 24.2236 51.6221L24.3535 51.998C24.4993 51.6973 24.7227 51.458 25.0234 51.2803C25.3288 51.098 25.6341 51.0068 25.9395 51.0068Z" fill="#F6F6F6"/>
<g filter="url(#filter24_d_1004_747)">
<ellipse cx="59" cy="118.5" rx="15" ry="13.5" fill="#B83333"/>
<path d="M56.9395 115.007C57.3815 115.007 57.7689 115.114 58.1016 115.328C58.4388 115.542 58.7145 115.802 58.9287 116.107C59.1839 115.811 59.4915 115.554 59.8516 115.335C60.2116 115.112 60.6126 115 61.0547 115C61.638 115 62.1211 115.157 62.5039 115.472C62.8913 115.782 63.1784 116.189 63.3652 116.695C63.5521 117.201 63.6455 117.748 63.6455 118.336L63.6523 121.979C63.6523 122.162 63.5863 122.319 63.4541 122.451C63.3219 122.583 63.1602 122.649 62.9688 122.649C62.7773 122.649 62.6156 122.583 62.4834 122.451C62.3512 122.319 62.2852 122.162 62.2852 121.979L62.2783 118.35C62.2783 118.003 62.2464 117.68 62.1826 117.379C62.1188 117.074 62.0026 116.827 61.834 116.641C61.6654 116.454 61.4215 116.36 61.1025 116.36C60.7653 116.36 60.4759 116.454 60.2344 116.641C59.9974 116.827 59.8151 117.074 59.6875 117.379C59.5645 117.68 59.5029 118.006 59.5029 118.356L59.5098 122C59.5098 122.182 59.4414 122.34 59.3047 122.472C59.1725 122.599 59.013 122.663 58.8262 122.663C58.6348 122.663 58.473 122.597 58.3408 122.465C58.2087 122.333 58.1426 122.175 58.1426 121.993V118.363C58.1426 117.935 58.0697 117.573 57.9238 117.276C57.7826 116.98 57.598 116.757 57.3701 116.606C57.1468 116.451 56.9167 116.374 56.6797 116.374C56.3424 116.374 56.0394 116.531 55.7705 116.846C55.5016 117.16 55.3672 117.65 55.3672 118.315V122C55.3672 122.182 55.2988 122.34 55.1621 122.472C55.0299 122.599 54.8704 122.663 54.6836 122.663C54.4967 122.663 54.335 122.597 54.1982 122.465C54.0661 122.333 54 122.175 54 121.993V115.67C54 115.483 54.0342 115.326 54.1025 115.198C54.1755 115.066 54.3076 115 54.499 115C54.6494 115 54.7884 115.048 54.916 115.144C55.0436 115.239 55.1462 115.399 55.2236 115.622L55.3535 115.998C55.4993 115.697 55.7227 115.458 56.0234 115.28C56.3288 115.098 56.6341 115.007 56.9395 115.007Z" fill="#F6F6F6"/>
</g>
</g>
</g>
<defs>
<filter id="filter0_d_1004_747" x="50" y="45" width="38" height="35" filterUnits="userSpaceOnUse" color-interpolation-filters="sRGB">
<feFlood flood-opacity="0" result="BackgroundImageFix"/>
<feColorMatrix in="SourceAlpha" type="matrix" values="0 0 0 0 0 0 0 0 0 0 0 0 0 0 0 0 0 0 127 0" result="hardAlpha"/>
<feOffset dy="4"/>
<feGaussianBlur stdDeviation="2"/>
<feComposite in2="hardAlpha" operator="out"/>
<feColorMatrix type="matrix" values="0 0 0 0 0 0 0 0 0 0 0 0 0 0 0 0 0 0 0.25 0"/>
<feBlend mode="normal" in2="BackgroundImageFix" result="effect1_dropShadow_1004_747"/>
<feBlend mode="normal" in="SourceGraphic" in2="effect1_dropShadow_1004_747" result="shape"/>
</filter>
<filter id="filter1_d_1004_747" x="77" y="63" width="38" height="35" filterUnits="userSpaceOnUse" color-interpolation-filters="sRGB">
<feFlood flood-opacity="0" result="BackgroundImageFix"/>
<feColorMatrix in="SourceAlpha" type="matrix" values="0 0 0 0 0 0 0 0 0 0 0 0 0 0 0 0 0 0 127 0" result="hardAlpha"/>
<feOffset dy="4"/>
<feGaussianBlur stdDeviation="2"/>
<feComposite in2="hardAlpha" operator="out"/>
<feColorMatrix type="matrix" values="0 0 0 0 0 0 0 0 0 0 0 0 0 0 0 0 0 0 0.25 0"/>
<feBlend mode="normal" in2="BackgroundImageFix" result="effect1_dropShadow_1004_747"/>
<feBlend mode="normal" in="SourceGraphic" in2="effect1_dropShadow_1004_747" result="shape"/>
</filter>
<filter id="filter2_d_1004_747" x="-16" y="6" width="154" height="132" filterUnits="userSpaceOnUse" color-interpolation-filters="sRGB">
<feFlood flood-opacity="0" result="BackgroundImageFix"/>
<feColorMatrix in="SourceAlpha" type="matrix" values="0 0 0 0 0 0 0 0 0 0 0 0 0 0 0 0 0 0 127 0" result="hardAlpha"/>
<feOffset dy="4"/>
<feGaussianBlur stdDeviation="2"/>
<feComposite in2="hardAlpha" operator="out"/>
<feColorMatrix type="matrix" values="0 0 0 0 0 0 0 0 0 0 0 0 0 0 0 0 0 0 0.25 0"/>
<feBlend mode="normal" in2="BackgroundImageFix" result="effect1_dropShadow_1004_747"/>
<feBlend mode="normal" in="SourceGraphic" in2="effect1_dropShadow_1004_747" result="shape"/>
</filter>
<filter id="filter3_d_1004_747" x="-16" y="6" width="151" height="125" filterUnits="userSpaceOnUse" color-interpolation-filters="sRGB">
<feFlood flood-opacity="0" result="BackgroundImageFix"/>
<feColorMatrix in="SourceAlpha" type="matrix" values="0 0 0 0 0 0 0 0 0 0 0 0 0 0 0 0 0 0 127 0" result="hardAlpha"/>
<feOffset dy="4"/>
<feGaussianBlur stdDeviation="2"/>
<feComposite in2="hardAlpha" operator="out"/>
<feColorMatrix type="matrix" values="0 0 0 0 0 0 0 0 0 0 0 0 0 0 0 0 0 0 0.25 0"/>
<feBlend mode="normal" in2="BackgroundImageFix" result="effect1_dropShadow_1004_747"/>
<feBlend mode="normal" in="SourceGraphic" in2="effect1_dropShadow_1004_747" result="shape"/>
</filter>
<filter id="filter4_d_1004_747" x="-16" y="20" width="46" height="111" filterUnits="userSpaceOnUse" color-interpolation-filters="sRGB">
<feFlood flood-opacity="0" result="BackgroundImageFix"/>
<feColorMatrix in="SourceAlpha" type="matrix" values="0 0 0 0 0 0 0 0 0 0 0 0 0 0 0 0 0 0 127 0" result="hardAlpha"/>
<feOffset dy="4"/>
<feGaussianBlur stdDeviation="2"/>
<feComposite in2="hardAlpha" operator="out"/>
<feColorMatrix type="matrix" values="0 0 0 0 0 0 0 0 0 0 0 0 0 0 0 0 0 0 0.25 0"/>
<feBlend mode="normal" in2="BackgroundImageFix" result="effect1_dropShadow_1004_747"/>
<feBlend mode="normal" in="SourceGraphic" in2="effect1_dropShadow_1004_747" result="shape"/>
</filter>
<filter id="filter5_d_1004_747" x="-16" y="96" width="38" height="35" filterUnits="userSpaceOnUse" color-interpolation-filters="sRGB">
<feFlood flood-opacity="0" result="BackgroundImageFix"/>
<feColorMatrix in="SourceAlpha" type="matrix" values="0 0 0 0 0 0 0 0 0 0 0 0 0 0 0 0 0 0 127 0" result="hardAlpha"/>
<feOffset dy="4"/>
<feGaussianBlur stdDeviation="2"/>
<feComposite in2="hardAlpha" operator="out"/>
<feColorMatrix type="matrix" values="0 0 0 0 0 0 0 0 0 0 0 0 0 0 0 0 0 0 0.25 0"/>
<feBlend mode="normal" in2="BackgroundImageFix" result="effect1_dropShadow_1004_747"/>
<feBlend mode="normal" in="SourceGraphic" in2="effect1_dropShadow_1004_747" result="shape"/>
</filter>
<filter id="filter6_d_1004_747" x="27" y="62" width="38" height="35" filterUnits="userSpaceOnUse" color-interpolation-filters="sRGB">
<feFlood flood-opacity="0" result="BackgroundImageFix"/>
<feColorMatrix in="SourceAlpha" type="matrix" values="0 0 0 0 0 0 0 0 0 0 0 0 0 0 0 0 0 0 127 0" result="hardAlpha"/>
<feOffset dy="4"/>
<feGaussianBlur stdDeviation="2"/>
<feComposite in2="hardAlpha" operator="out"/>
<feColorMatrix type="matrix" values="0 0 0 0 0 0 0 0 0 0 0 0 0 0 0 0 0 0 0.25 0"/>
<feBlend mode="normal" in2="BackgroundImageFix" result="effect1_dropShadow_1004_747"/>
<feBlend mode="normal" in="SourceGraphic" in2="effect1_dropShadow_1004_747" result="shape"/>
</filter>
<filter id="filter7_d_1004_747" x="64" y="73" width="76" height="72" filterUnits="userSpaceOnUse" color-interpolation-filters="sRGB">
<feFlood flood-opacity="0" result="BackgroundImageFix"/>
<feColorMatrix in="SourceAlpha" type="matrix" values="0 0 0 0 0 0 0 0 0 0 0 0 0 0 0 0 0 0 127 0" result="hardAlpha"/>
<feOffset dy="4"/>
<feGaussianBlur stdDeviation="2"/>
<feComposite in2="hardAlpha" operator="out"/>
<feColorMatrix type="matrix" values="0 0 0 0 0 0 0 0 0 0 0 0 0 0 0 0 0 0 0.25 0"/>
<feBlend mode="normal" in2="BackgroundImageFix" result="effect1_dropShadow_1004_747"/>
<feBlend mode="normal" in="SourceGraphic" in2="effect1_dropShadow_1004_747" result="shape"/>
</filter>
<filter id="filter8_d_1004_747" x="102" y="73" width="38" height="35" filterUnits="userSpaceOnUse" color-interpolation-filters="sRGB">
<feFlood flood-opacity="0" result="BackgroundImageFix"/>
<feColorMatrix in="SourceAlpha" type="matrix" values="0 0 0 0 0 0 0 0 0 0 0 0 0 0 0 0 0 0 127 0" result="hardAlpha"/>
<feOffset dy="4"/>
<feGaussianBlur stdDeviation="2"/>
<feComposite in2="hardAlpha" operator="out"/>
<feColorMatrix type="matrix" values="0 0 0 0 0 0 0 0 0 0 0 0 0 0 0 0 0 0 0.25 0"/>
<feBlend mode="normal" in2="BackgroundImageFix" result="effect1_dropShadow_1004_747"/>
<feBlend mode="normal" in="SourceGraphic" in2="effect1_dropShadow_1004_747" result="shape"/>
</filter>
<filter id="filter9_d_1004_747" x="42" y="5" width="86" height="75" filterUnits="userSpaceOnUse" color-interpolation-filters="sRGB">
<feFlood flood-opacity="0" result="BackgroundImageFix"/>
<feColorMatrix in="SourceAlpha" type="matrix" values="0 0 0 0 0 0 0 0 0 0 0 0 0 0 0 0 0 0 127 0" result="hardAlpha"/>
<feOffset dy="4"/>
<feGaussianBlur stdDeviation="2"/>
<feComposite in2="hardAlpha" operator="out"/>
<feColorMatrix type="matrix" values="0 0 0 0 0 0 0 0 0 0 0 0 0 0 0 0 0 0 0.25 0"/>
<feBlend mode="normal" in2="BackgroundImageFix" result="effect1_dropShadow_1004_747"/>
<feBlend mode="normal" in="SourceGraphic" in2="effect1_dropShadow_1004_747" result="shape"/>
</filter>
<filter id="filter10_d_1004_747" x="42" y="5" width="38" height="35" filterUnits="userSpaceOnUse" color-interpolation-filters="sRGB">
<feFlood flood-opacity="0" result="BackgroundImageFix"/>
<feColorMatrix in="SourceAlpha" type="matrix" values="0 0 0 0 0 0 0 0 0 0 0 0 0 0 0 0 0 0 127 0" result="hardAlpha"/>
<feOffset dy="4"/>
<feGaussianBlur stdDeviation="2"/>
<feComposite in2="hardAlpha" operator="out"/>
<feColorMatrix type="matrix" values="0 0 0 0 0 0 0 0 0 0 0 0 0 0 0 0 0 0 0.25 0"/>
<feBlend mode="normal" in2="BackgroundImageFix" result="effect1_dropShadow_1004_747"/>
<feBlend mode="normal" in="SourceGraphic" in2="effect1_dropShadow_1004_747" result="shape"/>
</filter>
<filter id="filter11_d_1004_747" x="80" y="23" width="38" height="35" filterUnits="userSpaceOnUse" color-interpolation-filters="sRGB">
<feFlood flood-opacity="0" result="BackgroundImageFix"/>
<feColorMatrix in="SourceAlpha" type="matrix" values="0 0 0 0 0 0 0 0 0 0 0 0 0 0 0 0 0 0 127 0" result="hardAlpha"/>
<feOffset dy="4"/>
<feGaussianBlur stdDeviation="2"/>
<feComposite in2="hardAlpha" operator="out"/>
<feColorMatrix type="matrix" values="0 0 0 0 0 0 0 0 0 0 0 0 0 0 0 0 0 0 0.25 0"/>
<feBlend mode="normal" in2="BackgroundImageFix" result="effect1_dropShadow_1004_747"/>
<feBlend mode="normal" in="SourceGraphic" in2="effect1_dropShadow_1004_747" result="shape"/>
</filter>
<filter id="filter12_d_1004_747" x="75" y="-4" width="38" height="35" filterUnits="userSpaceOnUse" color-interpolation-filters="sRGB">
<feFlood flood-opacity="0" result="BackgroundImageFix"/>
<feColorMatrix in="SourceAlpha" type="matrix" values="0 0 0 0 0 0 0 0 0 0 0 0 0 0 0 0 0 0 127 0" result="hardAlpha"/>
<feOffset dy="4"/>
<feGaussianBlur stdDeviation="2"/>
<feComposite in2="hardAlpha" operator="out"/>
<feColorMatrix type="matrix" values="0 0 0 0 0 0 0 0 0 0 0 0 0 0 0 0 0 0 0.25 0"/>
<feBlend mode="normal" in2="BackgroundImageFix" result="effect1_dropShadow_1004_747"/>
<feBlend mode="normal" in="SourceGraphic" in2="effect1_dropShadow_1004_747" result="shape"/>
</filter>
<filter id="filter13_d_1004_747" x="37" y="81" width="38" height="35" filterUnits="userSpaceOnUse" color-interpolation-filters="sRGB">
<feFlood flood-opacity="0" result="BackgroundImageFix"/>
<feColorMatrix in="SourceAlpha" type="matrix" values="0 0 0 0 0 0 0 0 0 0 0 0 0 0 0 0 0 0 127 0" result="hardAlpha"/>
<feOffset dy="4"/>
<feGaussianBlur stdDeviation="2"/>
<feComposite in2="hardAlpha" operator="out"/>
<feColorMatrix type="matrix" values="0 0 0 0 0 0 0 0 0 0 0 0 0 0 0 0 0 0 0.25 0"/>
<feBlend mode="normal" in2="BackgroundImageFix" result="effect1_dropShadow_1004_747"/>
<feBlend mode="normal" in="SourceGraphic" in2="effect1_dropShadow_1004_747" result="shape"/>
</filter>
<filter id="filter14_d_1004_747" x="-1" y="2" width="51" height="106" filterUnits="userSpaceOnUse" color-interpolation-filters="sRGB">
<feFlood flood-opacity="0" result="BackgroundImageFix"/>
<feColorMatrix in="SourceAlpha" type="matrix" values="0 0 0 0 0 0 0 0 0 0 0 0 0 0 0 0 0 0 127 0" result="hardAlpha"/>
<feOffset dy="4"/>
<feGaussianBlur stdDeviation="2"/>
<feComposite in2="hardAlpha" operator="out"/>
<feColorMatrix type="matrix" values="0 0 0 0 0 0 0 0 0 0 0 0 0 0 0 0 0 0 0.25 0"/>
<feBlend mode="normal" in2="BackgroundImageFix" result="effect1_dropShadow_1004_747"/>
<feBlend mode="normal" in="SourceGraphic" in2="effect1_dropShadow_1004_747" result="shape"/>
</filter>
<filter id="filter15_d_1004_747" x="12" y="2" width="38" height="35" filterUnits="userSpaceOnUse" color-interpolation-filters="sRGB">
<feFlood flood-opacity="0" result="BackgroundImageFix"/>
<feColorMatrix in="SourceAlpha" type="matrix" values="0 0 0 0 0 0 0 0 0 0 0 0 0 0 0 0 0 0 127 0" result="hardAlpha"/>
<feOffset dy="4"/>
<feGaussianBlur stdDeviation="2"/>
<feComposite in2="hardAlpha" operator="out"/>
<feColorMatrix type="matrix" values="0 0 0 0 0 0 0 0 0 0 0 0 0 0 0 0 0 0 0.25 0"/>
<feBlend mode="normal" in2="BackgroundImageFix" result="effect1_dropShadow_1004_747"/>
<feBlend mode="normal" in="SourceGraphic" in2="effect1_dropShadow_1004_747" result="shape"/>
</filter>
<filter id="filter16_d_1004_747" x="27" y="23" width="38" height="35" filterUnits="userSpaceOnUse" color-interpolation-filters="sRGB">
<feFlood flood-opacity="0" result="BackgroundImageFix"/>
<feColorMatrix in="SourceAlpha" type="matrix" values="0 0 0 0 0 0 0 0 0 0 0 0 0 0 0 0 0 0 127 0" result="hardAlpha"/>
<feOffset dy="4"/>
<feGaussianBlur stdDeviation="2"/>
<feComposite in2="hardAlpha" operator="out"/>
<feColorMatrix type="matrix" values="0 0 0 0 0 0 0 0 0 0 0 0 0 0 0 0 0 0 0.25 0"/>
<feBlend mode="normal" in2="BackgroundImageFix" result="effect1_dropShadow_1004_747"/>
<feBlend mode="normal" in="SourceGraphic" in2="effect1_dropShadow_1004_747" result="shape"/>
</filter>
<filter id="filter17_d_1004_747" x="-13" y="54" width="38" height="35" filterUnits="userSpaceOnUse" color-interpolation-filters="sRGB">
<feFlood flood-opacity="0" result="BackgroundImageFix"/>
<feColorMatrix in="SourceAlpha" type="matrix" values="0 0 0 0 0 0 0 0 0 0 0 0 0 0 0 0 0 0 127 0" result="hardAlpha"/>
<feOffset dy="4"/>
<feGaussianBlur stdDeviation="2"/>
<feComposite in2="hardAlpha" operator="out"/>
<feColorMatrix type="matrix" values="0 0 0 0 0 0 0 0 0 0 0 0 0 0 0 0 0 0 0.25 0"/>
<feBlend mode="normal" in2="BackgroundImageFix" result="effect1_dropShadow_1004_747"/>
<feBlend mode="normal" in="SourceGraphic" in2="effect1_dropShadow_1004_747" result="shape"/>
</filter>
<filter id="filter18_d_1004_747" x="9" y="91" width="109" height="43" filterUnits="userSpaceOnUse" color-interpolation-filters="sRGB">
<feFlood flood-opacity="0" result="BackgroundImageFix"/>
<feColorMatrix in="SourceAlpha" type="matrix" values="0 0 0 0 0 0 0 0 0 0 0 0 0 0 0 0 0 0 127 0" result="hardAlpha"/>
<feOffset dy="4"/>
<feGaussianBlur stdDeviation="2"/>
<feComposite in2="hardAlpha" operator="out"/>
<feColorMatrix type="matrix" values="0 0 0 0 0 0 0 0 0 0 0 0 0 0 0 0 0 0 0.25 0"/>
<feBlend mode="normal" in2="BackgroundImageFix" result="effect1_dropShadow_1004_747"/>
<feBlend mode="normal" in="SourceGraphic" in2="effect1_dropShadow_1004_747" result="shape"/>
</filter>
<filter id="filter19_d_1004_747" x="9" y="99" width="38" height="35" filterUnits="userSpaceOnUse" color-interpolation-filters="sRGB">
<feFlood flood-opacity="0" result="BackgroundImageFix"/>
<feColorMatrix in="SourceAlpha" type="matrix" values="0 0 0 0 0 0 0 0 0 0 0 0 0 0 0 0 0 0 127 0" result="hardAlpha"/>
<feOffset dy="4"/>
<feGaussianBlur stdDeviation="2"/>
<feComposite in2="hardAlpha" operator="out"/>
<feColorMatrix type="matrix" values="0 0 0 0 0 0 0 0 0 0 0 0 0 0 0 0 0 0 0.25 0"/>
<feBlend mode="normal" in2="BackgroundImageFix" result="effect1_dropShadow_1004_747"/>
<feBlend mode="normal" in="SourceGraphic" in2="effect1_dropShadow_1004_747" result="shape"/>
</filter>
<filter id="filter20_d_1004_747" x="60" y="76" width="38" height="35" filterUnits="userSpaceOnUse" color-interpolation-filters="sRGB">
<feFlood flood-opacity="0" result="BackgroundImageFix"/>
<feColorMatrix in="SourceAlpha" type="matrix" values="0 0 0 0 0 0 0 0 0 0 0 0 0 0 0 0 0 0 127 0" result="hardAlpha"/>
<feOffset dy="4"/>
<feGaussianBlur stdDeviation="2"/>
<feComposite in2="hardAlpha" operator="out"/>
<feColorMatrix type="matrix" values="0 0 0 0 0 0 0 0 0 0 0 0 0 0 0 0 0 0 0.25 0"/>
<feBlend mode="normal" in2="BackgroundImageFix" result="effect1_dropShadow_1004_747"/>
<feBlend mode="normal" in="SourceGraphic" in2="effect1_dropShadow_1004_747" result="shape"/>
</filter>
<filter id="filter21_d_1004_747" x="112" y="30" width="38" height="35" filterUnits="userSpaceOnUse" color-interpolation-filters="sRGB">
<feFlood flood-opacity="0" result="BackgroundImageFix"/>
<feColorMatrix in="SourceAlpha" type="matrix" values="0 0 0 0 0 0 0 0 0 0 0 0 0 0 0 0 0 0 127 0" result="hardAlpha"/>
<feOffset dy="4"/>
<feGaussianBlur stdDeviation="2"/>
<feComposite in2="hardAlpha" operator="out"/>
<feColorMatrix type="matrix" values="0 0 0 0 0 0 0 0 0 0 0 0 0 0 0 0 0 0 0.25 0"/>
<feBlend mode="normal" in2="BackgroundImageFix" result="effect1_dropShadow_1004_747"/>
<feBlend mode="normal" in="SourceGraphic" in2="effect1_dropShadow_1004_747" result="shape"/>
</filter>
<filter id="filter22_d_1004_747" x="57" y="19" width="38" height="35" filterUnits="userSpaceOnUse" color-interpolation-filters="sRGB">
<feFlood flood-opacity="0" result="BackgroundImageFix"/>
<feColorMatrix in="SourceAlpha" type="matrix" values="0 0 0 0 0 0 0 0 0 0 0 0 0 0 0 0 0 0 127 0" result="hardAlpha"/>
<feOffset dy="4"/>
<feGaussianBlur stdDeviation="2"/>
<feComposite in2="hardAlpha" operator="out"/>
<feColorMatrix type="matrix" values="0 0 0 0 0 0 0 0 0 0 0 0 0 0 0 0 0 0 0.25 0"/>
<feBlend mode="normal" in2="BackgroundImageFix" result="effect1_dropShadow_1004_747"/>
<feBlend mode="normal" in="SourceGraphic" in2="effect1_dropShadow_1004_747" result="shape"/>
</filter>
<filter id="filter23_d_1004_747" x="9" y="41" width="69" height="99" filterUnits="userSpaceOnUse" color-interpolation-filters="sRGB">
<feFlood flood-opacity="0" result="BackgroundImageFix"/>
<feColorMatrix in="SourceAlpha" type="matrix" values="0 0 0 0 0 0 0 0 0 0 0 0 0 0 0 0 0 0 127 0" result="hardAlpha"/>
<feOffset dy="4"/>
<feGaussianBlur stdDeviation="2"/>
<feComposite in2="hardAlpha" operator="out"/>
<feColorMatrix type="matrix" values="0 0 0 0 0 0 0 0 0 0 0 0 0 0 0 0 0 0 0.25 0"/>
<feBlend mode="normal" in2="BackgroundImageFix" result="effect1_dropShadow_1004_747"/>
<feBlend mode="normal" in="SourceGraphic" in2="effect1_dropShadow_1004_747" result="shape"/>
</filter>
<filter id="filter24_d_1004_747" x="40" y="105" width="38" height="35" filterUnits="userSpaceOnUse" color-interpolation-filters="sRGB">
<feFlood flood-opacity="0" result="BackgroundImageFix"/>
<feColorMatrix in="SourceAlpha" type="matrix" values="0 0 0 0 0 0 0 0 0 0 0 0 0 0 0 0 0 0 127 0" result="hardAlpha"/>
<feOffset dy="4"/>
<feGaussianBlur stdDeviation="2"/>
<feComposite in2="hardAlpha" operator="out"/>
<feColorMatrix type="matrix" values="0 0 0 0 0 0 0 0 0 0 0 0 0 0 0 0 0 0 0.25 0"/>
<feBlend mode="normal" in2="BackgroundImageFix" result="effect1_dropShadow_1004_747"/>
<feBlend mode="normal" in="SourceGraphic" in2="effect1_dropShadow_1004_747" result="shape"/>
</filter>
</defs>
</svg>
