<svg width="678" height="678" viewBox="0 0 678 678" fill="none" xmlns="http://www.w3.org/2000/svg">
<mask id="mask0_1004_1298" style="mask-type:alpha" maskUnits="userSpaceOnUse" x="0" y="0" width="678" height="678">
<path d="M678 339C678 434.298 620.305 554.411 557 616C495.935 675.41 430.927 678 339 678C241.28 678 153.218 636.653 91.3519 570.5C34.6871 509.908 0 428.505 0 339C0 241.774 44.4303 124.816 110 63C170.695 5.77963 249.002 0 339 0C447.374 0 563.943 45.8537 626 125C671.152 182.586 678 260.149 678 339Z" fill="#E3BC8C"/>
</mask>
<g mask="url(#mask0_1004_1298)">
<path d="M678 339C678 434.298 620.305 554.411 557 616C495.935 675.41 430.927 678 339 678C241.28 678 153.218 636.653 91.3519 570.5C34.6871 509.908 0 428.505 0 339C0 241.774 44.4303 124.816 110 63C170.695 5.77963 249.002 0 339 0C447.374 0 563.943 45.8537 626 125C671.152 182.586 678 260.149 678 339Z" fill="#E3BC8C"/>
<line x1="236.151" y1="39.5523" x2="219.442" y2="56.262" stroke="#FF9AB2" stroke-width="8.82759" stroke-linecap="round"/>
<line x1="4.41379" y1="-4.41379" x2="28.0448" y2="-4.41379" transform="matrix(-0.707107 -0.707107 -0.707107 0.707107 305.007 116.29)" stroke="#FF9AB2" stroke-width="8.82759" stroke-linecap="round"/>
<line x1="4.41379" y1="-4.41379" x2="28.0448" y2="-4.41379" transform="matrix(-0.707107 -0.707107 -0.707107 0.707107 271.462 45.6689)" stroke="#FF9AB2" stroke-width="8.82759" stroke-linecap="round"/>
<line x1="264.4" y1="76.6283" x2="247.691" y2="93.338" stroke="#FFECBE" stroke-width="8.82759" stroke-linecap="round"/>
<line x1="312.97" y1="47.1873" x2="289.664" y2="51.0961" stroke="#72ABEF" stroke-width="8.82759" stroke-linecap="round"/>
<line x1="335.021" y1="73.0973" x2="318.311" y2="89.8069" stroke="#FFECBE" stroke-width="8.82759" stroke-linecap="round"/>
<line x1="4.41379" y1="-4.41379" x2="28.0448" y2="-4.41379" transform="matrix(-0.707107 -0.707107 -0.707107 0.707107 403.876 149.834)" stroke="#FFECBE" stroke-width="8.82759" stroke-linecap="round"/>
<line x1="4.41379" y1="-4.41379" x2="28.0448" y2="-4.41379" transform="matrix(-0.707107 -0.707107 -0.707107 0.707107 370.331 79.2139)" stroke="#72ABEF" stroke-width="8.82759" stroke-linecap="round"/>
<line x1="364.384" y1="114.708" x2="342.741" y2="124.194" stroke="#FFECBE" stroke-width="8.82759" stroke-linecap="round"/>
<line x1="4.41379" y1="-4.41379" x2="28.0448" y2="-4.41379" transform="matrix(-0.707107 -0.707107 -0.707107 0.707107 333.255 28.0137)" stroke="#72ABEF" stroke-width="8.82759" stroke-linecap="round"/>
<line x1="222.864" y1="3.5984" x2="215.268" y2="25.9751" stroke="#72ABEF" stroke-width="8.82759" stroke-linecap="round"/>
<line x1="4.41379" y1="-4.41379" x2="28.0448" y2="-4.41379" transform="matrix(-0.707107 -0.707107 -0.707107 0.707107 432.124 61.5586)" stroke="#FFECBE" stroke-width="8.82759" stroke-linecap="round"/>
<line x1="4.41379" y1="-4.41379" x2="28.0448" y2="-4.41379" transform="matrix(-0.880342 -0.47434 -0.47434 0.880342 199.4 64.5964)" stroke="#FFECBE" stroke-width="8.82759" stroke-linecap="round"/>
<line x1="392.633" y1="26.4325" x2="370.989" y2="35.9184" stroke="#FF9AB2" stroke-width="8.82759" stroke-linecap="round"/>
<line x1="4.41379" y1="-4.41379" x2="28.0448" y2="-4.41379" transform="matrix(-0.179651 -0.98373 -0.98373 0.179651 215.234 235.542)" stroke="#FFECBE" stroke-width="8.82759" stroke-linecap="round"/>
<line x1="259.104" y1="231.994" x2="242.394" y2="248.703" stroke="#FF9AB2" stroke-width="8.82759" stroke-linecap="round"/>
<line x1="4.41379" y1="-4.41379" x2="28.0448" y2="-4.41379" transform="matrix(-0.707107 -0.707107 -0.707107 0.707107 357.973 254)" stroke="#72ABEF" stroke-width="8.82759" stroke-linecap="round"/>
<line x1="4.41379" y1="-4.41379" x2="28.0448" y2="-4.41379" transform="matrix(-0.707107 -0.707107 -0.707107 0.707107 294.414 238.11)" stroke="#FFECBE" stroke-width="8.82759" stroke-linecap="round"/>
<line x1="422.506" y1="199.787" x2="400.862" y2="209.273" stroke="#FF9AB2" stroke-width="8.82759" stroke-linecap="round"/>
<line x1="410.938" y1="73.0973" x2="394.229" y2="89.8069" stroke="#FF9AB2" stroke-width="8.82759" stroke-linecap="round"/>
<line x1="294.414" y1="154.311" x2="277.704" y2="171.021" stroke="#FFECBE" stroke-width="8.82759" stroke-linecap="round"/>
<line x1="4.41379" y1="-4.41379" x2="28.0448" y2="-4.41379" transform="matrix(-0.874654 -0.484747 -0.484747 0.874654 375.77 216.769)" stroke="#FFECBE" stroke-width="8.82759" stroke-linecap="round"/>
<line x1="4.41379" y1="-4.41379" x2="28.0448" y2="-4.41379" transform="matrix(-0.909398 -0.415927 -0.415927 0.909398 333.004 155.7)" stroke="#FFECBE" stroke-width="8.82759" stroke-linecap="round"/>
<line x1="322.662" y1="191.387" x2="305.952" y2="208.096" stroke="#72ABEF" stroke-width="8.82759" stroke-linecap="round"/>
<line x1="370.331" y1="154.311" x2="353.621" y2="171.021" stroke="#FF9AB2" stroke-width="8.82759" stroke-linecap="round"/>
<line x1="184.952" y1="124.297" x2="168.242" y2="141.007" stroke="#72ABEF" stroke-width="8.82759" stroke-linecap="round"/>
<line x1="4.41379" y1="-4.41379" x2="28.0448" y2="-4.41379" transform="matrix(-0.707107 -0.707107 -0.707107 0.707107 253.807 201.034)" stroke="#FF9AB2" stroke-width="8.82759" stroke-linecap="round"/>
<line x1="4.41379" y1="-4.41379" x2="28.0448" y2="-4.41379" transform="matrix(-0.594519 -0.804081 -0.804081 0.594519 213.076 119.437)" stroke="#FF9AB2" stroke-width="8.82759" stroke-linecap="round"/>
<line x1="213.2" y1="161.373" x2="196.491" y2="178.083" stroke="#FF9AB2" stroke-width="8.82759" stroke-linecap="round"/>
<line x1="255.295" y1="118.377" x2="252.252" y2="141.812" stroke="#72ABEF" stroke-width="8.82759" stroke-linecap="round"/>
<line x1="499.151" y1="98.5523" x2="482.442" y2="115.262" stroke="#FF9AB2" stroke-width="8.82759" stroke-linecap="round"/>
<line x1="4.41379" y1="-4.41379" x2="28.0448" y2="-4.41379" transform="matrix(-0.707107 -0.707107 -0.707107 0.707107 568.007 175.29)" stroke="#FF9AB2" stroke-width="8.82759" stroke-linecap="round"/>
<line x1="4.41379" y1="-4.41379" x2="28.0448" y2="-4.41379" transform="matrix(-0.707107 -0.707107 -0.707107 0.707107 534.462 104.669)" stroke="#FF9AB2" stroke-width="8.82759" stroke-linecap="round"/>
<line x1="527.399" y1="135.628" x2="510.69" y2="152.338" stroke="#FFECBE" stroke-width="8.82759" stroke-linecap="round"/>
<line x1="575.97" y1="106.187" x2="552.664" y2="110.096" stroke="#72ABEF" stroke-width="8.82759" stroke-linecap="round"/>
<line x1="598.021" y1="132.097" x2="581.311" y2="148.807" stroke="#FFECBE" stroke-width="8.82759" stroke-linecap="round"/>
<line x1="4.41379" y1="-4.41379" x2="28.0448" y2="-4.41379" transform="matrix(-0.707107 -0.707107 -0.707107 0.707107 666.875 208.834)" stroke="#FFECBE" stroke-width="8.82759" stroke-linecap="round"/>
<line x1="4.41379" y1="-4.41379" x2="28.0448" y2="-4.41379" transform="matrix(-0.707107 -0.707107 -0.707107 0.707107 633.33 138.214)" stroke="#72ABEF" stroke-width="8.82759" stroke-linecap="round"/>
<line x1="627.383" y1="173.708" x2="605.74" y2="183.194" stroke="#FFECBE" stroke-width="8.82759" stroke-linecap="round"/>
<line x1="4.41379" y1="-4.41379" x2="28.0448" y2="-4.41379" transform="matrix(-0.707107 -0.707107 -0.707107 0.707107 596.255 87.0137)" stroke="#72ABEF" stroke-width="8.82759" stroke-linecap="round"/>
<line x1="485.864" y1="62.5984" x2="478.268" y2="84.9751" stroke="#72ABEF" stroke-width="8.82759" stroke-linecap="round"/>
<line x1="4.41379" y1="-4.41379" x2="28.0448" y2="-4.41379" transform="matrix(-0.707107 -0.707107 -0.707107 0.707107 695.123 120.559)" stroke="#FFECBE" stroke-width="8.82759" stroke-linecap="round"/>
<line x1="4.41379" y1="-4.41379" x2="28.0448" y2="-4.41379" transform="matrix(-0.880342 -0.47434 -0.47434 0.880342 462.4 123.596)" stroke="#FFECBE" stroke-width="8.82759" stroke-linecap="round"/>
<line x1="655.632" y1="85.4325" x2="633.988" y2="94.9184" stroke="#FF9AB2" stroke-width="8.82759" stroke-linecap="round"/>
<line x1="4.41379" y1="-4.41379" x2="28.0448" y2="-4.41379" transform="matrix(-0.179651 -0.98373 -0.98373 0.179651 478.234 294.542)" stroke="#FFECBE" stroke-width="8.82759" stroke-linecap="round"/>
<line x1="522.104" y1="290.994" x2="505.394" y2="307.703" stroke="#FF9AB2" stroke-width="8.82759" stroke-linecap="round"/>
<line x1="4.41379" y1="-4.41379" x2="28.0448" y2="-4.41379" transform="matrix(-0.707107 -0.707107 -0.707107 0.707107 620.972 313)" stroke="#72ABEF" stroke-width="8.82759" stroke-linecap="round"/>
<line x1="4.41379" y1="-4.41379" x2="28.0448" y2="-4.41379" transform="matrix(-0.707107 -0.707107 -0.707107 0.707107 557.413 297.11)" stroke="#FFECBE" stroke-width="8.82759" stroke-linecap="round"/>
<line x1="685.505" y1="258.787" x2="663.861" y2="268.273" stroke="#FF9AB2" stroke-width="8.82759" stroke-linecap="round"/>
<line x1="673.938" y1="132.097" x2="657.228" y2="148.807" stroke="#FF9AB2" stroke-width="8.82759" stroke-linecap="round"/>
<line x1="557.413" y1="213.311" x2="540.703" y2="230.021" stroke="#FFECBE" stroke-width="8.82759" stroke-linecap="round"/>
<line x1="4.41379" y1="-4.41379" x2="28.0448" y2="-4.41379" transform="matrix(-0.874654 -0.484747 -0.484747 0.874654 638.77 275.769)" stroke="#FFECBE" stroke-width="8.82759" stroke-linecap="round"/>
<line x1="4.41379" y1="-4.41379" x2="28.0448" y2="-4.41379" transform="matrix(-0.909398 -0.415927 -0.415927 0.909398 596.003 214.7)" stroke="#FFECBE" stroke-width="8.82759" stroke-linecap="round"/>
<line x1="585.662" y1="250.387" x2="568.952" y2="267.096" stroke="#72ABEF" stroke-width="8.82759" stroke-linecap="round"/>
<line x1="633.33" y1="213.311" x2="616.62" y2="230.021" stroke="#FF9AB2" stroke-width="8.82759" stroke-linecap="round"/>
<line x1="447.952" y1="183.297" x2="431.242" y2="200.007" stroke="#72ABEF" stroke-width="8.82759" stroke-linecap="round"/>
<line x1="4.41379" y1="-4.41379" x2="28.0448" y2="-4.41379" transform="matrix(-0.707107 -0.707107 -0.707107 0.707107 516.807 260.034)" stroke="#FF9AB2" stroke-width="8.82759" stroke-linecap="round"/>
<line x1="4.41379" y1="-4.41379" x2="28.0448" y2="-4.41379" transform="matrix(-0.594519 -0.804081 -0.804081 0.594519 476.076 178.437)" stroke="#FF9AB2" stroke-width="8.82759" stroke-linecap="round"/>
<line x1="476.2" y1="220.373" x2="459.491" y2="237.083" stroke="#FF9AB2" stroke-width="8.82759" stroke-linecap="round"/>
<line x1="518.294" y1="177.377" x2="515.251" y2="200.812" stroke="#72ABEF" stroke-width="8.82759" stroke-linecap="round"/>
<line x1="4.41379" y1="-4.41379" x2="28.0448" y2="-4.41379" transform="matrix(0.707107 0.707107 0.707107 -0.707107 408.973 303.31)" stroke="#FF9AB2" stroke-width="8.82759" stroke-linecap="round"/>
<line x1="340.117" y1="380.048" x2="356.827" y2="363.338" stroke="#FF9AB2" stroke-width="8.82759" stroke-linecap="round"/>
<line x1="373.662" y1="309.427" x2="390.372" y2="292.717" stroke="#FF9AB2" stroke-width="8.82759" stroke-linecap="round"/>
<line x1="4.41379" y1="-4.41379" x2="28.0448" y2="-4.41379" transform="matrix(0.707107 0.707107 0.707107 -0.707107 380.725 340.386)" stroke="#FFECBE" stroke-width="8.82759" stroke-linecap="round"/>
<line x1="4.41379" y1="-4.41379" x2="28.0448" y2="-4.41379" transform="matrix(0.986225 0.165407 0.165407 -0.986225 328.531 312.104)" stroke="#72ABEF" stroke-width="8.82759" stroke-linecap="round"/>
<line x1="4.41379" y1="-4.41379" x2="28.0448" y2="-4.41379" transform="matrix(0.707107 0.707107 0.707107 -0.707107 310.104 336.855)" stroke="#FFECBE" stroke-width="8.82759" stroke-linecap="round"/>
<line x1="241.248" y1="413.592" x2="257.958" y2="396.883" stroke="#FFECBE" stroke-width="8.82759" stroke-linecap="round"/>
<line x1="274.793" y1="342.972" x2="291.503" y2="326.262" stroke="#72ABEF" stroke-width="8.82759" stroke-linecap="round"/>
<line x1="4.41379" y1="-4.41379" x2="28.0448" y2="-4.41379" transform="matrix(0.915895 0.401417 0.401417 -0.915895 278.469 378.894)" stroke="#FFECBE" stroke-width="8.82759" stroke-linecap="round"/>
<line x1="311.869" y1="291.772" x2="328.579" y2="275.062" stroke="#72ABEF" stroke-width="8.82759" stroke-linecap="round"/>
<line x1="4.41379" y1="-4.41379" x2="28.0448" y2="-4.41379" transform="matrix(0.321468 0.94692 0.94692 -0.321468 425.021 268)" stroke="#72ABEF" stroke-width="8.82759" stroke-linecap="round"/>
<line x1="213" y1="325.317" x2="229.71" y2="308.607" stroke="#FFECBE" stroke-width="8.82759" stroke-linecap="round"/>
<line x1="447.516" y1="328.617" x2="468.319" y2="317.408" stroke="#FFECBE" stroke-width="8.82759" stroke-linecap="round"/>
<line x1="4.41379" y1="-4.41379" x2="28.0448" y2="-4.41379" transform="matrix(0.915895 0.401417 0.401417 -0.915895 250.221 290.618)" stroke="#FF9AB2" stroke-width="8.82759" stroke-linecap="round"/>
<line x1="426.341" y1="500.407" x2="430.586" y2="477.161" stroke="#FFECBE" stroke-width="8.82759" stroke-linecap="round"/>
<line x1="4.41379" y1="-4.41379" x2="28.0448" y2="-4.41379" transform="matrix(0.707107 0.707107 0.707107 -0.707107 386.021 495.752)" stroke="#FF9AB2" stroke-width="8.82759" stroke-linecap="round"/>
<line x1="287.151" y1="517.758" x2="303.861" y2="501.048" stroke="#72ABEF" stroke-width="8.82759" stroke-linecap="round"/>
<line x1="350.71" y1="501.868" x2="367.42" y2="485.159" stroke="#FFECBE" stroke-width="8.82759" stroke-linecap="round"/>
<line x1="4.41379" y1="-4.41379" x2="28.0448" y2="-4.41379" transform="matrix(0.915895 0.401417 0.401417 -0.915895 220.349 463.972)" stroke="#FF9AB2" stroke-width="8.82759" stroke-linecap="round"/>
<line x1="4.41379" y1="-4.41379" x2="28.0448" y2="-4.41379" transform="matrix(0.707107 0.707107 0.707107 -0.707107 234.187 336.855)" stroke="#FF9AB2" stroke-width="8.82759" stroke-linecap="round"/>
<line x1="4.41379" y1="-4.41379" x2="28.0448" y2="-4.41379" transform="matrix(0.707107 0.707107 0.707107 -0.707107 350.71 418.069)" stroke="#FFECBE" stroke-width="8.82759" stroke-linecap="round"/>
<line x1="271.076" y1="480.768" x2="291.745" y2="469.313" stroke="#FFECBE" stroke-width="8.82759" stroke-linecap="round"/>
<line x1="314.299" y1="419.85" x2="335.789" y2="410.021" stroke="#FFECBE" stroke-width="8.82759" stroke-linecap="round"/>
<line x1="4.41379" y1="-4.41379" x2="28.0448" y2="-4.41379" transform="matrix(0.707107 0.707107 0.707107 -0.707107 322.462 455.145)" stroke="#72ABEF" stroke-width="8.82759" stroke-linecap="round"/>
<line x1="4.41379" y1="-4.41379" x2="28.0448" y2="-4.41379" transform="matrix(0.707107 0.707107 0.707107 -0.707107 274.793 418.069)" stroke="#FF9AB2" stroke-width="8.82759" stroke-linecap="round"/>
<line x1="4.41379" y1="-4.41379" x2="28.0448" y2="-4.41379" transform="matrix(0.707107 0.707107 0.707107 -0.707107 460.172 388.055)" stroke="#72ABEF" stroke-width="8.82759" stroke-linecap="round"/>
<line x1="391.317" y1="464.792" x2="408.027" y2="448.083" stroke="#FF9AB2" stroke-width="8.82759" stroke-linecap="round"/>
<line x1="431.123" y1="383.264" x2="445.172" y2="364.263" stroke="#FF9AB2" stroke-width="8.82759" stroke-linecap="round"/>
<line x1="4.41379" y1="-4.41379" x2="28.0448" y2="-4.41379" transform="matrix(0.707107 0.707107 0.707107 -0.707107 431.924 425.131)" stroke="#FF9AB2" stroke-width="8.82759" stroke-linecap="round"/>
<line x1="4.41379" y1="-4.41379" x2="28.0448" y2="-4.41379" transform="matrix(0.12876 0.991676 0.991676 -0.12876 393.638 383.432)" stroke="#72ABEF" stroke-width="8.82759" stroke-linecap="round"/>
<line x1="559.152" y1="361.552" x2="542.443" y2="378.262" stroke="#FF9AB2" stroke-width="8.82759" stroke-linecap="round"/>
<line x1="4.41379" y1="-4.41379" x2="28.0448" y2="-4.41379" transform="matrix(-0.707107 -0.707107 -0.707107 0.707107 628.007 438.29)" stroke="#FF9AB2" stroke-width="8.82759" stroke-linecap="round"/>
<line x1="4.41379" y1="-4.41379" x2="28.0448" y2="-4.41379" transform="matrix(-0.707107 -0.707107 -0.707107 0.707107 594.463 367.669)" stroke="#FF9AB2" stroke-width="8.82759" stroke-linecap="round"/>
<line x1="587.4" y1="398.628" x2="570.691" y2="415.338" stroke="#FFECBE" stroke-width="8.82759" stroke-linecap="round"/>
<line x1="635.971" y1="369.187" x2="612.665" y2="373.096" stroke="#72ABEF" stroke-width="8.82759" stroke-linecap="round"/>
<line x1="658.021" y1="395.097" x2="641.312" y2="411.807" stroke="#FFECBE" stroke-width="8.82759" stroke-linecap="round"/>
<line x1="4.41379" y1="-4.41379" x2="28.0448" y2="-4.41379" transform="matrix(-0.707107 -0.707107 -0.707107 0.707107 693.332 401.214)" stroke="#72ABEF" stroke-width="8.82759" stroke-linecap="round"/>
<line x1="687.385" y1="436.708" x2="665.742" y2="446.194" stroke="#FFECBE" stroke-width="8.82759" stroke-linecap="round"/>
<line x1="4.41379" y1="-4.41379" x2="28.0448" y2="-4.41379" transform="matrix(-0.707107 -0.707107 -0.707107 0.707107 656.256 350.014)" stroke="#72ABEF" stroke-width="8.82759" stroke-linecap="round"/>
<line x1="545.865" y1="325.598" x2="538.268" y2="347.975" stroke="#72ABEF" stroke-width="8.82759" stroke-linecap="round"/>
<line x1="4.41379" y1="-4.41379" x2="28.0448" y2="-4.41379" transform="matrix(-0.880342 -0.47434 -0.47434 0.880342 522.4 386.597)" stroke="#FFECBE" stroke-width="8.82759" stroke-linecap="round"/>
<line x1="4.41379" y1="-4.41379" x2="28.0448" y2="-4.41379" transform="matrix(-0.179651 -0.98373 -0.98373 0.179651 538.235 557.542)" stroke="#FFECBE" stroke-width="8.82759" stroke-linecap="round"/>
<line x1="582.104" y1="553.994" x2="565.394" y2="570.703" stroke="#FF9AB2" stroke-width="8.82759" stroke-linecap="round"/>
<line x1="4.41379" y1="-4.41379" x2="28.0448" y2="-4.41379" transform="matrix(-0.707107 -0.707107 -0.707107 0.707107 680.973 576)" stroke="#72ABEF" stroke-width="8.82759" stroke-linecap="round"/>
<line x1="4.41379" y1="-4.41379" x2="28.0448" y2="-4.41379" transform="matrix(-0.707107 -0.707107 -0.707107 0.707107 617.414 560.11)" stroke="#FFECBE" stroke-width="8.82759" stroke-linecap="round"/>
<line x1="617.414" y1="476.311" x2="600.704" y2="493.021" stroke="#FFECBE" stroke-width="8.82759" stroke-linecap="round"/>
<line x1="4.41379" y1="-4.41379" x2="28.0448" y2="-4.41379" transform="matrix(-0.874654 -0.484747 -0.484747 0.874654 698.77 538.769)" stroke="#FFECBE" stroke-width="8.82759" stroke-linecap="round"/>
<line x1="4.41379" y1="-4.41379" x2="28.0448" y2="-4.41379" transform="matrix(-0.909398 -0.415927 -0.415927 0.909398 656.004 477.7)" stroke="#FFECBE" stroke-width="8.82759" stroke-linecap="round"/>
<line x1="645.662" y1="513.387" x2="628.952" y2="530.096" stroke="#72ABEF" stroke-width="8.82759" stroke-linecap="round"/>
<line x1="693.332" y1="476.311" x2="676.622" y2="493.021" stroke="#FF9AB2" stroke-width="8.82759" stroke-linecap="round"/>
<line x1="507.952" y1="446.297" x2="491.242" y2="463.007" stroke="#72ABEF" stroke-width="8.82759" stroke-linecap="round"/>
<line x1="4.41379" y1="-4.41379" x2="28.0448" y2="-4.41379" transform="matrix(-0.707107 -0.707107 -0.707107 0.707107 576.808 523.034)" stroke="#FF9AB2" stroke-width="8.82759" stroke-linecap="round"/>
<line x1="4.41379" y1="-4.41379" x2="28.0448" y2="-4.41379" transform="matrix(-0.594519 -0.804081 -0.804081 0.594519 536.076 441.437)" stroke="#FF9AB2" stroke-width="8.82759" stroke-linecap="round"/>
<line x1="536.2" y1="483.373" x2="519.491" y2="500.083" stroke="#FF9AB2" stroke-width="8.82759" stroke-linecap="round"/>
<line x1="578.295" y1="440.377" x2="575.252" y2="463.812" stroke="#72ABEF" stroke-width="8.82759" stroke-linecap="round"/>
<line x1="165.194" y1="187.598" x2="157.598" y2="209.975" stroke="#72ABEF" stroke-width="8.82759" stroke-linecap="round"/>
<line x1="4.41379" y1="-4.41379" x2="28.0448" y2="-4.41379" transform="matrix(-0.880342 -0.47434 -0.47434 0.880342 117.574 201.396)" stroke="#FFECBE" stroke-width="8.82759" stroke-linecap="round"/>
<line x1="4.41379" y1="-4.41379" x2="28.0448" y2="-4.41379" transform="matrix(-0.594519 -0.804081 -0.804081 0.594519 122.297 131.099)" stroke="#FF9AB2" stroke-width="8.82759" stroke-linecap="round"/>
<line x1="76.9512" y1="159.242" x2="60.2415" y2="175.952" stroke="#72ABEF" stroke-width="8.82759" stroke-linecap="round"/>
<line x1="179.951" y1="77.242" x2="163.242" y2="93.9517" stroke="#FF9AB2" stroke-width="8.82759" stroke-linecap="round"/>
<line x1="4.41379" y1="-4.41379" x2="28.0448" y2="-4.41379" transform="matrix(-0.179651 -0.98373 -0.98373 0.179651 136.832 109.931)" stroke="#FFECBE" stroke-width="8.82759" stroke-linecap="round"/>
<line x1="4.41379" y1="-4.41379" x2="28.0448" y2="-4.41379" transform="matrix(-0.179651 -0.98373 -0.98373 0.179651 198.832 475.931)" stroke="#FFECBE" stroke-width="8.82759" stroke-linecap="round"/>
<line x1="258.951" y1="434.242" x2="242.242" y2="450.952" stroke="#72ABEF" stroke-width="8.82759" stroke-linecap="round"/>
<line x1="476.951" y1="483.242" x2="460.241" y2="499.952" stroke="#72ABEF" stroke-width="8.82759" stroke-linecap="round"/>
<line x1="4.41379" y1="-4.41379" x2="28.0448" y2="-4.41379" transform="matrix(-0.915895 -0.401417 -0.401417 0.915895 550.729 616.03)" stroke="#FF9AB2" stroke-width="8.82759" stroke-linecap="round"/>
<line x1="4.16113" y1="257.551" x2="-12.5485" y2="274.261" stroke="#FF9AB2" stroke-width="8.82759" stroke-linecap="round"/>
<line x1="4.41379" y1="-4.41379" x2="28.0448" y2="-4.41379" transform="matrix(-0.707107 -0.707107 -0.707107 0.707107 73.0156 334.288)" stroke="#FF9AB2" stroke-width="8.82759" stroke-linecap="round"/>
<line x1="4.41379" y1="-4.41379" x2="28.0448" y2="-4.41379" transform="matrix(-0.707107 -0.707107 -0.707107 0.707107 39.4717 263.667)" stroke="#FF9AB2" stroke-width="8.82759" stroke-linecap="round"/>
<line x1="32.4092" y1="294.627" x2="15.6995" y2="311.336" stroke="#FFECBE" stroke-width="8.82759" stroke-linecap="round"/>
<line x1="80.9786" y1="265.186" x2="57.6731" y2="269.095" stroke="#72ABEF" stroke-width="8.82759" stroke-linecap="round"/>
<line x1="103.029" y1="291.096" x2="86.3196" y2="307.805" stroke="#FFECBE" stroke-width="8.82759" stroke-linecap="round"/>
<line x1="4.41379" y1="-4.41379" x2="28.0448" y2="-4.41379" transform="matrix(-0.707107 -0.707107 -0.707107 0.707107 171.884 367.833)" stroke="#FFECBE" stroke-width="8.82759" stroke-linecap="round"/>
<line x1="4.41379" y1="-4.41379" x2="28.0448" y2="-4.41379" transform="matrix(-0.707107 -0.707107 -0.707107 0.707107 138.34 297.212)" stroke="#72ABEF" stroke-width="8.82759" stroke-linecap="round"/>
<line x1="132.392" y1="332.707" x2="110.749" y2="342.193" stroke="#FFECBE" stroke-width="8.82759" stroke-linecap="round"/>
<line x1="4.41379" y1="-4.41379" x2="28.0448" y2="-4.41379" transform="matrix(-0.707107 -0.707107 -0.707107 0.707107 101.264 246.012)" stroke="#72ABEF" stroke-width="8.82759" stroke-linecap="round"/>
<line x1="4.41379" y1="-4.41379" x2="28.0448" y2="-4.41379" transform="matrix(-0.707107 -0.707107 -0.707107 0.707107 200.133 279.557)" stroke="#FFECBE" stroke-width="8.82759" stroke-linecap="round"/>
<line x1="160.641" y1="244.431" x2="138.998" y2="253.917" stroke="#FF9AB2" stroke-width="8.82759" stroke-linecap="round"/>
<line x1="68.9512" y1="197.242" x2="52.2415" y2="213.952" stroke="#FF9AB2" stroke-width="8.82759" stroke-linecap="round"/>
<line x1="4.41379" y1="-4.41379" x2="28.0448" y2="-4.41379" transform="matrix(-0.707107 -0.707107 -0.707107 0.707107 125.98 471.998)" stroke="#72ABEF" stroke-width="8.82759" stroke-linecap="round"/>
<line x1="4.41379" y1="-4.41379" x2="28.0448" y2="-4.41379" transform="matrix(-0.707107 -0.707107 -0.707107 0.707107 62.4219 456.108)" stroke="#FFECBE" stroke-width="8.82759" stroke-linecap="round"/>
<line x1="190.513" y1="417.785" x2="168.87" y2="427.271" stroke="#FF9AB2" stroke-width="8.82759" stroke-linecap="round"/>
<line x1="178.946" y1="291.096" x2="162.237" y2="307.805" stroke="#FF9AB2" stroke-width="8.82759" stroke-linecap="round"/>
<line x1="62.4219" y1="372.309" x2="45.7122" y2="389.019" stroke="#FFECBE" stroke-width="8.82759" stroke-linecap="round"/>
<line x1="4.41379" y1="-4.41379" x2="28.0448" y2="-4.41379" transform="matrix(-0.874654 -0.484747 -0.484747 0.874654 143.777 434.767)" stroke="#FFECBE" stroke-width="8.82759" stroke-linecap="round"/>
<line x1="4.41379" y1="-4.41379" x2="28.0448" y2="-4.41379" transform="matrix(-0.909398 -0.415927 -0.415927 0.909398 101.012 373.698)" stroke="#FFECBE" stroke-width="8.82759" stroke-linecap="round"/>
<line x1="90.6699" y1="409.385" x2="73.9602" y2="426.095" stroke="#72ABEF" stroke-width="8.82759" stroke-linecap="round"/>
<line x1="138.34" y1="372.309" x2="121.63" y2="389.019" stroke="#FF9AB2" stroke-width="8.82759" stroke-linecap="round"/>
<line x1="4.41379" y1="-4.41379" x2="28.0448" y2="-4.41379" transform="matrix(-0.707107 -0.707107 -0.707107 0.707107 21.8164 419.033)" stroke="#FF9AB2" stroke-width="8.82759" stroke-linecap="round"/>
<line x1="23.3039" y1="336.376" x2="20.2611" y2="359.81" stroke="#72ABEF" stroke-width="8.82759" stroke-linecap="round"/>
<line x1="430.018" y1="665.951" x2="413.308" y2="682.66" stroke="#FF9AB2" stroke-width="8.82759" stroke-linecap="round"/>
<line x1="4.41379" y1="-4.41379" x2="28.0448" y2="-4.41379" transform="matrix(-0.707107 -0.707107 -0.707107 0.707107 389.411 705.612)" stroke="#FFECBE" stroke-width="8.82759" stroke-linecap="round"/>
<line x1="528.887" y1="632.406" x2="512.177" y2="649.115" stroke="#FFECBE" stroke-width="8.82759" stroke-linecap="round"/>
<line x1="4.41379" y1="-4.41379" x2="28.0448" y2="-4.41379" transform="matrix(-0.915895 -0.401417 -0.401417 0.915895 491.666 667.104)" stroke="#FFECBE" stroke-width="8.82759" stroke-linecap="round"/>
<line x1="343.795" y1="545.591" x2="339.55" y2="568.837" stroke="#FFECBE" stroke-width="8.82759" stroke-linecap="round"/>
<line x1="4.41379" y1="-4.41379" x2="28.0448" y2="-4.41379" transform="matrix(-0.707107 -0.707107 -0.707107 0.707107 384.114 550.246)" stroke="#FF9AB2" stroke-width="8.82759" stroke-linecap="round"/>
<line x1="482.983" y1="528.24" x2="466.274" y2="544.95" stroke="#72ABEF" stroke-width="8.82759" stroke-linecap="round"/>
<line x1="419.425" y1="544.13" x2="402.715" y2="560.839" stroke="#FFECBE" stroke-width="8.82759" stroke-linecap="round"/>
<line x1="4.41379" y1="-4.41379" x2="28.0448" y2="-4.41379" transform="matrix(-0.915895 -0.401417 -0.401417 0.915895 549.787 582.026)" stroke="#FF9AB2" stroke-width="8.82759" stroke-linecap="round"/>
<line x1="4.41379" y1="-4.41379" x2="28.0448" y2="-4.41379" transform="matrix(-0.707107 -0.707107 -0.707107 0.707107 419.425 627.929)" stroke="#FFECBE" stroke-width="8.82759" stroke-linecap="round"/>
<line x1="499.059" y1="565.23" x2="478.39" y2="576.685" stroke="#FFECBE" stroke-width="8.82759" stroke-linecap="round"/>
<line x1="455.837" y1="626.148" x2="434.347" y2="635.977" stroke="#FFECBE" stroke-width="8.82759" stroke-linecap="round"/>
<line x1="4.41379" y1="-4.41379" x2="28.0448" y2="-4.41379" transform="matrix(-0.707107 -0.707107 -0.707107 0.707107 447.673 590.853)" stroke="#72ABEF" stroke-width="8.82759" stroke-linecap="round"/>
<line x1="4.41379" y1="-4.41379" x2="28.0448" y2="-4.41379" transform="matrix(-0.707107 -0.707107 -0.707107 0.707107 495.342 627.929)" stroke="#FF9AB2" stroke-width="8.82759" stroke-linecap="round"/>
<line x1="4.41379" y1="-4.41379" x2="28.0448" y2="-4.41379" transform="matrix(-0.707107 -0.707107 -0.707107 0.707107 309.963 657.943)" stroke="#72ABEF" stroke-width="8.82759" stroke-linecap="round"/>
<line x1="378.817" y1="581.206" x2="362.108" y2="597.915" stroke="#FF9AB2" stroke-width="8.82759" stroke-linecap="round"/>
<line x1="339.012" y1="662.734" x2="324.963" y2="681.735" stroke="#FF9AB2" stroke-width="8.82759" stroke-linecap="round"/>
<line x1="4.41379" y1="-4.41379" x2="28.0448" y2="-4.41379" transform="matrix(-0.707107 -0.707107 -0.707107 0.707107 338.212 620.867)" stroke="#FF9AB2" stroke-width="8.82759" stroke-linecap="round"/>
<line x1="4.41379" y1="-4.41379" x2="28.0448" y2="-4.41379" transform="matrix(-0.12876 -0.991676 -0.991676 0.12876 376.497 662.566)" stroke="#72ABEF" stroke-width="8.82759" stroke-linecap="round"/>
<line x1="104.16" y1="556.551" x2="87.4505" y2="573.26" stroke="#FF9AB2" stroke-width="8.82759" stroke-linecap="round"/>
<line x1="4.41379" y1="-4.41379" x2="28.0448" y2="-4.41379" transform="matrix(-0.707107 -0.707107 -0.707107 0.707107 173.016 633.288)" stroke="#FF9AB2" stroke-width="8.82759" stroke-linecap="round"/>
<line x1="4.41379" y1="-4.41379" x2="28.0448" y2="-4.41379" transform="matrix(-0.707107 -0.707107 -0.707107 0.707107 139.471 562.667)" stroke="#FF9AB2" stroke-width="8.82759" stroke-linecap="round"/>
<line x1="132.409" y1="593.627" x2="115.7" y2="610.336" stroke="#FFECBE" stroke-width="8.82759" stroke-linecap="round"/>
<line x1="180.979" y1="564.186" x2="157.673" y2="568.094" stroke="#72ABEF" stroke-width="8.82759" stroke-linecap="round"/>
<line x1="203.029" y1="590.096" x2="186.32" y2="606.805" stroke="#FFECBE" stroke-width="8.82759" stroke-linecap="round"/>
<line x1="4.41379" y1="-4.41379" x2="28.0448" y2="-4.41379" transform="matrix(-0.707107 -0.707107 -0.707107 0.707107 271.885 666.833)" stroke="#FFECBE" stroke-width="8.82759" stroke-linecap="round"/>
<line x1="4.41379" y1="-4.41379" x2="28.0448" y2="-4.41379" transform="matrix(-0.707107 -0.707107 -0.707107 0.707107 238.34 596.212)" stroke="#72ABEF" stroke-width="8.82759" stroke-linecap="round"/>
<line x1="232.393" y1="631.707" x2="210.75" y2="641.193" stroke="#FFECBE" stroke-width="8.82759" stroke-linecap="round"/>
<line x1="4.41379" y1="-4.41379" x2="28.0448" y2="-4.41379" transform="matrix(-0.707107 -0.707107 -0.707107 0.707107 201.264 545.012)" stroke="#72ABEF" stroke-width="8.82759" stroke-linecap="round"/>
<line x1="90.8739" y1="520.596" x2="83.2773" y2="542.973" stroke="#72ABEF" stroke-width="8.82759" stroke-linecap="round"/>
<line x1="4.41379" y1="-4.41379" x2="28.0448" y2="-4.41379" transform="matrix(-0.707107 -0.707107 -0.707107 0.707107 300.13 578.557)" stroke="#FFECBE" stroke-width="8.82759" stroke-linecap="round"/>
<line x1="4.41379" y1="-4.41379" x2="28.0448" y2="-4.41379" transform="matrix(-0.880342 -0.47434 -0.47434 0.880342 72.584 500.394)" stroke="#FFECBE" stroke-width="8.82759" stroke-linecap="round"/>
<line x1="260.641" y1="543.431" x2="238.998" y2="552.916" stroke="#FF9AB2" stroke-width="8.82759" stroke-linecap="round"/>
<line x1="278.946" y1="590.096" x2="262.237" y2="606.805" stroke="#FF9AB2" stroke-width="8.82759" stroke-linecap="round"/>
<line x1="162.423" y1="671.309" x2="145.713" y2="688.019" stroke="#FFECBE" stroke-width="8.82759" stroke-linecap="round"/>
<line x1="4.41379" y1="-4.41379" x2="28.0448" y2="-4.41379" transform="matrix(-0.909398 -0.415927 -0.415927 0.909398 252.519 521.5)" stroke="#FFECBE" stroke-width="8.82759" stroke-linecap="round"/>
<line x1="238.34" y1="671.309" x2="221.63" y2="688.019" stroke="#FF9AB2" stroke-width="8.82759" stroke-linecap="round"/>
<line x1="139.961" y1="495.24" x2="123.251" y2="511.95" stroke="#72ABEF" stroke-width="8.82759" stroke-linecap="round"/>
<line x1="4.41379" y1="-4.41379" x2="28.0448" y2="-4.41379" transform="matrix(-0.594519 -0.804081 -0.804081 0.594519 179.307 498.097)" stroke="#FF9AB2" stroke-width="8.82759" stroke-linecap="round"/>
<line x1="81.209" y1="678.371" x2="64.4993" y2="695.081" stroke="#FF9AB2" stroke-width="8.82759" stroke-linecap="round"/>
<line x1="206.989" y1="362.945" x2="203.947" y2="386.38" stroke="#72ABEF" stroke-width="8.82759" stroke-linecap="round"/>
</g>
</svg>
